<svg width="32" height="32" viewBox="0 0 32 32" fill="none" xmlns="http://www.w3.org/2000/svg">
<path fill-rule="evenodd" clip-rule="evenodd" d="M0.951054 21.6139L0.165809 18.7153L0.865496 18.5274L1.14743 19.5682L4.63392 18.632L4.86081 19.4695L1.37433 20.4057L1.65074 21.426L0.951054 21.6139ZM0.0279304 17.0233L0 16.2318L4.28636 14.7234L4.31903 15.6492L3.43329 15.9138L3.47559 17.1123L4.37791 17.3178L4.41038 18.2378L0.0279304 17.0233ZM2.71843 16.1273L1.17436 16.5885L2.74734 16.9466L2.71843 16.1273ZM4.66699 13.1114L4.33984 14.5069L0.1169 13.5063L0.422097 12.2044C0.471294 11.9946 0.53837 11.8123 0.623314 11.6576C0.708262 11.5029 0.812434 11.3786 0.935835 11.2848C1.05923 11.1911 1.20034 11.1306 1.35914 11.1035C1.51795 11.0764 1.69597 11.0862 1.8932 11.1329C2.06589 11.1738 2.21776 11.2466 2.34881 11.3512C2.47987 11.4558 2.57459 11.5933 2.63301 11.7637C2.64408 11.796 2.65329 11.8295 2.66065 11.8643C2.70044 11.7925 2.74777 11.7318 2.80262 11.682C2.92738 11.5688 3.0719 11.5006 3.23616 11.4774C3.40043 11.4541 3.56595 11.4622 3.73272 11.5018C4.00484 11.5662 4.22108 11.6708 4.38144 11.8156C4.54179 11.9604 4.64612 12.1415 4.69443 12.3589C4.74276 12.5764 4.7336 12.8272 4.66699 13.1114ZM2.69699 13.2211L3.83601 13.491L3.96405 12.9448C3.99053 12.8319 3.988 12.7357 3.95643 12.6562C3.92488 12.5768 3.87151 12.5111 3.79629 12.4593C3.72108 12.4074 3.63028 12.3689 3.52391 12.3437C3.40385 12.3153 3.29614 12.3049 3.20078 12.3127C3.10542 12.3205 3.02648 12.3507 2.96394 12.4034C2.90142 12.4561 2.85746 12.5366 2.83209 12.6448L2.69699 13.2211ZM2.18744 12.6302C2.21434 12.5155 2.21665 12.416 2.19438 12.3318C2.1721 12.2475 2.12614 12.1784 2.05646 12.1244C1.98678 12.0704 1.8957 12.03 1.78322 12.0034C1.65401 11.9728 1.54623 11.965 1.4599 11.9801C1.37357 11.9953 1.30354 12.0349 1.24983 12.0991C1.19611 12.1633 1.15548 12.2542 1.12794 12.3717L1.02184 12.8242L2.08301 13.0757L2.18744 12.6302ZM6.13958 9.65159L5.05334 11.7985L1.18219 9.83218L1.57583 9.05415L4.8026 10.6932L5.4952 9.32427L6.13958 9.65159ZM7.83724 7.4775L6.26588 9.40234L2.90321 6.65392L4.47048 4.73409L5.03253 5.19347L4.01652 6.43802L4.81613 7.09155L5.677 6.03704L6.22035 6.48114L5.35948 7.53565L6.25742 8.26957L7.2775 7.02002L7.83724 7.4775ZM8.58568 2.55008L7.65463 3.04667L7.31217 2.40677L9.95716 0.996039L10.2996 1.63593L9.34993 2.14246L11.0564 5.33099L10.2921 5.73862L8.58568 2.55008ZM14.309 4.40265L11.8993 5.01528L10.8203 0.811292L13.2237 0.200255L13.404 0.902919L11.846 1.29903L12.1026 2.29869L13.4227 1.96306L13.5971 2.64235L12.2769 2.97799L12.5651 4.10058L14.1294 3.70288L14.309 4.40265ZM17.4604 0L17.5079 4.33739L16.6653 4.34441L15.275 1.64324L15.3047 4.35574L14.4755 4.36265L14.428 0.0252579L15.2601 0.0183253L16.6624 2.75137L16.6323 0.00690074L17.4604 0ZM21.7418 1.01023L20.5876 5.1883L19.7753 4.9619L19.1855 1.98345L18.4637 4.59632L17.6644 4.37353L18.8186 0.195455L19.6207 0.419014L20.2132 3.4314L20.9436 0.787728L21.7418 1.01023ZM23.5247 1.89641L21.5944 5.77564L20.8172 5.38733L22.7475 1.5081L23.5247 1.89641ZM24.0358 6.04206C24.0823 5.97908 24.1185 5.91787 24.1444 5.85843C24.1703 5.79899 24.1815 5.73453 24.1779 5.66508C24.1743 5.59562 24.1544 5.51428 24.1183 5.42107C24.0822 5.32785 24.027 5.21806 23.9527 5.09168C23.8619 4.94065 23.7787 4.7894 23.7032 4.63793C23.6277 4.48646 23.5713 4.33412 23.5341 4.18091C23.497 4.0277 23.4912 3.87464 23.5167 3.72175C23.5423 3.56886 23.6103 3.4176 23.7209 3.26797C23.8295 3.12109 23.9544 3.00763 24.0958 2.92757C24.2373 2.84752 24.3889 2.80136 24.5506 2.7891C24.7124 2.77684 24.8775 2.79725 25.0459 2.85035C25.2142 2.90346 25.38 2.9904 25.5431 3.11117C25.7673 3.27713 25.9272 3.46677 26.0228 3.68009C26.1184 3.89341 26.1516 4.11417 26.1226 4.34234C26.0935 4.57051 26.0016 4.78927 25.8469 4.9986L25.1484 4.48152C25.2212 4.38302 25.2716 4.28553 25.2995 4.18906C25.3274 4.09259 25.3271 4.00037 25.2984 3.91238C25.2698 3.82441 25.2073 3.74478 25.111 3.67349C25.0216 3.60735 24.9344 3.57063 24.8493 3.56333C24.7642 3.55604 24.6851 3.57257 24.6118 3.6129C24.5386 3.65324 24.4736 3.71175 24.4169 3.78842C24.3743 3.84616 24.3506 3.90795 24.3458 3.97378C24.3411 4.0396 24.3497 4.10901 24.3717 4.18199C24.3937 4.25498 24.4265 4.33351 24.4702 4.41759C24.5138 4.50167 24.5648 4.58957 24.6231 4.68129C24.7344 4.86068 24.8235 5.03205 24.8904 5.19542C24.9572 5.3588 24.9975 5.51677 25.0113 5.66935C25.0251 5.82193 25.0104 5.9713 24.9671 6.11746C24.9239 6.26362 24.8482 6.40983 24.7401 6.55609C24.6326 6.70155 24.5097 6.81465 24.3713 6.89539C24.2329 6.97614 24.0845 7.02385 23.9261 7.03854C23.7676 7.05323 23.6036 7.0337 23.4339 6.97996C23.2643 6.92621 23.0965 6.83796 22.9307 6.71521C22.7689 6.5954 22.6328 6.45968 22.5224 6.30805C22.4121 6.15642 22.337 5.99322 22.2971 5.81844C22.2572 5.64366 22.2594 5.46106 22.3037 5.27065C22.348 5.08024 22.443 4.88651 22.5887 4.68946L23.2896 5.2084C23.2123 5.31303 23.1565 5.41013 23.1222 5.4997C23.0879 5.58926 23.0761 5.67225 23.0867 5.74866C23.0973 5.82507 23.1263 5.897 23.1737 5.96445C23.2211 6.0319 23.286 6.09615 23.3685 6.15721C23.4611 6.22576 23.5477 6.26301 23.6282 6.26895C23.7088 6.27489 23.7832 6.25707 23.8514 6.21547C23.9196 6.17387 23.9811 6.11606 24.0358 6.04206ZM27.8512 10.4181L28.2589 11.1844C27.9647 11.3258 27.6913 11.396 27.4385 11.395C27.1857 11.3941 26.9567 11.3236 26.7515 11.1837C26.5463 11.0437 26.3712 10.8374 26.2261 10.5646C26.1129 10.3519 26.048 10.1439 26.0314 9.94048C26.0148 9.73712 26.0451 9.54122 26.1222 9.35279C26.1994 9.16437 26.3244 8.9865 26.497 8.8192C26.6696 8.65189 26.8886 8.49791 27.1539 8.35723L27.8052 8.01198C28.0704 7.87133 28.3224 7.77772 28.5612 7.73115C28.7999 7.68457 29.0197 7.68247 29.2208 7.72485C29.4219 7.76722 29.602 7.85299 29.7612 7.98214C29.9204 8.11129 30.0555 8.28031 30.1666 8.48922C30.3151 8.7682 30.387 9.02935 30.3826 9.27269C30.3781 9.51602 30.3027 9.74208 30.1562 9.95087C30.0098 10.1597 29.7968 10.3511 29.5172 10.5252L29.1082 9.75627C29.2885 9.65443 29.4212 9.55806 29.5061 9.46715C29.5911 9.37624 29.6344 9.28076 29.636 9.18069C29.6376 9.08062 29.6023 8.96263 29.53 8.82674C29.4755 8.72436 29.4108 8.64555 29.3359 8.59031C29.261 8.53507 29.1715 8.50511 29.0673 8.50043C28.9632 8.49575 28.8416 8.51611 28.7027 8.56153C28.5637 8.60695 28.4023 8.67842 28.2183 8.77594L27.5618 9.12398C27.3811 9.21976 27.2323 9.31072 27.1154 9.39684C26.9985 9.48295 26.9113 9.56861 26.8539 9.6538C26.7965 9.739 26.7685 9.82783 26.77 9.92028C26.7714 10.0127 26.8021 10.1152 26.8619 10.2276C26.9308 10.3571 27.0056 10.4515 27.0864 10.5108C27.1671 10.57 27.2678 10.5923 27.3884 10.5778C27.5091 10.5632 27.6633 10.51 27.8512 10.4181ZM27.574 14.3028L26.9848 11.9657L31.1903 10.9157L31.4038 11.7626L27.8983 12.6378L28.274 14.128L27.574 14.3028ZM31.9784 16.2337L32 17.1055L29.022 17.1715C28.6883 17.1789 28.4155 17.1238 28.2035 17.006C27.9915 16.8882 27.8345 16.7231 27.7324 16.5107C27.6304 16.2982 27.576 16.0543 27.5692 15.7789C27.5622 15.4997 27.6044 15.2511 27.6958 15.033C27.7872 14.8149 27.9358 14.6435 28.1418 14.5186C28.3478 14.3937 28.6176 14.3276 28.9512 14.3202L31.9293 14.2541L31.9509 15.1241L28.9728 15.1901C28.7846 15.1943 28.6402 15.219 28.5397 15.2643C28.4392 15.3095 28.3718 15.3735 28.3377 15.4562C28.3035 15.5389 28.2879 15.6411 28.2909 15.7629C28.2939 15.8847 28.3145 15.9855 28.3528 16.0652C28.391 16.145 28.4614 16.205 28.5641 16.2454C28.6667 16.2858 28.8121 16.3039 29.0003 16.2997L31.9784 16.2337ZM29.3076 19.9797C29.2676 20.0514 29.2201 20.112 29.1651 20.1616C29.04 20.2744 28.8953 20.3421 28.731 20.3649C28.5666 20.3877 28.4011 20.3791 28.2345 20.3391C27.9625 20.2738 27.7466 20.1685 27.5867 20.0233C27.4268 19.878 27.323 19.6966 27.2753 19.479C27.2276 19.2614 27.2375 19.0106 27.305 18.7267L27.6363 17.3321L31.8563 18.3453L31.5472 19.6462C31.4974 19.856 31.4298 20.038 31.3443 20.1925C31.2589 20.3469 31.1544 20.4709 31.0307 20.5643C30.907 20.6577 30.7658 20.7178 30.6069 20.7444C30.448 20.7711 30.27 20.7607 30.0729 20.7134C29.9003 20.672 29.7487 20.5988 29.6179 20.4938C29.4872 20.3888 29.3929 20.251 29.335 20.0804C29.324 20.0481 29.3149 20.0145 29.3076 19.9797ZM28.1371 18.3495L28.0074 18.8953C27.9806 19.0082 27.9829 19.1044 28.0142 19.1839C28.0455 19.2635 28.0987 19.3293 28.1738 19.3813C28.2488 19.4334 28.3395 19.4722 28.4458 19.4977C28.5658 19.5265 28.6735 19.5372 28.7688 19.5297C28.8642 19.5222 28.9432 19.4922 29.0059 19.4397C29.0686 19.3872 29.1128 19.3068 29.1385 19.1987L29.2753 18.6228L28.1371 18.3495ZM29.7831 19.2152C29.7559 19.3299 29.7533 19.4294 29.7753 19.5136C29.7973 19.5979 29.8431 19.6672 29.9126 19.7214C29.9821 19.7757 30.0731 19.8163 30.1855 19.8432C30.3146 19.8742 30.4223 19.8823 30.5087 19.8675C30.5951 19.8526 30.6652 19.8131 30.7192 19.7491C30.7731 19.685 30.814 19.5943 30.8419 19.4769L30.9493 19.0247L29.8889 18.7701L29.7831 19.2152ZM3.64407 26.024L2.74446 24.9047L6.12226 22.1927L6.96152 23.2369C7.09681 23.4052 7.19939 23.5706 7.26928 23.7331C7.33917 23.8955 7.37326 24.0544 7.37154 24.2095C7.36982 24.3647 7.33099 24.5133 7.255 24.6553C7.17902 24.7972 7.06215 24.9315 6.9044 25.0582C6.76627 25.1691 6.61579 25.2439 6.45297 25.2827C6.29015 25.3214 6.12368 25.3113 5.95355 25.2521C5.9213 25.2409 5.88921 25.2275 5.85727 25.2118C5.88946 25.2875 5.90835 25.3623 5.91394 25.4363C5.92666 25.6045 5.89184 25.7605 5.80947 25.9044C5.72709 26.0483 5.61922 26.1738 5.48582 26.2809C5.26816 26.4556 5.05311 26.5616 4.84067 26.5986C4.62823 26.6357 4.42148 26.6062 4.22043 26.5101C4.01938 26.414 3.82726 26.2519 3.64407 26.024ZM5.54357 24.366C5.61753 24.458 5.69454 24.5212 5.7746 24.5557C5.85465 24.5901 5.93733 24.5965 6.02264 24.5749C6.10794 24.5533 6.19558 24.5064 6.28555 24.4342C6.38891 24.3512 6.46109 24.271 6.5021 24.1936C6.54311 24.1162 6.55478 24.0365 6.53709 23.9545C6.5194 23.8725 6.47269 23.7844 6.39694 23.6902L6.10521 23.3272L5.2564 24.0087L5.54357 24.366ZM4.76531 24.403L3.85423 25.1345L4.20633 25.5726C4.27915 25.6632 4.35655 25.7206 4.43852 25.7447C4.5205 25.7689 4.60498 25.7673 4.69196 25.74C4.77894 25.7127 4.86497 25.6649 4.95006 25.5966C5.0461 25.5195 5.12028 25.4409 5.17261 25.3609C5.22493 25.2809 5.2495 25.2 5.24629 25.1182C5.2431 25.0364 5.2066 24.9521 5.13682 24.8652L4.76531 24.403ZM7.46991 29.5065L5.4782 28.0103L8.07734 24.5447L10.0639 26.037L9.62945 26.6163L8.34165 25.6489L7.72361 26.473L8.81476 27.2927L8.39478 27.8526L7.30363 27.033L6.60958 27.9584L7.90255 28.9297L7.46991 29.5065ZM12.2914 29.0061L12.0145 29.6722C11.8972 29.9545 11.7603 30.1874 11.6039 30.371C11.4474 30.5545 11.2766 30.6907 11.0913 30.7794C10.906 30.8681 10.7103 30.9113 10.504 30.9091C10.2978 30.9068 10.0876 30.861 9.87342 30.7715C9.65857 30.6817 9.47744 30.564 9.33002 30.4185C9.18261 30.2729 9.07435 30.1026 9.00527 29.9076C8.93618 29.7127 8.911 29.4946 8.92971 29.2535C8.94841 29.0124 9.01643 28.7507 9.13378 28.4683L9.41064 27.8023C9.53096 27.5128 9.67051 27.2735 9.8293 27.0842C9.98809 26.8949 10.1618 26.7544 10.3504 26.6625C10.5391 26.5707 10.7369 26.5245 10.944 26.5239C11.1511 26.5233 11.3621 26.5679 11.5769 26.6577C11.7911 26.7472 11.9709 26.8659 12.1163 27.0138C12.2617 27.1617 12.3685 27.3352 12.4365 27.5343C12.5045 27.7333 12.5274 27.9561 12.5052 28.2024C12.483 28.4487 12.4117 28.7166 12.2914 29.0061ZM11.2143 29.3378L11.4934 28.6662C11.5727 28.4754 11.6266 28.3068 11.6551 28.1603C11.6836 28.0137 11.6883 27.8861 11.6693 27.7774C11.6504 27.6687 11.6096 27.5775 11.5471 27.5039C11.4845 27.4302 11.4016 27.3718 11.2981 27.3286C11.1927 27.2845 11.0916 27.266 10.9949 27.2731C10.8981 27.2802 10.805 27.3154 10.7156 27.3788C10.6261 27.4422 10.5402 27.5359 10.4577 27.6599C10.3752 27.7838 10.2943 27.9412 10.215 28.132L9.93587 28.8035C9.85982 28.9865 9.80825 29.1491 9.78116 29.2912C9.75407 29.4334 9.75096 29.557 9.7718 29.662C9.79264 29.767 9.83474 29.8558 9.89809 29.9284C9.96143 30.001 10.0458 30.0593 10.1511 30.1034C10.2533 30.1461 10.3523 30.1643 10.448 30.1582C10.5437 30.1521 10.6355 30.1192 10.7233 30.0596C10.8112 30 10.896 29.9106 10.9777 29.7912C11.0594 29.6719 11.1382 29.5207 11.2143 29.3378ZM15.8417 29.7564L15.6223 31.529C15.5537 31.5857 15.4555 31.6495 15.3279 31.7205C15.2002 31.7915 15.0383 31.8473 14.8422 31.8878C14.6461 31.9284 14.4131 31.9317 14.1432 31.8976C13.9044 31.8674 13.6927 31.8026 13.5081 31.7032C13.3234 31.6038 13.1711 31.4688 13.0511 31.2982C12.931 31.1276 12.8486 30.9229 12.8037 30.684C12.7589 30.4451 12.7559 30.1684 12.7949 29.8537L12.8854 29.1224C12.9242 28.8097 12.9929 28.5422 13.0916 28.3201C13.1904 28.098 13.3161 27.9185 13.4687 27.7813C13.6213 27.6443 13.7953 27.5502 13.9909 27.4992C14.1865 27.4482 14.4021 27.4376 14.6378 27.4674C14.9611 27.5082 15.2198 27.5956 15.4138 27.7294C15.6079 27.8633 15.7455 28.0435 15.8266 28.27C15.9077 28.4966 15.94 28.7663 15.9236 29.0792L15.0883 28.9736C15.0952 28.7901 15.0823 28.6441 15.0496 28.5354C15.0169 28.4268 14.9619 28.3453 14.8845 28.2909C14.8072 28.2366 14.7025 28.2011 14.5705 28.1844C14.4557 28.1698 14.3531 28.1776 14.2629 28.2077C14.1726 28.2378 14.0934 28.2943 14.0254 28.3771C13.9574 28.4599 13.901 28.5708 13.8562 28.7096C13.8114 28.8484 13.7763 29.0205 13.7509 29.2258L13.6596 29.963C13.6343 30.1669 13.6281 30.3427 13.6409 30.4905C13.6538 30.6382 13.6858 30.7612 13.7369 30.8594C13.788 30.9576 13.8592 31.0327 13.9504 31.0848C14.0416 31.1369 14.1514 31.1711 14.28 31.1873C14.3848 31.2006 14.4702 31.2007 14.5364 31.1878C14.6025 31.1749 14.6564 31.1583 14.6982 31.138C14.7399 31.1176 14.774 31.1022 14.8005 31.0917L14.8987 30.2989L14.2812 30.2208L14.3619 29.5693L15.8417 29.7564ZM17.5415 30.3033L17.7692 31.8773L16.9054 32L16.2842 27.7056L17.663 27.5096C17.9493 27.469 18.201 27.4834 18.4179 27.5529C18.6348 27.6224 18.8112 27.7457 18.9469 27.9227C19.0827 28.0998 19.1711 28.3302 19.2121 28.614C19.2457 28.8459 19.2429 29.0484 19.2038 29.2215C19.1647 29.3946 19.0951 29.544 18.995 29.6695C18.9282 29.7534 18.8497 29.8288 18.7596 29.8956L19.7727 31.5503L19.7787 31.5917L18.8554 31.7229L17.9799 30.2411L17.5415 30.3033ZM17.4379 29.5865L17.9292 29.5167C18.0469 29.5 18.1409 29.46 18.2111 29.3967C18.2813 29.3334 18.3287 29.2512 18.3532 29.15C18.3777 29.0488 18.3807 28.9341 18.3622 28.8059C18.3426 28.6706 18.3084 28.557 18.2595 28.4649C18.2106 28.3728 18.1456 28.3061 18.0647 28.2646C17.9837 28.2231 17.8844 28.2107 17.7668 28.2274L17.2519 28.3006L17.4379 29.5865ZM21.3814 30.1139L21.5149 31.0295L20.6677 31.387L20.2215 26.863L20.9503 26.5555L23.9041 30.0214L23.0515 30.3811L22.4852 29.6482L21.3814 30.1139ZM21.0408 27.7789L21.2736 29.375L22.0281 29.0566L21.0408 27.7789ZM25.5638 28.7964L24.6735 29.4961L21.9878 26.0831L22.886 25.3772C23.0831 25.2223 23.2873 25.1136 23.4987 25.0512C23.7101 24.9888 23.9218 24.9739 24.1339 25.0063C24.3459 25.0388 24.5535 25.1201 24.7567 25.2504C24.9599 25.3807 25.1518 25.5607 25.3325 25.7904L25.7484 26.3189C25.9295 26.5491 26.0591 26.7776 26.1371 27.0047C26.2151 27.2317 26.2449 27.452 26.2265 27.6656C26.2081 27.8792 26.1433 28.0815 26.0321 28.2727C25.9208 28.4639 25.7647 28.6384 25.5638 28.7964ZM23.1221 26.1149L24.9118 28.3893L25.1167 28.2283C25.2816 28.0987 25.387 27.9682 25.4329 27.8369C25.4788 27.7056 25.4702 27.561 25.4072 27.4032C25.3443 27.2454 25.2309 27.0625 25.0672 26.8544L24.6476 26.3212C24.524 26.1641 24.4084 26.0383 24.3009 25.9437C24.1933 25.8491 24.0887 25.7867 23.9871 25.7564C23.8855 25.7261 23.7817 25.7266 23.6758 25.7578C23.5698 25.789 23.4562 25.8523 23.3349 25.9477L23.1221 26.1149ZM29.3304 24.8224L27.8153 26.7919L24.3751 24.1413L25.8863 22.177L26.4613 22.62L25.4816 23.8934L26.2997 24.5236L27.1297 23.4447L27.6856 23.873L26.8556 24.9519L27.7742 25.6597L28.7578 24.3812L29.3304 24.8224Z" fill="#171717"></path>
<path d="M16.0387 25.0419C21.0977 25.0419 25.1989 20.9432 25.1989 15.8871C25.1989 10.8311 21.0977 6.73242 16.0387 6.73242C10.9797 6.73242 6.87857 10.8311 6.87857 15.8871C6.87857 20.9432 10.9797 25.0419 16.0387 25.0419Z" fill="#171717"></path>
</svg>