<svg width="32" height="32" viewBox="0 0 32 32" fill="none" xmlns="http://www.w3.org/2000/svg">
<path fill-rule="evenodd" clip-rule="evenodd" d="M16.0001 4.66669C9.74085 4.66669 4.66675 9.74079 4.66675 16C4.66675 22.2592 9.74085 27.3334 16.0001 27.3334H20.0001C20.5524 27.3334 21.0001 27.7811 21.0001 28.3334C21.0001 28.8856 20.5524 29.3334 20.0001 29.3334H16.0001C8.63628 29.3334 2.66675 23.3638 2.66675 16C2.66675 8.63622 8.63628 2.66669 16.0001 2.66669C23.3639 2.66669 29.3334 8.63622 29.3334 16V17.3334C29.3334 18.8315 28.8015 20.0394 27.9293 20.87C27.0703 21.6881 25.941 22.0834 24.8334 22.0834C23.7259 22.0834 22.5965 21.6881 21.7375 20.87C20.8654 20.0394 20.3334 18.8315 20.3334 17.3334V11.6667C20.3334 11.1144 20.7811 10.6667 21.3334 10.6667C21.8857 10.6667 22.3334 11.1144 22.3334 11.6667V17.3334C22.3334 18.3352 22.6765 19.0023 23.1168 19.4217C23.5703 19.8536 24.191 20.0834 24.8334 20.0834C25.4759 20.0834 26.0965 19.8536 26.55 19.4217C26.9904 19.0023 27.3334 18.3352 27.3334 17.3334V16C27.3334 9.74079 22.2593 4.66669 16.0001 4.66669Z" fill="#CCCCCC"></path>
<path fill-rule="evenodd" clip-rule="evenodd" d="M16 12C13.7909 12 12 13.7909 12 16C12 18.2091 13.7909 20 16 20C18.2091 20 20 18.2091 20 16C20 13.7909 18.2091 12 16 12ZM10 16C10 12.6863 12.6863 10 16 10C19.3137 10 22 12.6863 22 16C22 19.3137 19.3137 22 16 22C12.6863 22 10 19.3137 10 16Z" fill="#CCCCCC"></path>
</svg>