<svg width="16" height="16" viewBox="0 0 16 16" fill="none" xmlns="http://www.w3.org/2000/svg">
<path d="M6.16657 1.88889C4.56546 1.88889 3.26379 3.19055 3.26379 4.79166C3.26379 6.36222 4.49213 7.63333 6.09324 7.68833C6.14213 7.68222 6.19102 7.68222 6.22768 7.68833C6.23991 7.68833 6.24602 7.68833 6.25824 7.68833C6.26435 7.68833 6.26435 7.68833 6.27046 7.68833C7.83491 7.63333 9.06324 6.36222 9.06935 4.79166C9.06935 3.19055 7.76768 1.88889 6.16657 1.88889Z" fill="#808080"></path>
<path d="M9.27105 9.3139C7.56605 8.17723 4.78549 8.17723 3.06827 9.3139C2.29216 9.83334 1.86438 10.5361 1.86438 11.2878C1.86438 12.0395 2.29216 12.7361 3.06216 13.2495C3.91771 13.8239 5.04216 14.1111 6.1666 14.1111C7.29105 14.1111 8.41549 13.8239 9.27105 13.2495C10.041 12.73 10.4688 12.0333 10.4688 11.2756C10.4627 10.5239 10.041 9.82723 9.27105 9.3139Z" fill="#808080"></path>
<path d="M12.8828 5.15219C12.9805 6.33774 12.1372 7.37663 10.97 7.51719C10.9639 7.51719 10.9639 7.51719 10.9578 7.51719H10.9394C10.9028 7.51719 10.8661 7.51719 10.8355 7.52941C10.2428 7.55997 9.69887 7.37052 9.28943 7.02219C9.91887 6.45997 10.2794 5.61663 10.2061 4.69997C10.1633 4.20497 9.99221 3.75274 9.73554 3.36774C9.96776 3.25163 10.2367 3.1783 10.5117 3.15386C11.7094 3.04997 12.7789 3.94219 12.8828 5.15219Z" fill="#808080"></path>
<path d="M14.105 10.805C14.0561 11.3978 13.6772 11.9111 13.0416 12.2595C12.4305 12.5956 11.6605 12.7545 10.8966 12.7361C11.3366 12.3389 11.5933 11.8439 11.6422 11.3183C11.7033 10.5606 11.3427 9.83335 10.6216 9.25279C10.2122 8.9289 9.73551 8.67224 9.21606 8.48279C10.5666 8.09168 12.2655 8.35446 13.3105 9.19779C13.8727 9.65002 14.16 10.2183 14.105 10.805Z" fill="#808080"></path>
</svg>