<svg width="16" height="16" viewBox="0 0 16 16" fill="none" xmlns="http://www.w3.org/2000/svg">
<path d="M7.04 5.23333L4.48667 9.66C4.3864 9.82819 4.33256 10.02 4.33063 10.2158C4.3287 10.4116 4.37875 10.6044 4.47568 10.7745C4.57261 10.9446 4.71294 11.086 4.88235 11.1842C5.05177 11.2823 5.2442 11.3338 5.44 11.3333H10.56C10.7538 11.3324 10.944 11.2807 11.1116 11.1832C11.2791 11.0857 11.4181 10.9459 11.5146 10.7778C11.6111 10.6097 11.6618 10.4192 11.6616 10.2254C11.6614 10.0316 11.6103 9.8412 11.5133 9.67333L8.96 5.23333C8.86309 5.06435 8.72328 4.92394 8.55472 4.82629C8.38616 4.72864 8.1948 4.67722 8 4.67722C7.8052 4.67722 7.61384 4.72864 7.44528 4.82629C7.27672 4.92394 7.13691 5.06435 7.04 5.23333Z" fill="#5AAD32"></path>
</svg>