<svg width="16" height="16" viewBox="0 0 16 16" fill="none" xmlns="http://www.w3.org/2000/svg">
<path fill-rule="evenodd" clip-rule="evenodd" d="M7.99967 2.33333C4.87006 2.33333 2.33301 4.87039 2.33301 8C2.33301 11.1296 4.87006 13.6667 7.99967 13.6667H9.99967C10.2758 13.6667 10.4997 13.8905 10.4997 14.1667C10.4997 14.4428 10.2758 14.6667 9.99967 14.6667H7.99967C4.31778 14.6667 1.33301 11.6819 1.33301 8C1.33301 4.3181 4.31778 1.33333 7.99967 1.33333C11.6816 1.33333 14.6663 4.3181 14.6663 8V8.66667C14.6663 9.41576 14.4004 10.0197 13.9643 10.435C13.5348 10.844 12.9701 11.0417 12.4163 11.0417C11.8626 11.0417 11.2979 10.844 10.8684 10.435C10.4323 10.0197 10.1663 9.41576 10.1663 8.66667V5.83333C10.1663 5.55719 10.3902 5.33333 10.6663 5.33333C10.9425 5.33333 11.1663 5.55719 11.1663 5.83333V8.66667C11.1663 9.16757 11.3379 9.50116 11.558 9.71085C11.7848 9.92679 12.0951 10.0417 12.4163 10.0417C12.7376 10.0417 13.0479 9.92679 13.2746 9.71085C13.4948 9.50116 13.6663 9.16757 13.6663 8.66667V8C13.6663 4.87039 11.1293 2.33333 7.99967 2.33333Z" fill="#1A1A1A"/>
<path fill-rule="evenodd" clip-rule="evenodd" d="M8 6C6.89543 6 6 6.89543 6 8C6 9.10457 6.89543 10 8 10C9.10457 10 10 9.10457 10 8C10 6.89543 9.10457 6 8 6ZM5 8C5 6.34315 6.34315 5 8 5C9.65685 5 11 6.34315 11 8C11 9.65685 9.65685 11 8 11C6.34315 11 5 9.65685 5 8Z" fill="#1A1A1A"/>
</svg>
