<svg width="770" height="770" viewBox="0 0 770 770" fill="none" xmlns="http://www.w3.org/2000/svg">
<path d="M387.262 604.461C508.357 604.461 606.524 506.308 606.524 385.231C606.524 264.153 508.357 166 387.262 166C266.167 166 168 264.153 168 385.231C168 506.308 266.167 604.461 387.262 604.461Z" fill="#171717"/>
<path fill-rule="evenodd" clip-rule="evenodd" d="M37.7787 560.804L11.0333 488.238L28.3443 481.749L37.9473 507.804L124.207 475.471L131.935 496.439L45.6752 528.771L55.0899 554.315L37.7787 560.804ZM3.58922 448.009L1.38653 427.708L107.472 380.745L110.048 404.492L88.0377 412.984L91.3734 443.728L114.692 447.291L117.252 470.89L3.58922 448.009ZM70.2736 419.838L31.9036 434.642L72.5536 440.853L70.2736 419.838ZM115.282 338.079L108.794 374.452L0 354.306L6.05203 320.373C7.02758 314.903 8.49429 310.12 10.4526 306.023C12.4106 301.926 14.8983 298.587 17.9152 296.008C20.9322 293.428 24.4436 291.684 28.4496 290.774C32.4556 289.864 36.9993 289.879 42.0802 290.82C46.5293 291.644 50.4905 293.316 53.9638 295.835C57.4369 298.355 60.029 301.77 61.7399 306.08C62.0643 306.897 62.3431 307.748 62.5762 308.634C63.4943 306.733 64.6187 305.105 65.9489 303.751C68.9754 300.671 72.5635 298.722 76.7134 297.904C80.8635 297.086 85.0867 297.075 89.3832 297.871C96.3938 299.169 102.035 301.576 106.307 305.09C110.579 308.605 113.473 313.13 114.989 318.666C116.505 324.201 116.603 330.673 115.282 338.079ZM65.2887 343.528L94.6331 348.962L97.1722 334.726C97.6974 331.781 97.5059 329.307 96.5981 327.304C95.6904 325.3 94.2453 323.68 92.2628 322.445C90.2804 321.21 87.9189 320.339 85.1783 319.831C82.0852 319.259 79.3302 319.136 76.9137 319.463C74.4969 319.791 72.5276 320.674 71.0056 322.114C69.4836 323.555 68.4708 325.685 67.9677 328.507L65.2887 343.528ZM51.5418 328.988C52.0753 325.998 52.003 323.433 51.3253 321.293C50.6474 319.154 49.3863 317.435 47.5418 316.137C45.6973 314.838 43.3262 313.921 40.4284 313.384C37.0994 312.768 34.3463 312.711 32.1689 313.216C29.9919 313.72 28.2619 314.834 26.9793 316.56C25.6966 318.285 24.7824 320.678 24.2362 323.741L22.1324 335.536L49.4711 340.599L51.5418 328.988ZM147.637 245.513L121.684 301.723L21.5001 254.167L30.9053 233.797L114.413 273.437L130.961 237.597L147.637 245.513ZM189.516 191.441L150.151 241.625L63.4828 171.961L102.746 121.908L117.232 133.552L91.7791 165.999L112.388 182.564L133.954 155.071L147.958 166.328L126.392 193.821L149.535 212.423L175.09 179.845L189.516 191.441ZM186.93 76.568L163.854 90.5377L154.334 74.4907L219.89 34.8056L229.41 50.8523L205.872 65.1013L253.307 145.061L234.365 156.528L186.93 76.568ZM336.538 114.378L275.613 131.997L244.962 24.4626L305.729 6.88906L310.852 24.8627L271.459 36.2549L278.748 61.8253L312.125 52.1726L317.078 69.5485L283.7 79.2011L291.885 107.916L331.436 96.4783L336.538 114.378ZM417.876 0L420.203 111.817L398.73 112.216L362.6 42.9315L364.056 112.859L342.926 113.251L340.598 1.43436L361.802 1.0407L398.245 71.1436L396.772 0.391602L417.876 0ZM530.089 26.4273L499.245 133.737L478.62 127.618L464.605 50.6288L445.315 117.738L425.02 111.717L455.864 4.4069L476.23 10.4489L490.303 88.314L509.82 20.4139L530.089 26.4273ZM576.907 51.5802L524.615 149.97L505.126 139.332L557.417 40.9416L576.907 51.5802ZM586.471 159.454C587.729 157.887 588.722 156.353 589.45 154.852C590.178 153.352 590.536 151.705 590.525 149.912C590.514 148.119 590.102 146.001 589.29 143.558C588.477 141.115 587.199 138.223 585.454 134.881C583.316 130.885 581.373 126.893 579.625 122.903C577.876 118.914 576.618 114.924 575.848 110.935C575.079 106.946 575.107 102.997 575.935 99.0899C576.762 95.1821 578.67 91.3664 581.659 87.6427C584.593 83.9872 587.906 81.2113 591.6 79.3154C595.294 77.4192 599.208 76.4081 603.342 76.2818C607.476 76.1555 611.655 76.8747 615.881 78.4396C620.107 80.0045 624.227 82.4375 628.242 85.7389C633.758 90.2756 637.611 95.3468 639.799 100.953C641.987 106.558 642.579 112.283 641.575 118.125C640.57 123.967 637.977 129.493 633.796 134.703L616.607 120.568C618.575 118.116 619.97 115.665 620.793 113.213C621.615 110.761 621.713 108.386 621.085 106.087C620.457 103.787 618.958 101.663 616.589 99.7147C614.39 97.9064 612.211 96.8587 610.053 96.5712C607.894 96.2836 605.859 96.6164 603.947 97.5695C602.035 98.5225 600.313 99.9531 598.782 101.861C597.628 103.298 596.953 104.862 596.756 106.552C596.56 108.241 596.699 110.039 597.175 111.944C597.651 113.85 598.396 115.911 599.41 118.127C600.424 120.343 601.62 122.667 602.999 125.097C605.628 129.847 607.698 134.366 609.211 138.651C610.723 142.937 611.568 147.053 611.743 150.998C611.919 154.944 611.371 158.773 610.1 162.487C608.83 166.2 606.733 169.877 603.812 173.517C600.906 177.137 597.645 179.906 594.028 181.824C590.411 183.741 586.577 184.796 582.525 184.988C578.474 185.181 574.319 184.486 570.061 182.903C565.803 181.32 561.633 178.851 557.553 175.496C553.57 172.22 550.261 168.566 547.626 164.532C544.991 160.497 543.267 156.206 542.454 151.658C541.64 147.11 541.908 142.41 543.256 137.559C544.605 132.707 547.247 127.829 551.183 122.925L568.434 137.11C566.343 139.714 564.81 142.15 563.833 144.416C562.856 146.682 562.459 148.806 562.642 150.786C562.824 152.766 563.479 154.653 564.608 156.445C565.736 158.238 567.316 159.969 569.345 161.638C571.624 163.512 573.786 164.572 575.83 164.82C577.875 165.067 579.79 164.695 581.575 163.704C583.361 162.712 584.992 161.296 586.471 159.454ZM668.635 259.529L678.747 279.435C671.199 282.971 664.204 284.68 657.762 284.563C651.32 284.445 645.51 282.544 640.33 278.86C635.151 275.176 630.762 269.792 627.163 262.708C624.356 257.182 622.777 251.794 622.428 246.545C622.078 241.297 622.921 236.257 624.956 231.429C626.992 226.6 630.24 222.06 634.7 217.811C639.16 213.562 644.797 209.673 651.611 206.144L668.334 197.484C675.146 193.956 681.602 191.635 687.703 190.523C693.804 189.41 699.409 189.437 704.518 190.604C709.628 191.77 714.187 194.048 718.197 197.436C722.207 200.824 725.59 205.231 728.346 210.658C732.028 217.904 733.768 224.663 733.566 230.935C733.365 237.206 731.36 243.006 727.552 248.335C723.744 253.663 718.245 258.52 711.056 262.904L700.91 242.931C705.544 240.373 708.96 237.937 711.158 235.625C713.356 233.313 714.494 230.867 714.572 228.288C714.649 225.709 713.791 222.654 711.998 219.124C710.647 216.465 709.027 214.409 707.138 212.957C705.249 211.506 702.978 210.7 700.325 210.541C697.673 210.382 694.567 210.862 691.009 211.982C687.451 213.102 683.31 214.884 678.586 217.331L661.729 226.061C657.089 228.463 653.264 230.753 650.252 232.93C647.241 235.107 644.988 237.283 643.494 239.458C642 241.634 641.255 243.913 641.259 246.297C641.262 248.681 642.006 251.333 643.489 254.253C645.199 257.619 647.072 260.08 649.108 261.636C651.144 263.193 653.702 263.806 656.782 263.475C659.862 263.145 663.813 261.829 668.635 259.529ZM658.918 359.918L645.902 299.191L753.937 275.774L758.654 297.781L668.602 317.3L676.901 356.02L658.918 359.918ZM768.737 412.879L768.186 435.354L692.281 433.239C683.777 433.003 676.9 431.232 671.652 427.928C666.404 424.624 662.615 420.172 660.286 414.571C657.957 408.971 656.879 402.62 657.053 395.521C657.23 388.323 658.619 381.976 661.221 376.478C663.822 370.98 667.824 366.755 673.226 363.804C678.628 360.853 685.581 359.495 694.086 359.732L769.99 361.847L769.44 384.273L693.535 382.158C688.738 382.025 685.031 382.476 682.415 383.513C679.798 384.55 678.002 386.111 677.027 388.196C676.052 390.282 675.526 392.894 675.449 396.033C675.372 399.173 675.77 401.795 676.642 403.897C677.514 405.999 679.231 407.636 681.794 408.807C684.356 409.978 688.036 410.63 692.833 410.764L768.737 412.879ZM694.302 509.104C693.154 510.873 691.836 512.344 690.347 513.517C686.96 516.186 683.157 517.661 678.937 517.944C674.717 518.226 670.524 517.698 666.36 516.362C659.564 514.181 654.266 511.076 650.464 507.046C646.662 503.016 644.354 498.159 643.538 492.477C642.723 486.794 643.432 480.364 645.666 473.187L656.632 437.943L762.089 471.786L751.857 504.666C750.208 509.966 748.157 514.523 745.704 518.337C743.25 522.15 740.366 525.144 737.051 527.317C733.735 529.491 730.033 530.774 725.945 531.166C721.856 531.557 717.349 530.963 712.424 529.382C708.111 527.998 704.389 525.836 701.256 522.894C698.123 519.953 695.975 516.236 694.814 511.744C694.594 510.893 694.423 510.013 694.302 509.104ZM667.512 465.027L663.219 478.821C662.331 481.674 662.213 484.151 662.865 486.254C663.516 488.357 664.748 490.147 666.562 491.625C668.376 493.102 670.611 494.267 673.267 495.12C676.265 496.082 678.984 496.555 681.423 496.538C683.862 496.521 685.926 495.896 687.616 494.662C689.306 493.428 690.576 491.444 691.427 488.71L695.956 474.155L667.512 465.027ZM707.787 490.325C706.886 493.223 706.638 495.776 707.044 497.984C707.45 500.192 708.488 502.058 710.156 503.58C711.825 505.103 714.064 506.315 716.873 507.217C720.1 508.252 722.825 508.659 725.048 508.436C727.272 508.214 729.127 507.329 730.615 505.781C732.102 504.234 733.308 501.977 734.231 499.01L737.788 487.58L711.288 479.075L707.787 490.325ZM108.379 651.24L82.6965 624.859L161.315 546.444L185.274 571.055C189.136 575.023 192.162 579 194.352 582.987C196.541 586.975 197.814 590.963 198.171 594.95C198.527 598.937 197.925 602.852 196.366 606.693C194.805 610.535 192.19 614.286 188.518 617.949C185.303 621.155 181.682 623.468 177.656 624.888C173.629 626.307 169.384 626.48 164.92 625.407C164.074 625.203 163.226 624.942 162.376 624.623C163.387 626.481 164.058 628.352 164.391 630.236C165.146 634.52 164.666 638.616 162.949 642.523C161.232 646.431 158.821 649.933 155.716 653.03C150.65 658.083 145.473 661.362 140.185 662.868C134.896 664.373 129.581 664.155 124.238 662.212C118.895 660.269 113.608 656.612 108.379 651.24ZM152.247 603.732C154.359 605.901 156.473 607.323 158.591 607.998C160.708 608.673 162.82 608.622 164.926 607.845C167.033 607.068 169.133 605.636 171.227 603.547C173.633 601.148 175.255 598.901 176.095 596.808C176.935 594.715 177.026 592.639 176.366 590.581C175.707 588.522 174.296 586.383 172.134 584.162L163.805 575.606L144.049 595.311L152.247 603.732ZM132.619 606.712L111.414 627.862L121.465 638.187C123.544 640.323 125.653 641.593 127.793 642C129.933 642.406 132.07 642.145 134.204 641.218C136.338 640.29 138.395 638.839 140.376 636.863C142.611 634.634 144.289 632.425 145.409 630.235C146.529 628.046 146.943 625.905 146.651 623.813C146.359 621.722 145.217 619.653 143.225 617.606L132.619 606.712ZM214.655 729.745L159.98 697.126L215.909 600.789L270.443 633.323L261.095 649.425L225.743 628.335L212.443 651.242L242.397 669.113L233.36 684.679L203.406 666.809L188.471 692.534L223.965 713.71L214.655 729.745ZM334.97 702.165L329.997 720.08C327.89 727.673 325.138 734.062 321.741 739.246C318.344 744.43 314.438 748.444 310.023 751.287C305.607 754.131 300.788 755.842 295.566 756.421C290.343 757 284.887 756.473 279.198 754.842C273.491 753.205 268.552 750.75 264.38 747.476C260.209 744.202 256.952 740.175 254.611 735.394C252.27 730.612 250.968 725.105 250.707 718.871C250.445 712.638 251.368 705.724 253.476 698.131L258.448 680.217C260.609 672.431 263.409 665.87 266.848 660.532C270.287 655.195 274.252 651.059 278.742 648.125C283.233 645.191 288.096 643.397 293.332 642.743C298.568 642.09 304.04 642.581 309.746 644.218C315.434 645.85 320.343 648.335 324.471 651.675C328.599 655.015 331.827 659.129 334.154 664.019C336.482 668.908 337.739 674.542 337.928 680.92C338.117 687.298 337.13 694.38 334.97 702.165ZM308.74 713.983L313.754 695.92C315.178 690.79 316.027 686.304 316.301 682.464C316.574 678.623 316.306 675.339 315.494 672.613C314.683 669.887 313.374 667.677 311.568 665.983C309.763 664.29 307.486 663.049 304.738 662.261C301.939 661.458 299.327 661.297 296.901 661.776C294.475 662.256 292.228 663.446 290.159 665.346C288.09 667.246 286.202 669.911 284.493 673.34C282.785 676.77 281.219 681.049 279.795 686.18L274.782 704.243C273.416 709.164 272.607 713.487 272.355 717.212C272.103 720.937 272.401 724.112 273.248 726.737C274.095 729.363 275.43 731.508 277.253 733.172C279.077 734.836 281.387 736.07 284.186 736.873C286.9 737.651 289.458 737.814 291.86 737.362C294.262 736.909 296.483 735.785 298.523 733.987C300.564 732.19 302.436 729.637 304.138 726.328C305.84 723.019 307.375 718.904 308.74 713.983ZM426.711 709.545L427.013 755.624C425.467 757.304 423.199 759.265 420.209 761.507C417.218 763.749 413.313 765.716 408.493 767.41C403.674 769.103 397.799 769.963 390.87 769.991C384.741 770.016 379.18 769.065 374.188 767.139C369.196 765.213 364.903 762.268 361.31 758.304C357.716 754.341 354.958 749.378 353.038 743.417C351.117 737.456 350.13 730.384 350.076 722.203L349.951 703.193C349.898 695.064 350.753 687.993 352.514 681.982C354.276 675.97 356.858 670.956 360.26 666.939C363.662 662.922 367.749 659.935 372.521 657.977C377.292 656.019 382.704 655.028 388.755 655.004C397.056 654.97 403.877 656.342 409.22 659.118C414.562 661.894 418.631 666.045 421.428 671.57C424.224 677.095 425.929 683.887 426.545 691.946L405.099 692.033C404.669 687.317 403.862 683.624 402.677 680.953C401.493 678.283 399.834 676.381 397.702 675.249C395.57 674.117 392.809 673.557 389.419 673.571C386.472 673.583 383.907 674.125 381.726 675.196C379.545 676.267 377.732 677.976 376.287 680.322C374.842 682.668 373.782 685.692 373.109 689.393C372.435 693.094 372.116 697.613 372.151 702.95L372.276 722.114C372.311 727.415 372.734 731.934 373.545 735.671C374.356 739.408 375.57 742.447 377.185 744.788C378.8 747.129 380.845 748.814 383.32 749.843C385.796 750.871 388.683 751.379 391.983 751.365C394.673 751.354 396.832 751.073 398.461 750.523C400.089 749.972 401.396 749.366 402.383 748.706C403.369 748.047 404.18 747.538 404.816 747.181L404.681 726.571L388.827 726.635L388.716 709.699L426.711 709.545ZM470.822 717.576L482.194 756.957L460.849 763.221L429.819 655.769L463.89 645.771C470.965 643.695 477.363 643.151 483.082 644.141C488.801 645.132 493.69 647.642 497.747 651.673C501.804 655.704 504.858 661.27 506.908 668.371C508.584 674.172 509.238 679.355 508.871 683.92C508.504 688.485 507.284 692.551 505.21 696.121C503.824 698.505 502.114 700.714 500.08 702.748L531.55 741.349L531.849 742.385L509.035 749.08L481.653 714.397L470.822 717.576ZM465.643 699.64L477.784 696.077C480.693 695.223 482.92 693.861 484.463 691.991C486.007 690.12 486.907 687.848 487.164 685.175C487.421 682.501 487.086 679.56 486.16 676.351C485.182 672.967 483.912 670.187 482.35 668.013C480.787 665.838 478.911 664.368 476.721 663.601C474.531 662.835 471.983 662.878 469.076 663.731L456.351 667.465L465.643 699.64ZM566.624 698.582L573.489 721.421L553.521 733.82L524.985 620.145L542.163 609.478L629.798 686.454L609.704 698.932L592.639 682.427L566.624 698.582ZM549.118 640.335L561.084 680.149L578.866 669.107L549.118 640.335ZM670.66 645.714L651.092 667.174L569.791 591.183L589.532 569.532C593.865 564.781 598.563 561.179 603.628 558.727C608.693 556.275 613.957 555.029 619.42 554.99C624.884 554.952 630.433 556.177 636.068 558.668C641.703 561.158 647.256 564.961 652.727 570.074L665.317 581.842C670.799 586.966 674.978 592.261 677.856 597.727C680.733 603.193 682.371 608.684 682.769 614.2C683.166 619.716 682.352 625.137 680.326 630.461C678.3 635.785 675.078 640.869 670.66 645.714ZM598.444 587.363L652.623 638.004L657.127 633.065C660.752 629.09 662.876 625.336 663.5 621.803C664.125 618.271 663.327 614.622 661.107 610.859C658.887 607.096 655.299 602.897 650.342 598.264L637.64 586.392C633.899 582.895 630.485 580.161 627.399 578.19C624.312 576.219 621.43 575.055 618.753 574.699C616.076 574.343 613.468 574.778 610.929 576.006C608.39 577.234 605.787 579.31 603.121 582.234L598.444 587.363Z" fill="#171717"/>
</svg>
