<svg width="350" height="229" viewBox="0 0 350 229" fill="none" xmlns="http://www.w3.org/2000/svg">
<path d="M36.2119 56.5218C47.5352 56.5218 56.7146 47.3437 56.7146 36.022C56.7146 24.7003 47.5352 15.5223 36.2119 15.5223C24.8886 15.5223 15.7092 24.7003 15.7092 36.022C15.7092 47.3437 24.8886 56.5218 36.2119 56.5218Z" fill="#F74A96"/>
<path fill-rule="evenodd" clip-rule="evenodd" d="M3.5326 52.4395L1.0317 45.654L2.65041 45.0473L3.54836 47.4836L11.6143 44.4602L12.3369 46.4208L4.27099 49.4442L5.15133 51.8328L3.5326 52.4395ZM0.33562 41.8923L0.129651 39.994L10.0494 35.6026L10.2904 37.8231L8.2322 38.6172L8.54412 41.492L10.7246 41.8252L10.964 44.0318L0.33562 41.8923ZM6.57112 39.2581L2.98323 40.6424L6.78432 41.2232L6.57112 39.2581ZM10.7797 31.613L10.1731 35.0142L0 33.1304L0.565912 29.9574C0.657133 29.4459 0.794282 28.9986 0.977398 28.6155C1.16049 28.2324 1.3931 27.9202 1.67521 27.679C1.95732 27.4378 2.28567 27.2747 2.66026 27.1896C3.03485 27.1045 3.45972 27.106 3.93482 27.1939C4.35085 27.271 4.72125 27.4273 5.04603 27.6629C5.37079 27.8985 5.61317 28.2178 5.77316 28.6208C5.80349 28.6972 5.82956 28.7768 5.85135 28.8597C5.93721 28.6819 6.04235 28.5297 6.16674 28.4031C6.44973 28.115 6.78524 27.9328 7.1733 27.8563C7.56136 27.7799 7.95626 27.7788 8.35802 27.8532C9.01356 27.9746 9.54107 28.1997 9.94051 28.5283C10.34 28.8569 10.6106 29.2801 10.7524 29.7977C10.8941 30.3153 10.9033 30.9204 10.7797 31.613ZM6.10499 32.1225L8.84893 32.6306L9.08635 31.2994C9.13546 31.0241 9.11755 30.7928 9.03267 30.6054C8.94779 30.418 8.81266 30.2666 8.62728 30.1511C8.44192 30.0356 8.22109 29.9542 7.96483 29.9067C7.6756 29.8532 7.41798 29.8417 7.19202 29.8723C6.96604 29.9029 6.78189 29.9855 6.63957 30.1202C6.49726 30.2548 6.40255 30.4541 6.3555 30.7179L6.10499 32.1225ZM4.81956 30.7629C4.86944 30.4833 4.86268 30.2434 4.79931 30.0434C4.73592 29.8434 4.618 29.6826 4.44553 29.5612C4.27305 29.4398 4.05134 29.354 3.78037 29.3038C3.46908 29.2462 3.21164 29.2409 3.00804 29.2881C2.80447 29.3352 2.6427 29.4394 2.52277 29.6008C2.40283 29.7621 2.31734 29.9859 2.26627 30.2722L2.06955 31.3752L4.62593 31.8486L4.81956 30.7629ZM13.8052 22.9574L11.3784 28.2134L2.01043 23.7666L2.88988 21.8619L10.6985 25.5685L12.2459 22.2172L13.8052 22.9574ZM17.7212 17.9012L14.0403 22.5938L5.93613 16.0797L9.60754 11.3993L10.9621 12.4881L8.58205 15.5222L10.5091 17.0712L12.5257 14.5003L13.8352 15.5529L11.8186 18.1237L13.9827 19.8632L16.3723 16.8169L17.7212 17.9012ZM17.4794 7.1597L15.3216 8.46597L14.4315 6.96545L20.5614 3.25459L21.4516 4.75508L19.2506 6.08748L23.6862 13.5644L21.915 14.6366L17.4794 7.1597ZM31.4689 10.6952L25.7719 12.3428L22.9058 2.28744L28.588 0.64418L29.0671 2.32486L25.3835 3.39012L26.065 5.78115L29.1861 4.87854L29.6493 6.50332L26.5281 7.40592L27.2935 10.091L30.9918 9.02147L31.4689 10.6952ZM39.0746 0L39.2922 10.4557L37.2843 10.493L33.9059 4.01443L34.042 10.5532L32.0662 10.5899L31.8485 0.134123L33.8313 0.0973139L37.239 6.65247L37.1013 0.0366179L39.0746 0ZM49.5674 2.47115L46.6832 12.5054L44.7547 11.9333L43.4441 4.73418L41.6404 11.0094L39.7426 10.4464L42.6268 0.412079L44.5312 0.977048L45.8471 8.25804L47.6721 1.90886L49.5674 2.47115ZM53.9452 4.82314L49.0556 14.0234L47.2331 13.0286L52.1228 3.82835L53.9452 4.82314ZM54.8395 14.9102C54.9572 14.7636 55.05 14.6202 55.1181 14.4799C55.1861 14.3396 55.2197 14.1856 55.2186 14.0179C55.2176 13.8502 55.1791 13.6522 55.1031 13.4238C55.0272 13.1953 54.9076 12.9249 54.7445 12.6124C54.5446 12.2388 54.3628 11.8654 54.1994 11.4924C54.0359 11.1194 53.9182 10.7463 53.8462 10.3733C53.7743 10.0003 53.777 9.63106 53.8543 9.26567C53.9317 8.90026 54.1101 8.54347 54.3896 8.19527C54.6639 7.85346 54.9738 7.59388 55.3192 7.4166C55.6646 7.2393 56.0305 7.14475 56.4171 7.13294C56.8037 7.12112 57.1945 7.18838 57.5896 7.33471C57.9848 7.48104 58.3701 7.70854 58.7455 8.01725C59.2613 8.44147 59.6215 8.91566 59.8262 9.43984C60.0308 9.96404 60.0861 10.4993 59.9922 11.0456C59.8983 11.5919 59.6558 12.1086 59.2648 12.5958L57.6575 11.274C57.8415 11.0448 57.972 10.8156 58.0489 10.5863C58.1258 10.357 58.1349 10.1349 58.0762 9.91991C58.0175 9.7049 57.8774 9.5063 57.6558 9.32409C57.4502 9.155 57.2465 9.05703 57.0446 9.03015C56.8428 9.00326 56.6525 9.03438 56.4737 9.1235C56.2949 9.21261 56.1339 9.34639 55.9907 9.5248C55.8828 9.6592 55.8197 9.80541 55.8013 9.9634C55.7829 10.1214 55.796 10.2895 55.8404 10.4676C55.8849 10.6458 55.9546 10.8385 56.0494 11.0458C56.1443 11.253 56.2561 11.4703 56.3851 11.6976C56.6309 12.1417 56.8245 12.5642 56.9659 12.965C57.1074 13.3657 57.1863 13.7506 57.2027 14.1195C57.2191 14.4884 57.1679 14.8465 57.0491 15.1938C56.9303 15.541 56.7343 15.8848 56.4611 16.2252C56.1894 16.5637 55.8844 16.8226 55.5462 17.0019C55.208 17.1812 54.8495 17.2798 54.4706 17.2978C54.0918 17.3159 53.7033 17.2509 53.3051 17.1029C52.9069 16.9549 52.517 16.724 52.1355 16.4102C51.7631 16.1039 51.4537 15.7622 51.2073 15.385C50.9609 15.0077 50.7997 14.6065 50.7236 14.1812C50.6475 13.756 50.6726 13.3165 50.7986 12.8628C50.9247 12.4091 51.1718 11.953 51.5399 11.4944L53.1529 12.8209C52.9575 13.0644 52.8141 13.2921 52.7227 13.504C52.6314 13.7159 52.5943 13.9145 52.6113 14.0997C52.6284 14.2848 52.6897 14.4612 52.7952 14.6289C52.9007 14.7965 53.0484 14.9583 53.2382 15.1144C53.4513 15.2896 53.6534 15.3888 53.8446 15.4119C54.0358 15.4351 54.2148 15.4003 54.3818 15.3076C54.5487 15.2149 54.7013 15.0824 54.8395 14.9102ZM62.5225 24.2679L63.4681 26.1293C62.7623 26.46 62.1082 26.6198 61.5058 26.6088C60.9035 26.5978 60.3601 26.42 59.8758 26.0756C59.3915 25.7311 58.9811 25.2277 58.6446 24.5652C58.3821 24.0485 58.2345 23.5447 58.2018 23.0539C58.1691 22.5631 58.2479 22.0919 58.4382 21.6404C58.6286 21.1888 58.9323 20.7644 59.3493 20.367C59.7664 19.9697 60.2935 19.606 60.9306 19.276L62.4943 18.4662C63.1313 18.1364 63.7351 17.9194 64.3055 17.8153C64.876 17.7113 65.4001 17.7138 65.8779 17.8229C66.3556 17.932 66.782 18.1449 67.1569 18.4618C67.5319 18.7786 67.8482 19.1907 68.106 19.6981C68.4502 20.3757 68.6129 21.0078 68.5941 21.5942C68.5753 22.1806 68.3878 22.723 68.0317 23.2212C67.6756 23.7195 67.1615 24.1736 66.4892 24.5836L65.5405 22.716C65.9738 22.4767 66.2932 22.2489 66.4987 22.0327C66.7043 21.8165 66.8107 21.5879 66.8179 21.3467C66.8252 21.1055 66.745 20.8199 66.5773 20.4898C66.451 20.2411 66.2995 20.0489 66.1229 19.9131C65.9462 19.7774 65.7339 19.7021 65.4858 19.6872C65.2378 19.6723 64.9474 19.7172 64.6147 19.8219C64.282 19.9266 63.8948 20.0934 63.4531 20.3221L61.8767 21.1384C61.4429 21.3631 61.0852 21.5772 60.8036 21.7808C60.522 21.9843 60.3113 22.1878 60.1716 22.3912C60.0319 22.5946 59.9623 22.8078 59.9626 23.0307C59.963 23.2536 60.0325 23.5016 60.1712 23.7746C60.3311 24.0893 60.5062 24.3194 60.6966 24.465C60.887 24.6105 61.1262 24.6679 61.4142 24.637C61.7022 24.6061 62.0717 24.4831 62.5225 24.2679ZM61.6139 33.6551L60.3968 27.9767L70.499 25.787L70.94 27.8448L62.5194 29.67L63.2955 33.2906L61.6139 33.6551ZM71.8829 38.6074L71.8313 40.709L64.7336 40.5112C63.9384 40.4891 63.2954 40.3235 62.8046 40.0146C62.3139 39.7056 61.9596 39.2893 61.7418 38.7656C61.524 38.2419 61.4233 37.6481 61.4396 36.9842C61.4561 36.3112 61.586 35.7177 61.8292 35.2036C62.0725 34.6895 62.4467 34.2944 62.9518 34.0185C63.4569 33.7425 64.1071 33.6156 64.9023 33.6377L72 33.8355L71.9485 35.9325L64.8509 35.7348C64.4023 35.7223 64.0557 35.7645 63.811 35.8614C63.5664 35.9584 63.3984 36.1043 63.3073 36.2994C63.2161 36.4944 63.1669 36.7386 63.1597 37.0322C63.1525 37.3258 63.1897 37.5709 63.2712 37.7675C63.3528 37.9641 63.5134 38.1171 63.753 38.2266C63.9926 38.3361 64.3367 38.3971 64.7852 38.4096L71.8829 38.6074ZM64.9226 47.6052C64.8153 47.7705 64.692 47.9081 64.5528 48.0178C64.2361 48.2674 63.8804 48.4053 63.4858 48.4317C63.0912 48.4581 62.6992 48.4088 62.3098 48.2838C61.6743 48.0799 61.1789 47.7895 60.8234 47.4127C60.4679 47.0359 60.252 46.5818 60.1758 46.0504C60.0996 45.519 60.1659 44.9177 60.3747 44.2467L61.4002 40.951L71.2612 44.1157L70.3045 47.1902C70.1502 47.6858 69.9584 48.1119 69.729 48.4685C69.4996 48.8251 69.2299 49.105 68.9199 49.3082C68.6099 49.5115 68.2638 49.6315 67.8814 49.6681C67.4991 49.7047 67.0777 49.6491 66.6171 49.5013C66.2139 49.3719 65.8658 49.1697 65.5728 48.8947C65.2798 48.6196 65.0791 48.2721 64.9705 47.852C64.9499 47.7724 64.9339 47.6901 64.9226 47.6052ZM62.4175 43.4836L62.0161 44.7734C61.9331 45.0402 61.9221 45.2719 61.983 45.4685C62.0439 45.6652 62.1591 45.8326 62.3287 45.9707C62.4983 46.1088 62.7073 46.2178 62.9557 46.2975C63.236 46.3875 63.4902 46.4317 63.7183 46.4301C63.9464 46.4286 64.1394 46.3701 64.2974 46.2547C64.4554 46.1393 64.5742 45.9538 64.6537 45.6981L65.0772 44.3371L62.4175 43.4836ZM66.1836 45.8492C66.0992 46.1202 66.0761 46.3589 66.1141 46.5654C66.152 46.7718 66.2491 46.9463 66.4051 47.0886C66.5611 47.231 66.7705 47.3444 67.0331 47.4287C67.3349 47.5255 67.5897 47.5635 67.7976 47.5427C68.0055 47.5219 68.179 47.4392 68.3181 47.2945C68.4572 47.1498 68.5699 46.9387 68.6563 46.6612L68.9889 45.5925L66.5109 44.7972L66.1836 45.8492ZM10.1343 60.8959L7.73276 58.4291L15.0842 51.0968L17.3245 53.3981C17.6857 53.769 17.9686 54.141 18.1734 54.5138C18.3781 54.8867 18.4972 55.2596 18.5305 55.6324C18.5638 56.0053 18.5075 56.3713 18.3617 56.7305C18.2158 57.0897 17.9712 57.4405 17.6279 57.783C17.3272 58.0828 16.9887 58.2991 16.6122 58.4318C16.2357 58.5646 15.8387 58.5807 15.4213 58.4804C15.3422 58.4613 15.2629 58.4369 15.1834 58.4071C15.2779 58.5808 15.3407 58.7558 15.3718 58.9319C15.4424 59.3325 15.3975 59.7155 15.237 60.0809C15.0764 60.4463 14.851 60.7737 14.5607 61.0633C14.0869 61.5358 13.6028 61.8424 13.1083 61.9832C12.6138 62.124 12.1168 62.1036 11.6172 61.9219C11.1176 61.7403 10.6233 61.3983 10.1343 60.8959ZM14.2363 56.4536C14.4337 56.6564 14.6315 56.7894 14.8294 56.8525C15.0274 56.9156 15.2249 56.9108 15.4219 56.8382C15.6188 56.7656 15.8152 56.6316 16.011 56.4363C16.236 56.212 16.3877 56.0019 16.4663 55.8062C16.5448 55.6104 16.5533 55.4163 16.4916 55.2238C16.4299 55.0314 16.298 54.8313 16.0958 54.6236L15.317 53.8236L13.4697 55.6662L14.2363 56.4536ZM12.4009 56.7322L10.418 58.71L11.3579 59.6754C11.5523 59.8751 11.7496 59.9939 11.9496 60.0319C12.1497 60.0699 12.3496 60.0455 12.5491 59.9588C12.7487 59.8721 12.941 59.7363 13.1262 59.5516C13.3352 59.3432 13.4921 59.1366 13.5968 58.9318C13.7016 58.7271 13.7403 58.527 13.713 58.3314C13.6857 58.1358 13.5789 57.9423 13.3926 57.7509L12.4009 56.7322ZM20.0719 68.2368L14.9593 65.1867L20.1892 56.1784L25.2885 59.2206L24.4144 60.7263L21.1087 58.7541L19.8651 60.8962L22.666 62.5672L21.821 64.0228L19.02 62.3518L17.6235 64.7573L20.9425 66.7374L20.0719 68.2368ZM31.3222 65.6579L30.8573 67.3331C30.6602 68.0431 30.4029 68.6404 30.0852 69.1252C29.7676 69.61 29.4024 69.9853 28.9895 70.2512C28.5766 70.5171 28.126 70.6771 27.6377 70.7312C27.1493 70.7853 26.6391 70.7361 26.1072 70.5835C25.5735 70.4304 25.1117 70.2009 24.7216 69.8948C24.3315 69.5887 24.027 69.2121 23.8081 68.765C23.5892 68.3179 23.4675 67.8029 23.443 67.22C23.4186 66.6371 23.5049 65.9907 23.7019 65.2807L24.1669 63.6055C24.3689 62.8775 24.6308 62.264 24.9523 61.7649C25.2739 61.2658 25.6447 60.879 26.0646 60.6047C26.4844 60.3303 26.9392 60.1626 27.4288 60.1015C27.9184 60.0403 28.43 60.0863 28.9636 60.2393C29.4956 60.3919 29.9545 60.6244 30.3406 60.9366C30.7266 61.2489 31.0284 61.6337 31.246 62.0909C31.4636 62.5481 31.5812 63.0749 31.5989 63.6713C31.6165 64.2677 31.5243 64.9299 31.3222 65.6579ZM28.8696 66.7629L29.3384 65.0739C29.4716 64.5942 29.5509 64.1748 29.5765 63.8156C29.6021 63.4564 29.577 63.1494 29.5011 62.8945C29.4253 62.6396 29.3029 62.4329 29.1341 62.2746C28.9652 62.1162 28.7523 62.0002 28.4953 61.9265C28.2336 61.8514 27.9893 61.8363 27.7625 61.8812C27.5357 61.926 27.3256 62.0373 27.1321 62.215C26.9387 62.3926 26.7621 62.6418 26.6023 62.9625C26.4426 63.2832 26.2961 63.6834 26.163 64.1631L25.6942 65.8521C25.5665 66.3123 25.4909 66.7165 25.4673 67.0648C25.4437 67.4132 25.4716 67.7101 25.5508 67.9556C25.63 68.2011 25.7548 68.4016 25.9253 68.5572C26.0958 68.7129 26.3119 68.8282 26.5736 68.9033C26.8274 68.9761 27.0666 68.9913 27.2912 68.949C27.5157 68.9067 27.7234 68.8015 27.9142 68.6335C28.105 68.4654 28.2801 68.2267 28.4393 67.9173C28.5984 67.6079 28.7419 67.2231 28.8696 66.7629ZM39.9008 66.348L39.929 70.6567C39.7845 70.8138 39.5724 70.9971 39.2928 71.2068C39.0131 71.4164 38.648 71.6004 38.1973 71.7587C37.7466 71.917 37.1973 71.9975 36.5493 72.0001C35.9762 72.0025 35.4563 71.9135 34.9895 71.7334C34.5227 71.5533 34.1213 71.2779 33.7852 70.9073C33.4492 70.5367 33.1914 70.0727 33.0117 69.5152C32.8321 68.9578 32.7398 68.2966 32.7348 67.5316L32.7232 65.754C32.7182 64.9938 32.7981 64.3326 32.9628 63.7705C33.1276 63.2084 33.369 62.7396 33.6871 62.364C34.0052 61.9884 34.3874 61.709 34.8336 61.5259C35.2797 61.3429 35.7858 61.2502 36.3516 61.2479C37.1278 61.2448 37.7656 61.373 38.2652 61.6326C38.7648 61.8922 39.1453 62.2804 39.4067 62.797C39.6682 63.3136 39.8277 63.9487 39.8853 64.7023L37.8799 64.7104C37.8397 64.2695 37.7642 63.9241 37.6534 63.6744C37.5427 63.4246 37.3876 63.2468 37.1882 63.141C36.9889 63.0351 36.7307 62.9828 36.4137 62.9841C36.1381 62.9852 35.8983 63.0359 35.6943 63.136C35.4904 63.2362 35.3208 63.396 35.1857 63.6154C35.0506 63.8347 34.9515 64.1175 34.8886 64.4636C34.8256 64.8097 34.7957 65.2322 34.799 65.7312L34.8107 67.5232C34.8139 68.0189 34.8535 68.4415 34.9294 68.7909C35.0052 69.1403 35.1187 69.4245 35.2697 69.6434C35.4207 69.8624 35.612 70.0199 35.8434 70.1161C36.0749 70.2123 36.3449 70.2597 36.6535 70.2584C36.905 70.2574 37.1069 70.2312 37.2591 70.1797C37.4114 70.1282 37.5337 70.0715 37.6259 70.0098C37.7181 69.9481 37.794 69.9006 37.8534 69.8672L37.8408 67.94L36.3583 67.946L36.348 66.3624L39.9008 66.348ZM44.0255 67.0989L45.0889 70.7813L43.0929 71.367L40.1914 61.3195L43.3773 60.3846C44.0389 60.1904 44.6371 60.1396 45.1719 60.2322C45.7067 60.3248 46.1638 60.5595 46.5431 60.9364C46.9225 61.3134 47.2081 61.8338 47.3998 62.4979C47.5565 63.0403 47.6177 63.525 47.5834 63.9518C47.549 64.3786 47.4349 64.7589 47.241 65.0926C47.1114 65.3156 46.9515 65.5222 46.7613 65.7124L49.704 69.3219L49.732 69.4187L47.5987 70.0447L45.0383 66.8017L44.0255 67.0989ZM43.5412 65.4218L44.6765 65.0886C44.9485 65.0088 45.1567 64.8814 45.3011 64.7065C45.4454 64.5315 45.5296 64.3191 45.5536 64.0691C45.5776 63.8191 45.5463 63.5441 45.4597 63.2441C45.3683 62.9276 45.2496 62.6677 45.1034 62.4644C44.9573 62.261 44.7819 62.1235 44.5771 62.0518C44.3723 61.9802 44.134 61.9842 43.8622 62.064L42.6724 62.4131L43.5412 65.4218ZM52.9838 65.3228L53.6256 67.4584L51.7585 68.6178L49.0901 57.9883L50.6964 56.9909L58.8909 64.1888L57.012 65.3555L55.4163 63.8122L52.9838 65.3228ZM51.3468 59.8763L52.4657 63.5992L54.1285 62.5667L51.3468 59.8763ZM62.7119 60.3793L60.8821 62.386L53.2798 55.2801L55.1258 53.2557C55.5309 52.8114 55.9703 52.4746 56.4439 52.2453C56.9175 52.016 57.4097 51.8995 57.9206 51.8959C58.4314 51.8923 58.9503 52.0069 59.4772 52.2398C60.0042 52.4726 60.5234 52.8282 61.035 53.3063L62.2122 54.4067C62.7248 54.8859 63.1157 55.381 63.3848 55.8921C63.6538 56.4032 63.807 56.9167 63.8441 57.4325C63.8813 57.9483 63.8052 58.4551 63.6157 58.9529C63.4263 59.4508 63.125 59.9262 62.7119 60.3793ZM55.9591 54.923L61.0253 59.6583L61.4464 59.1965C61.7854 58.8248 61.984 58.4737 62.0424 58.1434C62.1008 57.8131 62.0262 57.4719 61.8186 57.12C61.611 56.7681 61.2755 56.3756 60.812 55.9423L59.6243 54.8322C59.2745 54.5052 58.9552 54.2496 58.6666 54.0652C58.378 53.8809 58.1085 53.7721 57.8582 53.7388C57.6079 53.7055 57.364 53.7462 57.1266 53.861C56.8891 53.9758 56.6458 54.17 56.3965 54.4433L55.9591 54.923Z" fill="#171717"/>
<path d="M7.44 132V101.808H0.336V96.5282H20.064V101.808H13.008V132H7.44ZM18.9746 118.848C18.9746 116.832 19.3106 114.976 19.9826 113.28C20.6546 111.552 21.5986 110.08 22.8146 108.864C24.0306 107.616 25.4706 106.64 27.1346 105.936C28.8306 105.232 30.6546 104.88 32.6066 104.88C34.6546 104.88 36.3986 105.248 37.8386 105.984C39.3106 106.688 40.6386 107.84 41.8226 109.44V105.504H46.9106V132H41.8226V128.16C40.5106 129.76 39.1346 130.912 37.6946 131.616C36.2866 132.288 34.5906 132.624 32.6066 132.624C30.6226 132.624 28.7986 132.288 27.1346 131.616C25.4706 130.912 24.0306 129.952 22.8146 128.736C21.5986 127.488 20.6546 126.032 19.9826 124.368C19.3106 122.672 18.9746 120.832 18.9746 118.848ZM24.4466 118.896C24.4466 120.144 24.6546 121.312 25.0706 122.4C25.5186 123.456 26.1266 124.384 26.8946 125.184C27.6946 125.952 28.6226 126.56 29.6786 127.008C30.7666 127.424 31.9346 127.632 33.1826 127.632C34.4306 127.632 35.5666 127.424 36.5906 127.008C37.6466 126.56 38.5586 125.952 39.3266 125.184C40.0946 124.384 40.6866 123.44 41.1026 122.352C41.5186 121.264 41.7266 120.08 41.7266 118.8C41.7266 117.52 41.5026 116.336 41.0546 115.248C40.6386 114.128 40.0306 113.184 39.2306 112.416C38.4626 111.616 37.5346 110.992 36.4466 110.544C35.3906 110.096 34.2226 109.872 32.9426 109.872C31.7266 109.872 30.6066 110.112 29.5826 110.592C28.5586 111.04 27.6626 111.664 26.8946 112.464C26.1266 113.264 25.5186 114.224 25.0706 115.344C24.6546 116.432 24.4466 117.616 24.4466 118.896ZM49.3766 132V96.5282H54.8006V108.672C56.0486 107.264 57.3766 106.256 58.7846 105.648C60.1926 105.008 61.8566 104.688 63.7766 104.688C65.6966 104.688 67.4726 105.04 69.1046 105.744C70.7686 106.448 72.2086 107.424 73.4246 108.672C74.6406 109.92 75.5846 111.392 76.2566 113.088C76.9606 114.784 77.3126 116.624 77.3126 118.608C77.3126 120.624 76.9766 122.496 76.3046 124.224C75.6326 125.952 74.7046 127.44 73.5206 128.688C72.3686 129.904 70.9766 130.864 69.3446 131.568C67.7126 132.272 65.9366 132.624 64.0166 132.624C61.9686 132.624 60.1766 132.272 58.6406 131.568C57.1366 130.864 55.7446 129.744 54.4646 128.208V132H49.3766ZM63.2006 127.632C64.4486 127.632 65.6006 127.408 66.6566 126.96C67.7126 126.512 68.6086 125.904 69.3446 125.136C70.1126 124.336 70.7046 123.392 71.1206 122.304C71.5686 121.184 71.7926 119.968 71.7926 118.656C71.7926 117.344 71.5686 116.144 71.1206 115.056C70.7046 113.936 70.1126 112.976 69.3446 112.176C68.5766 111.376 67.6486 110.768 66.5606 110.352C65.4726 109.904 64.2886 109.68 63.0086 109.68C61.7926 109.68 60.6566 109.904 59.6006 110.352C58.5766 110.8 57.6806 111.44 56.9126 112.272C56.1446 113.072 55.5366 114.016 55.0886 115.104C54.6726 116.192 54.4646 117.392 54.4646 118.704C54.4646 119.984 54.6886 121.168 55.1366 122.256C55.5846 123.344 56.1926 124.288 56.9606 125.088C57.7606 125.888 58.6886 126.512 59.7446 126.96C60.8006 127.408 61.9526 127.632 63.2006 127.632ZM78.5798 132V96.5282H84.0038V132H78.5798ZM106.327 123.888H112.231C111.783 125.168 111.143 126.352 110.311 127.44C109.479 128.496 108.503 129.408 107.383 130.176C106.263 130.944 105.031 131.552 103.687 132C102.375 132.416 100.983 132.624 99.5108 132.624C97.5268 132.624 95.6548 132.272 93.8948 131.568C92.1668 130.864 90.6628 129.888 89.3828 128.64C88.1028 127.392 87.0948 125.936 86.3588 124.272C85.6548 122.576 85.3027 120.752 85.3027 118.8C85.3027 116.848 85.6548 115.024 86.3588 113.328C87.0628 111.632 88.0388 110.16 89.2868 108.912C90.5348 107.664 92.0068 106.688 93.7028 105.984C95.3988 105.248 97.2228 104.88 99.1748 104.88C101.127 104.88 102.935 105.248 104.599 105.984C106.295 106.688 107.751 107.664 108.967 108.912C110.215 110.16 111.191 111.648 111.895 113.376C112.599 115.104 112.951 116.944 112.951 118.896C112.951 119.344 112.935 119.728 112.903 120.048C112.871 120.336 112.807 120.672 112.711 121.056H91.0628C91.2228 122.016 91.5428 122.912 92.0228 123.744C92.5028 124.544 93.1108 125.232 93.8468 125.808C94.5828 126.384 95.4148 126.832 96.3428 127.152C97.3028 127.472 98.3108 127.632 99.3668 127.632C100.935 127.632 102.279 127.312 103.399 126.672C104.551 126.032 105.527 125.104 106.327 123.888ZM90.9668 116.208H107.527C107.047 114.192 106.087 112.64 104.647 111.552C103.207 110.432 101.399 109.872 99.2228 109.872C98.1668 109.872 97.1908 110.016 96.2948 110.304C95.3988 110.592 94.5988 111.008 93.8948 111.552C93.1908 112.096 92.5828 112.768 92.0708 113.568C91.5908 114.336 91.2228 115.216 90.9668 116.208ZM7.44 175V144.808H0.336V139.528H20.064V144.808H13.008V175H7.44ZM39.9986 166.888H45.9026C45.4546 168.168 44.8146 169.352 43.9826 170.44C43.1506 171.496 42.1746 172.408 41.0546 173.176C39.9346 173.944 38.7026 174.552 37.3586 175C36.0466 175.416 34.6546 175.624 33.1826 175.624C31.1986 175.624 29.3266 175.272 27.5666 174.568C25.8386 173.864 24.3346 172.888 23.0546 171.64C21.7746 170.392 20.7666 168.936 20.0306 167.272C19.3266 165.576 18.9746 163.752 18.9746 161.8C18.9746 159.848 19.3266 158.024 20.0306 156.328C20.7346 154.632 21.7106 153.16 22.9586 151.912C24.2066 150.664 25.6786 149.688 27.3746 148.984C29.0706 148.248 30.8946 147.88 32.8466 147.88C34.7986 147.88 36.6066 148.248 38.2706 148.984C39.9666 149.688 41.4226 150.664 42.6386 151.912C43.8866 153.16 44.8626 154.648 45.5666 156.376C46.2706 158.104 46.6226 159.944 46.6226 161.896C46.6226 162.344 46.6066 162.728 46.5746 163.048C46.5426 163.336 46.4786 163.672 46.3826 164.056H24.7346C24.8946 165.016 25.2146 165.912 25.6946 166.744C26.1746 167.544 26.7826 168.232 27.5186 168.808C28.2546 169.384 29.0866 169.832 30.0146 170.152C30.9746 170.472 31.9826 170.632 33.0386 170.632C34.6066 170.632 35.9506 170.312 37.0706 169.672C38.2226 169.032 39.1986 168.104 39.9986 166.888ZM24.6386 159.208H41.1986C40.7186 157.192 39.7586 155.64 38.3186 154.552C36.8786 153.432 35.0706 152.872 32.8946 152.872C31.8386 152.872 30.8626 153.016 29.9666 153.304C29.0706 153.592 28.2706 154.008 27.5666 154.552C26.8626 155.096 26.2546 155.768 25.7426 156.568C25.2626 157.336 24.8946 158.216 24.6386 159.208ZM47.7829 175V148.504H52.9189V151.336C54.0709 150.12 55.2549 149.24 56.4709 148.696C57.6869 148.152 59.0949 147.88 60.6949 147.88C64.2789 147.88 66.9349 148.952 68.6629 151.096C70.3909 153.208 71.2549 156.472 71.2549 160.888V175H65.8309V161.752C65.8309 158.648 65.3349 156.392 64.3429 154.984C63.3829 153.576 61.8469 152.872 59.7349 152.872C57.5269 152.872 55.8789 153.608 54.7909 155.08C53.7349 156.52 53.2069 158.776 53.2069 161.848V175H47.7829ZM73.6579 175V148.504H78.7939V151.336C79.9459 150.12 81.1299 149.24 82.3459 148.696C83.5619 148.152 84.9699 147.88 86.5699 147.88C90.1539 147.88 92.8099 148.952 94.5379 151.096C96.2659 153.208 97.1299 156.472 97.1299 160.888V175H91.7059V161.752C91.7059 158.648 91.2099 156.392 90.2179 154.984C89.2579 153.576 87.7219 152.872 85.6099 152.872C83.4019 152.872 81.7539 153.608 80.6659 155.08C79.6099 156.52 79.0819 158.776 79.0819 161.848V175H73.6579ZM99.5329 175V148.504H104.957V175H99.5329ZM99.5329 145.528V139.528H104.957V145.528H99.5329ZM105.44 166.792H110.912C111.136 168.104 111.568 169.08 112.208 169.72C112.88 170.328 113.776 170.632 114.896 170.632C115.888 170.632 116.704 170.328 117.344 169.72C117.984 169.112 118.304 168.328 118.304 167.368C118.304 166.824 118.176 166.344 117.92 165.928C117.664 165.512 117.312 165.16 116.864 164.872C116.416 164.584 115.904 164.328 115.328 164.104C114.784 163.88 114.208 163.656 113.6 163.432C112.288 162.984 111.168 162.504 110.24 161.992C109.344 161.48 108.608 160.92 108.032 160.312C107.456 159.704 107.04 159.032 106.784 158.296C106.528 157.528 106.4 156.68 106.4 155.752C106.4 154.632 106.608 153.592 107.024 152.632C107.44 151.672 108.016 150.84 108.752 150.136C109.52 149.432 110.416 148.888 111.44 148.504C112.464 148.088 113.568 147.88 114.752 147.88C115.936 147.88 117.024 148.072 118.016 148.456C119.008 148.84 119.872 149.368 120.608 150.04C121.344 150.712 121.92 151.528 122.336 152.488C122.752 153.416 122.992 154.44 123.056 155.56H117.68C117.552 154.696 117.232 154.04 116.72 153.592C116.24 153.112 115.584 152.872 114.752 152.872C113.92 152.872 113.232 153.128 112.688 153.64C112.144 154.152 111.872 154.776 111.872 155.512C111.872 156.024 112.016 156.472 112.304 156.856C112.624 157.24 113.024 157.576 113.504 157.864C113.984 158.152 114.512 158.408 115.088 158.632C115.664 158.856 116.24 159.064 116.816 159.256C119.28 160.056 121.056 161.064 122.144 162.28C123.232 163.464 123.776 164.984 123.776 166.84C123.776 168.12 123.536 169.288 123.056 170.344C122.608 171.4 121.984 172.328 121.184 173.128C120.384 173.896 119.424 174.504 118.304 174.952C117.216 175.4 116.032 175.624 114.752 175.624C112.032 175.624 109.84 174.856 108.176 173.32C106.544 171.752 105.632 169.576 105.44 166.792ZM162.665 165.304H169.097C168.329 166.936 167.385 168.392 166.265 169.672C165.177 170.952 163.929 172.04 162.521 172.936C161.145 173.8 159.625 174.472 157.961 174.952C156.329 175.4 154.601 175.624 152.777 175.624C150.185 175.624 147.753 175.16 145.481 174.232C143.209 173.272 141.225 171.96 139.529 170.296C137.865 168.632 136.553 166.68 135.593 164.44C134.633 162.2 134.153 159.8 134.153 157.24C134.153 154.68 134.617 152.28 135.545 150.04C136.505 147.8 137.801 145.864 139.433 144.232C141.097 142.568 143.033 141.272 145.241 140.344C147.481 139.384 149.881 138.904 152.441 138.904C154.297 138.904 156.073 139.144 157.769 139.624C159.465 140.072 161.017 140.76 162.425 141.688C163.865 142.584 165.145 143.688 166.265 145C167.385 146.28 168.313 147.736 169.049 149.368H162.857C161.577 147.608 160.105 146.312 158.441 145.48C156.809 144.648 154.857 144.232 152.585 144.232C150.761 144.232 149.065 144.568 147.497 145.24C145.929 145.88 144.569 146.792 143.417 147.976C142.265 149.128 141.369 150.504 140.729 152.104C140.089 153.672 139.769 155.368 139.769 157.192C139.769 159.016 140.105 160.728 140.777 162.328C141.449 163.896 142.377 165.272 143.561 166.456C144.745 167.64 146.105 168.584 147.641 169.288C149.209 169.96 150.889 170.296 152.681 170.296C154.665 170.296 156.425 169.912 157.961 169.144C159.529 168.376 161.097 167.096 162.665 165.304ZM170.689 175V139.528H176.113V175H170.689ZM196.852 175V171.928C195.764 173.272 194.612 174.232 193.396 174.808C192.212 175.352 190.74 175.624 188.98 175.624C185.492 175.624 182.868 174.552 181.108 172.408C179.38 170.232 178.516 167.016 178.516 162.76V148.504H183.94V161.896C183.94 164.936 184.42 167.16 185.38 168.568C186.34 169.944 187.844 170.632 189.892 170.632C192.196 170.632 193.876 169.896 194.932 168.424C196.02 166.952 196.564 164.6 196.564 161.368V148.504H201.988V175H196.852ZM204.439 175V139.528H209.863V151.672C211.111 150.264 212.439 149.256 213.847 148.648C215.255 148.008 216.919 147.688 218.839 147.688C220.759 147.688 222.535 148.04 224.167 148.744C225.831 149.448 227.271 150.424 228.487 151.672C229.703 152.92 230.647 154.392 231.319 156.088C232.023 157.784 232.375 159.624 232.375 161.608C232.375 163.624 232.039 165.496 231.367 167.224C230.695 168.952 229.767 170.44 228.583 171.688C227.431 172.904 226.039 173.864 224.407 174.568C222.775 175.272 220.999 175.624 219.079 175.624C217.031 175.624 215.239 175.272 213.703 174.568C212.199 173.864 210.807 172.744 209.527 171.208V175H204.439ZM218.263 170.632C219.511 170.632 220.663 170.408 221.719 169.96C222.775 169.512 223.671 168.904 224.407 168.136C225.175 167.336 225.767 166.392 226.183 165.304C226.631 164.184 226.855 162.968 226.855 161.656C226.855 160.344 226.631 159.144 226.183 158.056C225.767 156.936 225.175 155.976 224.407 155.176C223.639 154.376 222.711 153.768 221.623 153.352C220.535 152.904 219.351 152.68 218.071 152.68C216.855 152.68 215.719 152.904 214.663 153.352C213.639 153.8 212.743 154.44 211.975 155.272C211.207 156.072 210.599 157.016 210.151 158.104C209.735 159.192 209.527 160.392 209.527 161.704C209.527 162.984 209.751 164.168 210.199 165.256C210.647 166.344 211.255 167.288 212.023 168.088C212.823 168.888 213.751 169.512 214.807 169.96C215.863 170.408 217.015 170.632 218.263 170.632ZM3.504 218V182.528H11.136C15.616 182.528 18.912 183.296 21.024 184.832C23.168 186.336 24.24 188.688 24.24 191.888C24.24 193.616 23.936 195.008 23.328 196.064C22.752 197.12 21.744 198.032 20.304 198.8C22.448 199.696 23.984 200.832 24.912 202.208C25.872 203.552 26.352 205.344 26.352 207.584C26.352 211.008 25.2 213.6 22.896 215.36C20.592 217.12 17.2 218 12.72 218H3.504ZM9.072 212.72H12.864C15.616 212.72 17.616 212.32 18.864 211.52C20.112 210.688 20.736 209.344 20.736 207.488C20.736 205.824 20.192 204.512 19.104 203.552C18.048 202.592 16.608 202.112 14.784 202.112H9.072V212.72ZM9.072 196.736H14.112C15.616 196.736 16.752 196.368 17.52 195.632C18.288 194.864 18.672 193.76 18.672 192.32C18.672 190.752 18.16 189.632 17.136 188.96C16.144 188.256 14.528 187.904 12.288 187.904H9.072V196.736ZM47.5924 209.888H53.4964C53.0484 211.168 52.4084 212.352 51.5764 213.44C50.7444 214.496 49.7684 215.408 48.6484 216.176C47.5284 216.944 46.2964 217.552 44.9524 218C43.6404 218.416 42.2484 218.624 40.7764 218.624C38.7924 218.624 36.9204 218.272 35.1604 217.568C33.4324 216.864 31.9284 215.888 30.6484 214.64C29.3684 213.392 28.3604 211.936 27.6244 210.272C26.9204 208.576 26.5684 206.752 26.5684 204.8C26.5684 202.848 26.9204 201.024 27.6244 199.328C28.3284 197.632 29.3044 196.16 30.5524 194.912C31.8004 193.664 33.2724 192.688 34.9684 191.984C36.6644 191.248 38.4884 190.88 40.4404 190.88C42.3924 190.88 44.2004 191.248 45.8644 191.984C47.5604 192.688 49.0164 193.664 50.2324 194.912C51.4804 196.16 52.4564 197.648 53.1604 199.376C53.8644 201.104 54.2164 202.944 54.2164 204.896C54.2164 205.344 54.2004 205.728 54.1684 206.048C54.1364 206.336 54.0724 206.672 53.9764 207.056H32.3284C32.4884 208.016 32.8084 208.912 33.2884 209.744C33.7684 210.544 34.3764 211.232 35.1124 211.808C35.8484 212.384 36.6804 212.832 37.6084 213.152C38.5684 213.472 39.5764 213.632 40.6324 213.632C42.2004 213.632 43.5444 213.312 44.6644 212.672C45.8164 212.032 46.7924 211.104 47.5924 209.888ZM32.2324 202.208H48.7924C48.3124 200.192 47.3524 198.64 45.9124 197.552C44.4724 196.432 42.6644 195.872 40.4884 195.872C39.4324 195.872 38.4564 196.016 37.5604 196.304C36.6644 196.592 35.8644 197.008 35.1604 197.552C34.4564 198.096 33.8484 198.768 33.3364 199.568C32.8564 200.336 32.4884 201.216 32.2324 202.208ZM54.2246 204.8C54.2246 202.848 54.5766 201.024 55.2806 199.328C56.0166 197.632 57.0246 196.16 58.3046 194.912C59.5846 193.664 61.0726 192.688 62.7686 191.984C64.4966 191.248 66.3526 190.88 68.3366 190.88C70.2566 190.88 72.0646 191.248 73.7606 191.984C75.4566 192.72 76.9286 193.712 78.1766 194.96C79.4246 196.208 80.4006 197.68 81.1046 199.376C81.8406 201.072 82.2086 202.88 82.2086 204.8C82.2086 206.752 81.8406 208.576 81.1046 210.272C80.4006 211.936 79.4246 213.392 78.1766 214.64C76.9286 215.856 75.4566 216.832 73.7606 217.568C72.0646 218.272 70.2566 218.624 68.3366 218.624C66.3526 218.624 64.4966 218.272 62.7686 217.568C61.0726 216.864 59.5846 215.888 58.3046 214.64C57.0246 213.36 56.0166 211.888 55.2806 210.224C54.5766 208.528 54.2246 206.72 54.2246 204.8ZM68.2406 213.632C69.4246 213.632 70.5286 213.408 71.5526 212.96C72.6086 212.512 73.5046 211.888 74.2406 211.088C75.0086 210.288 75.6006 209.36 76.0166 208.304C76.4646 207.248 76.6886 206.096 76.6886 204.848C76.6886 203.568 76.4646 202.384 76.0166 201.296C75.6006 200.208 75.0086 199.264 74.2406 198.464C73.4726 197.664 72.5606 197.04 71.5046 196.592C70.4486 196.112 69.3126 195.872 68.0966 195.872C66.9446 195.872 65.8566 196.112 64.8326 196.592C63.8086 197.04 62.9126 197.68 62.1446 198.512C61.3766 199.312 60.7686 200.256 60.3206 201.344C59.9046 202.4 59.6966 203.552 59.6966 204.8C59.6966 206.048 59.9046 207.216 60.3206 208.304C60.7686 209.36 61.3766 210.288 62.1446 211.088C62.9446 211.888 63.8566 212.512 64.8806 212.96C65.9366 213.408 67.0566 213.632 68.2406 213.632ZM82.9256 219.728H88.9256C89.9816 221.168 91.0856 222.176 92.2376 222.752C93.3896 223.36 94.8456 223.664 96.6056 223.664C99.2616 223.664 101.278 222.928 102.654 221.456C104.062 220.016 104.766 217.888 104.766 215.072V213.872C103.55 215.536 102.222 216.752 100.782 217.52C99.3736 218.256 97.6456 218.624 95.5976 218.624C93.7096 218.624 91.9496 218.272 90.3176 217.568C88.6856 216.864 87.2776 215.904 86.0936 214.688C84.9416 213.44 84.0296 211.968 83.3576 210.272C82.6856 208.544 82.3496 206.672 82.3496 204.656C82.3496 202.672 82.6696 200.848 83.3096 199.184C83.9816 197.52 84.9096 196.08 86.0936 194.864C87.2776 193.616 88.6696 192.64 90.2696 191.936C91.8696 191.232 93.6296 190.88 95.5496 190.88C97.5656 190.88 99.3256 191.248 100.83 191.984C102.334 192.688 103.646 193.792 104.766 195.296V191.504H109.998V213.056C109.998 218.208 108.862 222.064 106.59 224.624C104.35 227.216 100.974 228.512 96.4616 228.512C93.1656 228.512 90.3496 227.744 88.0136 226.208C85.6776 224.704 83.9816 222.544 82.9256 219.728ZM96.1736 213.632C97.4216 213.632 98.5576 213.424 99.5816 213.008C100.606 212.56 101.486 211.936 102.222 211.136C102.99 210.336 103.566 209.392 103.95 208.304C104.366 207.216 104.574 206 104.574 204.656C104.574 203.376 104.366 202.192 103.95 201.104C103.534 200.016 102.942 199.088 102.174 198.32C101.406 197.552 100.494 196.96 99.4376 196.544C98.3816 196.096 97.2136 195.872 95.9336 195.872C94.7496 195.872 93.6616 196.096 92.6696 196.544C91.6776 196.96 90.8136 197.568 90.0776 198.368C89.3736 199.168 88.8136 200.112 88.3976 201.2C88.0136 202.288 87.8216 203.472 87.8216 204.752C87.8216 206.096 88.0136 207.312 88.3976 208.4C88.8136 209.456 89.3896 210.384 90.1256 211.184C90.8616 211.952 91.7416 212.56 92.7656 213.008C93.7896 213.424 94.9256 213.632 96.1736 213.632ZM112.47 218V191.504H117.558V194.48C117.974 193.84 118.39 193.296 118.806 192.848C119.222 192.368 119.686 192 120.198 191.744C120.71 191.456 121.286 191.248 121.926 191.12C122.566 190.992 123.318 190.912 124.182 190.88V196.16C122.07 196.256 120.486 196.88 119.43 198.032C118.406 199.152 117.894 200.816 117.894 203.024V218H112.47ZM123.693 204.848C123.693 202.832 124.029 200.976 124.701 199.28C125.373 197.552 126.317 196.08 127.533 194.864C128.749 193.616 130.189 192.64 131.853 191.936C133.549 191.232 135.373 190.88 137.325 190.88C139.373 190.88 141.117 191.248 142.557 191.984C144.029 192.688 145.357 193.84 146.541 195.44V191.504H151.629V218H146.541V214.16C145.229 215.76 143.853 216.912 142.413 217.616C141.005 218.288 139.309 218.624 137.325 218.624C135.341 218.624 133.517 218.288 131.853 217.616C130.189 216.912 128.749 215.952 127.533 214.736C126.317 213.488 125.373 212.032 124.701 210.368C124.029 208.672 123.693 206.832 123.693 204.848ZM129.165 204.896C129.165 206.144 129.373 207.312 129.789 208.4C130.237 209.456 130.845 210.384 131.613 211.184C132.413 211.952 133.341 212.56 134.397 213.008C135.485 213.424 136.653 213.632 137.901 213.632C139.149 213.632 140.285 213.424 141.309 213.008C142.365 212.56 143.277 211.952 144.045 211.184C144.813 210.384 145.405 209.44 145.821 208.352C146.237 207.264 146.445 206.08 146.445 204.8C146.445 203.52 146.221 202.336 145.773 201.248C145.357 200.128 144.749 199.184 143.949 198.416C143.181 197.616 142.253 196.992 141.165 196.544C140.109 196.096 138.941 195.872 137.661 195.872C136.445 195.872 135.325 196.112 134.301 196.592C133.277 197.04 132.381 197.664 131.613 198.464C130.845 199.264 130.237 200.224 129.789 201.344C129.373 202.432 129.165 203.616 129.165 204.896ZM152.943 204.752C152.943 202.768 153.279 200.928 153.951 199.232C154.655 197.504 155.615 196.016 156.831 194.768C158.047 193.488 159.471 192.496 161.103 191.792C162.767 191.056 164.543 190.688 166.431 190.688C168.255 190.688 169.935 191.024 171.471 191.696C173.039 192.336 174.351 193.264 175.407 194.48V182.528H180.879V218H175.791V214.112C174.447 215.712 173.055 216.864 171.615 217.568C170.207 218.272 168.527 218.624 166.575 218.624C164.655 218.624 162.863 218.272 161.199 217.568C159.535 216.832 158.095 215.856 156.879 214.64C155.663 213.392 154.703 211.936 153.999 210.272C153.295 208.576 152.943 206.736 152.943 204.752ZM158.415 204.608C158.415 205.856 158.639 207.04 159.087 208.16C159.567 209.248 160.191 210.208 160.959 211.04C161.759 211.84 162.687 212.48 163.743 212.96C164.831 213.408 165.999 213.632 167.247 213.632C168.431 213.632 169.535 213.408 170.559 212.96C171.583 212.48 172.479 211.84 173.247 211.04C174.047 210.208 174.671 209.248 175.119 208.16C175.567 207.072 175.791 205.904 175.791 204.656C175.791 203.376 175.567 202.192 175.119 201.104C174.671 199.984 174.047 199.024 173.247 198.224C172.447 197.424 171.503 196.8 170.415 196.352C169.359 195.904 168.191 195.68 166.911 195.68C165.727 195.68 164.607 195.904 163.551 196.352C162.527 196.8 161.631 197.44 160.863 198.272C160.127 199.072 159.535 200.016 159.087 201.104C158.639 202.192 158.415 203.36 158.415 204.608Z" fill="#292929"/>
</svg>
