<svg width="350" height="219" viewBox="0 0 350 219" fill="#E6E6E6" xmlns="http://www.w3.org/2000/svg">
<path fill-rule="evenodd" clip-rule="evenodd" d="M2.13987 48.6312L0.373071 42.1094L1.94737 41.6867L2.58173 44.0283L10.4263 41.9221L10.9368 43.8065L3.09223 45.9128L3.71417 48.2085L2.13987 48.6312ZM0.0628434 38.3023L0 36.5216L9.64431 33.1276L9.71781 35.2107L7.7249 35.8059L7.82007 38.5028L9.85031 38.965L9.92336 41.0349L0.0628434 38.3023ZM6.11646 36.2864L2.64231 37.3241L6.18151 38.1298L6.11646 36.2864ZM10.5007 29.5006L9.76464 32.6405L0.263025 30.3893L0.949718 27.46C1.06041 26.9878 1.21133 26.5777 1.40246 26.2296C1.59359 25.8815 1.82798 25.6019 2.10563 25.3909C2.38327 25.1799 2.70076 25.0439 3.05807 24.9828C3.41539 24.9218 3.81593 24.9439 4.2597 25.049C4.64825 25.1411 4.98996 25.3048 5.28483 25.5402C5.57971 25.7755 5.79284 26.0849 5.92426 26.4682C5.94918 26.5409 5.96991 26.6164 5.98647 26.6947C6.076 26.5332 6.18248 26.3965 6.30589 26.2845C6.5866 26.0299 6.91177 25.8764 7.28137 25.8241C7.65097 25.7718 8.02338 25.79 8.39863 25.8789C9.0109 26.024 9.49743 26.2594 9.85823 26.5851C10.219 26.9108 10.4538 27.3183 10.5625 27.8076C10.6712 28.2969 10.6506 28.8612 10.5007 29.5006ZM6.06822 29.7476L8.63103 30.3548L8.91912 29.1258C8.9787 28.8717 8.973 28.6552 8.90198 28.4765C8.83099 28.2977 8.71089 28.15 8.54165 28.0334C8.37244 27.9167 8.16814 27.8301 7.92881 27.7734C7.65866 27.7094 7.41631 27.6861 7.20176 27.7036C6.9872 27.7211 6.80957 27.7891 6.66887 27.9077C6.52819 28.0262 6.42929 28.2073 6.3722 28.4509L6.06822 29.7476ZM4.92173 28.418C4.98226 28.1598 4.98746 27.936 4.93735 27.7465C4.88723 27.557 4.78381 27.4014 4.62703 27.2799C4.47026 27.1583 4.26533 27.0676 4.01225 27.0076C3.72152 26.9387 3.47901 26.9213 3.28477 26.9553C3.09053 26.9893 2.93297 27.0785 2.81211 27.223C2.69124 27.3675 2.59982 27.5719 2.53786 27.8363L2.29914 28.8545L4.68678 29.4203L4.92173 28.418ZM13.814 21.7161L11.37 26.5467L2.65992 22.1224L3.54561 20.3718L10.8059 24.0597L12.3642 20.9796L13.814 21.7161ZM17.6338 16.8244L14.0982 21.1553L6.53222 14.9713L10.0586 10.6517L11.3232 11.6853L9.03718 14.4855L10.8363 15.956L12.7732 13.5834L13.9958 14.5826L12.0588 16.9552L14.0792 18.6065L16.3744 15.795L17.6338 16.8244ZM19.3178 5.73767L17.2229 6.855L16.4524 5.41524L22.4036 2.24109L23.1741 3.68084L21.0373 4.82052L24.8768 11.9947L23.1573 12.9119L19.3178 5.73767ZM32.1952 9.90596L26.7734 11.2844L24.3456 1.82541L29.7533 0.450573L30.1591 2.03157L26.6535 2.92283L27.2308 5.17206L30.2011 4.41688L30.5934 5.9453L27.6231 6.70048L28.2714 9.22631L31.791 8.33147L32.1952 9.90596ZM39.286 0L39.3929 9.75913L37.497 9.77492L34.3687 3.6973L34.4356 9.80041L32.57 9.81596L32.4631 0.0568303L34.3352 0.0412319L37.4904 6.19059L37.4228 0.0155267L39.286 0ZM48.9191 2.27301L46.322 11.6737L44.4944 11.1643L43.1674 4.46276L41.5432 10.3417L39.7448 9.84044L42.3419 0.439774L44.1466 0.942782L45.4797 7.72065L47.123 1.77239L48.9191 2.27301ZM52.9305 4.26691L48.5874 12.9952L46.8387 12.1215L51.1818 3.39322L52.9305 4.26691ZM54.0805 13.5946C54.1852 13.4529 54.2667 13.3152 54.3249 13.1815C54.3832 13.0477 54.4083 12.9027 54.4002 12.7464C54.3922 12.5901 54.3475 12.4071 54.2662 12.1974C54.1849 11.9877 54.0607 11.7406 53.8936 11.4563C53.6893 11.1165 53.5021 10.7761 53.3322 10.4353C53.1623 10.0945 53.0355 9.75177 52.9518 9.40704C52.8682 9.06233 52.8551 8.71795 52.9126 8.37394C52.9701 8.02993 53.1232 7.68959 53.372 7.35294C53.6163 7.02246 53.8975 6.76716 54.2157 6.58704C54.5338 6.40692 54.8749 6.30307 55.239 6.27547C55.603 6.24788 55.9744 6.29381 56.3532 6.4133C56.732 6.53279 57.1049 6.72841 57.4719 7.00014C57.9763 7.37353 58.3361 7.80024 58.5512 8.2802C58.7663 8.76018 58.8412 9.25687 58.7757 9.77026C58.7103 10.2836 58.5035 10.7759 58.1554 11.2469L56.5839 10.0834C56.7477 9.86179 56.861 9.64245 56.9238 9.42539C56.9867 9.20832 56.9859 9.00082 56.9214 8.80287C56.857 8.60492 56.7164 8.42575 56.4998 8.26536C56.2987 8.11653 56.1025 8.03392 55.911 8.01749C55.7196 8.00109 55.5414 8.03827 55.3766 8.12903C55.2118 8.2198 55.0656 8.35144 54.9381 8.52394C54.8421 8.65387 54.7888 8.79289 54.7781 8.941C54.7674 9.0891 54.7868 9.24527 54.8363 9.40949C54.8858 9.57371 54.9597 9.7504 55.0579 9.93957C55.156 10.1288 55.2708 10.3265 55.4019 10.5329C55.6525 10.9365 55.853 11.3221 56.0033 11.6897C56.1536 12.0573 56.2443 12.4127 56.2754 12.756C56.3065 13.0993 56.2734 13.4354 56.176 13.7643C56.0787 14.0931 55.9084 14.4221 55.6652 14.7512C55.4233 15.0785 55.1467 15.333 54.8354 15.5146C54.5241 15.6963 54.1901 15.8037 53.8337 15.8367C53.4772 15.8698 53.1081 15.8258 52.7264 15.7049C52.3446 15.584 51.9672 15.3854 51.5941 15.1092C51.23 14.8397 50.9238 14.5343 50.6755 14.1931C50.4272 13.8519 50.2582 13.4847 50.1684 13.0915C50.0787 12.6982 50.0837 12.2874 50.1834 11.859C50.2831 11.4305 50.4968 10.9947 50.8245 10.5513L52.4017 11.7189C52.2277 11.9543 52.1021 12.1728 52.0249 12.3743C51.9478 12.5758 51.9211 12.7626 51.9451 12.9345C51.969 13.1064 52.0343 13.2683 52.1409 13.42C52.2475 13.5718 52.3935 13.7163 52.5791 13.8537C52.7875 14.008 52.9823 14.0918 53.1635 14.1051C53.3448 14.1185 53.5122 14.0784 53.6657 13.9848C53.8192 13.8912 53.9574 13.7611 54.0805 13.5946ZM62.6652 23.4406L63.5824 25.1649C62.9206 25.483 62.3053 25.641 61.7366 25.6388C61.1679 25.6367 60.6526 25.4782 60.1909 25.1633C59.7292 24.8484 59.3351 24.3841 59.0087 23.7705C58.7541 23.2918 58.608 22.8237 58.5706 22.3661C58.5332 21.9085 58.6014 21.4677 58.7751 21.0438C58.9488 20.6198 59.2298 20.2196 59.6182 19.8432C60.0066 19.4668 60.4993 19.1203 61.0963 18.8038L62.5616 18.027C63.1585 17.7105 63.7255 17.4999 64.2626 17.3951C64.7997 17.2903 65.2944 17.2856 65.7469 17.3809C66.1993 17.4762 66.6046 17.6692 66.9627 17.9598C67.3208 18.2504 67.6249 18.6307 67.8749 19.1007C68.2089 19.7284 68.3708 20.316 68.3608 20.8635C68.3508 21.411 68.1811 21.9197 67.8516 22.3894C67.5221 22.8592 67.0428 23.2899 66.4137 23.6816L65.4934 21.9516C65.8992 21.7225 66.1976 21.5056 66.3888 21.3011C66.5799 21.0966 66.6773 20.8817 66.681 20.6565C66.6846 20.4314 66.6051 20.1659 66.4425 19.8602C66.3199 19.6298 66.1744 19.4525 66.0059 19.3282C65.8373 19.2039 65.6359 19.1365 65.4015 19.126C65.1672 19.1154 64.8937 19.1613 64.581 19.2634C64.2684 19.3656 63.9051 19.5264 63.4912 19.7459L62.0141 20.529C61.6076 20.7445 61.2728 20.9491 61.0097 21.1429C60.7465 21.3366 60.5504 21.5294 60.4212 21.7211C60.2921 21.9127 60.2291 22.1126 60.2324 22.3206C60.2357 22.5286 60.3047 22.7591 60.4392 23.0121C60.5943 23.3036 60.7627 23.516 60.9443 23.6492C61.1259 23.7825 61.3525 23.8327 61.6239 23.8C61.8954 23.7673 62.2425 23.6475 62.6652 23.4406ZM62.0414 32.1812L60.7158 26.9228L70.1782 24.5604L70.6586 26.4659L62.7712 28.4352L63.6165 31.7879L62.0414 32.1812ZM71.9513 36.5258L72 38.4874L65.2994 38.636C64.5487 38.6526 63.9348 38.5284 63.4578 38.2635C62.9809 37.9985 62.6276 37.627 62.398 37.149C62.1684 36.671 62.046 36.1222 62.0306 35.5026C62.015 34.8744 62.11 34.315 62.3156 33.8243C62.5211 33.3336 62.8556 32.9478 63.319 32.6668C63.7825 32.3859 64.3895 32.2371 65.1403 32.2204L71.8409 32.0718L71.8894 34.0291L65.1888 34.1777C64.7654 34.1871 64.4406 34.2427 64.2144 34.3446C63.9882 34.4465 63.8366 34.5904 63.7597 34.7765C63.6828 34.9625 63.6477 35.1925 63.6545 35.4665C63.6613 35.7406 63.7077 35.9673 63.7937 36.1468C63.8797 36.3262 64.0382 36.4614 64.2691 36.5522C64.5001 36.6431 64.8273 36.6838 65.2507 36.6744L71.9513 36.5258ZM65.9422 44.9543C65.8521 45.1156 65.7452 45.252 65.6215 45.3635C65.34 45.6173 65.0144 45.7698 64.6446 45.821C64.2749 45.8723 63.9025 45.8529 63.5276 45.7629C62.9157 45.616 62.4299 45.3791 62.0701 45.0523C61.7102 44.7255 61.4767 44.3174 61.3694 43.8278C61.2622 43.3382 61.2845 42.7739 61.4363 42.135L62.1817 38.9973L71.6766 41.2769L70.9812 44.2041C70.8691 44.6759 70.7169 45.0856 70.5248 45.4331C70.3326 45.7806 70.0974 46.0595 69.8191 46.2697C69.5408 46.4799 69.2229 46.615 68.8655 46.6749C68.5079 46.7349 68.1075 46.7116 67.664 46.6052C67.2757 46.5119 66.9345 46.3472 66.6403 46.1109C66.3462 45.8747 66.1339 45.5647 66.0037 45.181C65.979 45.1082 65.9585 45.0327 65.9422 44.9543ZM63.3085 41.2864L63.0167 42.5145C62.9564 42.7684 62.9615 42.9849 63.0319 43.1639C63.1024 43.3428 63.2221 43.4909 63.3909 43.608C63.5598 43.7252 63.7638 43.8125 64.003 43.8699C64.273 43.9347 64.5153 43.9587 64.7299 43.9418C64.9445 43.9249 65.1223 43.8574 65.2634 43.7393C65.4044 43.6212 65.5038 43.4404 65.5617 43.197L65.8695 41.9013L63.3085 41.2864ZM67.012 43.2342C66.9507 43.4922 66.9449 43.716 66.9944 43.9057C67.0439 44.0954 67.1469 44.2512 67.3033 44.3732C67.4597 44.4952 67.6644 44.5866 67.9173 44.6473C68.2078 44.717 68.4503 44.7352 68.6446 44.7018C68.839 44.6684 68.9968 44.5796 69.1181 44.4355C69.2394 44.2914 69.3314 44.0872 69.3942 43.823L69.6359 42.8055L67.25 42.2327L67.012 43.2342ZM8.19916 58.554L6.17504 56.0356L13.7751 49.9336L15.6634 52.283C15.9678 52.6617 16.1986 53.0339 16.3559 53.3994C16.5131 53.765 16.5898 54.1223 16.586 54.4715C16.5821 54.8206 16.4947 55.1549 16.3238 55.4743C16.1528 55.7937 15.8898 56.0959 15.5349 56.3809C15.2241 56.6304 14.8855 56.7988 14.5192 56.886C14.1528 56.9732 13.7783 56.9503 13.3955 56.8173C13.3229 56.7921 13.2507 56.7619 13.1789 56.7266C13.2513 56.8969 13.2938 57.0652 13.3064 57.2316C13.335 57.6101 13.2566 57.9612 13.0713 58.2849C12.886 58.6087 12.6432 58.891 12.3431 59.132C11.8534 59.5252 11.3695 59.7635 10.8915 59.8469C10.4135 59.9304 9.94834 59.864 9.49597 59.6477C9.0436 59.4314 8.61133 59.0669 8.19916 58.554ZM12.473 54.8235C12.6394 55.0305 12.8127 55.1728 12.9928 55.2503C13.173 55.3277 13.359 55.3421 13.5509 55.2936C13.7429 55.245 13.9401 55.1394 14.1425 54.9769C14.375 54.7902 14.5375 54.6097 14.6297 54.4356C14.722 54.2615 14.7482 54.0821 14.7085 53.8977C14.6686 53.7132 14.5636 53.5149 14.3931 53.3029L13.7367 52.4862L11.8269 54.0196L12.473 54.8235ZM10.7219 54.9068L8.67201 56.5526L9.46423 57.5383C9.62809 57.7422 9.80223 57.8713 9.98667 57.9256C10.1711 57.98 10.3612 57.9764 10.5569 57.915C10.7526 57.8536 10.9462 57.746 11.1376 57.5923C11.3537 57.4188 11.5206 57.2421 11.6384 57.0621C11.7561 56.8821 11.8114 56.7001 11.8042 56.516C11.797 56.3319 11.7148 56.1421 11.5578 55.9468L10.7219 54.9068ZM16.8073 66.3897L12.3259 63.0233L18.174 55.2256L22.6437 58.5833L21.6663 59.8866L18.7687 57.71L17.3781 59.5642L19.8332 61.4085L18.8883 62.6684L16.4332 60.8241L14.8716 62.9063L17.7807 65.0918L16.8073 66.3897ZM27.6557 65.2637L27.0327 66.7624C26.7687 67.3976 26.4607 67.9217 26.1087 68.3346C25.7568 68.7477 25.3723 69.054 24.9555 69.2536C24.5386 69.4531 24.0981 69.5504 23.6341 69.5454C23.17 69.5403 22.6971 69.4371 22.2152 69.2358C21.7318 69.0338 21.3243 68.769 20.9926 68.4415C20.6609 68.114 20.4173 67.7309 20.2619 67.2922C20.1064 66.8535 20.0497 66.3628 20.0918 65.8203C20.1339 65.2778 20.287 64.689 20.551 64.0538L21.1739 62.5551C21.4447 61.9038 21.7586 61.3653 22.1159 60.9394C22.4732 60.5136 22.864 60.1973 23.2885 59.9907C23.7129 59.7841 24.1581 59.6801 24.6241 59.6788C25.0901 59.6775 25.5648 59.7779 26.0481 59.9798C26.53 60.1812 26.9345 60.4483 27.2617 60.781C27.5889 61.1138 27.829 61.5041 27.9821 61.9521C28.1352 62.4 28.1867 62.9011 28.1367 63.4554C28.0867 64.0096 27.9264 64.6124 27.6557 65.2637ZM25.2322 66.01L25.8603 64.4989C26.0387 64.0697 26.1599 63.6903 26.224 63.3606C26.2881 63.0309 26.2987 62.7438 26.256 62.4991C26.2133 62.2545 26.1216 62.0494 25.9809 61.8837C25.8402 61.718 25.6535 61.5865 25.4207 61.4892C25.1836 61.3902 24.9562 61.3486 24.7385 61.3645C24.5208 61.3804 24.3113 61.4597 24.11 61.6024C23.9088 61.745 23.7154 61.9558 23.5298 62.2347C23.3442 62.5137 23.1622 62.8677 22.9838 63.2969L22.3557 64.8079C22.1846 65.2196 22.0686 65.5854 22.0076 65.9053C21.9467 66.2251 21.9397 66.5032 21.9865 66.7395C22.0334 66.9758 22.1282 67.1756 22.2707 67.3389C22.4132 67.5023 22.603 67.6335 22.84 67.7326C23.07 67.8286 23.2926 67.8698 23.5079 67.856C23.7233 67.8422 23.9298 67.7682 24.1275 67.6341C24.3252 67.5001 24.516 67.2988 24.6998 67.0303C24.8836 66.7617 25.0611 66.4216 25.2322 66.01ZM35.6439 66.952L35.1501 70.9402C34.9957 71.0678 34.7749 71.2114 34.4877 71.3711C34.2005 71.5308 33.8362 71.6563 33.3949 71.7476C32.9536 71.839 32.4294 71.8463 31.8221 71.7695C31.285 71.7016 30.8087 71.5558 30.3932 71.3322C29.9777 71.1086 29.6349 70.8048 29.3649 70.421C29.0948 70.0372 28.9094 69.5765 28.8084 69.0391C28.7075 68.5016 28.7008 67.8788 28.7885 67.1707L28.9922 65.5254C29.0794 64.8217 29.234 64.22 29.4562 63.7203C29.6784 63.2206 29.9611 62.8165 30.3045 62.508C30.6478 62.1996 31.0395 61.9879 31.4796 61.8732C31.9196 61.7584 32.4048 61.7345 32.9351 61.8016C33.6625 61.8935 34.2445 62.0901 34.6811 62.3912C35.1178 62.6924 35.4273 63.0978 35.6098 63.6076C35.7924 64.1174 35.8651 64.7242 35.828 65.4281L33.9486 65.1905C33.9642 64.7778 33.9351 64.4492 33.8615 64.2047C33.7879 63.9602 33.6642 63.7768 33.4902 63.6546C33.3163 63.5323 33.0807 63.4524 32.7836 63.4148C32.5253 63.3822 32.2946 63.3997 32.0914 63.4674C31.8883 63.5351 31.7102 63.6621 31.5571 63.8485C31.4041 64.0349 31.2772 64.2843 31.1764 64.5966C31.0756 64.909 30.9966 65.2961 30.9394 65.758L30.7341 67.4167C30.6773 67.8755 30.6633 68.2711 30.6921 68.6036C30.721 68.936 30.793 69.2127 30.908 69.4336C31.023 69.6545 31.1832 69.8236 31.3884 69.9408C31.5936 70.058 31.8408 70.1349 32.13 70.1715C32.3657 70.2013 32.558 70.2017 32.7068 70.1727C32.8557 70.1436 32.977 70.1062 33.0709 70.0604C33.1647 70.0146 33.2415 69.9799 33.3012 69.9563L33.5221 68.1725L32.1327 67.9968L32.3142 66.531L35.6439 66.952ZM39.4685 68.1825L39.9807 71.7238L38.0371 72L36.6395 62.3375L39.7417 61.8967C40.386 61.8051 40.9522 61.8376 41.4403 61.994C41.9284 62.1504 42.3251 62.4278 42.6306 62.8261C42.936 63.2244 43.135 63.7429 43.2273 64.3815C43.3028 64.9032 43.2965 65.3588 43.2085 65.7484C43.1205 66.138 42.964 66.474 42.7389 66.7564C42.5884 66.9451 42.4118 67.1147 42.209 67.265L44.4886 70.9883L44.5021 71.0814L42.4248 71.3765L40.4547 68.0424L39.4685 68.1825ZM39.2352 66.5697L40.3407 66.4126C40.6056 66.375 40.8171 66.2849 40.975 66.1426C41.1329 66.0002 41.2395 65.8152 41.2947 65.5875C41.3499 65.3599 41.3567 65.1018 41.3149 64.8133C41.2709 64.5089 41.1939 64.2531 41.0838 64.046C40.9738 63.8389 40.8277 63.6887 40.6455 63.5953C40.4634 63.502 40.24 63.4741 39.9754 63.5117L38.8167 63.6764L39.2352 66.5697ZM48.1081 67.7564L48.4086 69.8164L46.5023 70.6208L45.4983 60.4418L47.1383 59.7498L53.7842 67.5481L51.8659 68.3575L50.5916 66.7084L48.1081 67.7564ZM47.3417 62.5025L47.8656 66.0937L49.5631 65.3774L47.3417 62.5025ZM57.5184 64.7919L55.5154 66.3663L49.4726 58.6871L51.4935 57.0987C51.9369 56.7502 52.3965 56.5057 52.8721 56.3653C53.3478 56.2249 53.8241 56.1912 54.3012 56.2642C54.7783 56.3372 55.2454 56.5203 55.7026 56.8135C56.1597 57.1066 56.5916 57.5116 56.9982 58.0284L57.934 59.2176C58.3414 59.7354 58.6329 60.2497 58.8085 60.7606C58.9841 61.2714 59.0511 61.7671 59.0096 62.2476C58.9682 62.7281 58.8224 63.1834 58.5721 63.6136C58.3219 64.0437 57.9707 64.4365 57.5184 64.7919ZM52.0247 58.7586L56.0516 63.876L56.5126 63.5137C56.8836 63.2221 57.1208 62.9285 57.224 62.633C57.3272 62.3376 57.308 62.0123 57.1663 61.6572C57.0246 61.3022 56.7695 60.8906 56.4011 60.4224L55.4571 59.2226C55.179 58.8693 54.9189 58.5862 54.6769 58.3733C54.4349 58.1605 54.1996 58.02 53.971 57.9519C53.7424 57.8838 53.5089 57.8849 53.2705 57.9551C53.032 58.0254 52.7764 58.1677 52.5035 58.3822L52.0247 58.7586ZM65.9935 55.8504L62.5844 60.2817L54.844 54.3179L58.2442 49.8981L59.5379 50.8949L57.3337 53.7601L59.1743 55.1782L61.0419 52.7505L62.2927 53.7142L60.425 56.1419L62.492 57.7344L64.705 54.8577L65.9935 55.8504Z" fill="#F0F0F0"></path>
<path d="M36.0874 56.3442C47.4702 56.3442 56.6978 47.1221 56.6978 35.7461C56.6978 24.37 47.4702 15.1479 36.0874 15.1479C24.7046 15.1479 15.4771 24.37 15.4771 35.7461C15.4771 47.1221 24.7046 56.3442 36.0874 56.3442Z" fill="#F0F0F0"></path>
<path d="M1.90909 102.392V97.0909H29.7614V102.392H18.9716V132H12.6989V102.392H1.90909ZM33.8295 132.528C32.1705 132.528 30.6761 132.233 29.3466 131.642C28.0284 131.04 26.983 130.153 26.2102 128.983C25.4489 127.812 25.0682 126.369 25.0682 124.653C25.0682 123.176 25.3409 121.955 25.8864 120.989C26.4318 120.023 27.1761 119.25 28.1193 118.67C29.0625 118.091 30.125 117.653 31.3068 117.358C32.5 117.051 33.733 116.83 35.0057 116.693C36.5398 116.534 37.7841 116.392 38.7386 116.267C39.6932 116.131 40.3864 115.926 40.8182 115.653C41.2614 115.369 41.483 114.932 41.483 114.341V114.239C41.483 112.955 41.1023 111.96 40.3409 111.256C39.5795 110.551 38.483 110.199 37.0511 110.199C35.5398 110.199 34.3409 110.528 33.4545 111.188C32.5795 111.847 31.9886 112.625 31.6818 113.523L25.9205 112.705C26.375 111.114 27.125 109.784 28.1705 108.716C29.2159 107.636 30.4943 106.83 32.0057 106.295C33.517 105.75 35.1875 105.477 37.017 105.477C38.2784 105.477 39.5341 105.625 40.7841 105.92C42.0341 106.216 43.1761 106.705 44.2102 107.386C45.2443 108.057 46.0739 108.972 46.6989 110.131C47.3352 111.29 47.6534 112.739 47.6534 114.477V132H41.7216V128.403H41.517C41.142 129.131 40.6136 129.812 39.9318 130.449C39.2614 131.074 38.4148 131.58 37.392 131.966C36.3807 132.341 35.1932 132.528 33.8295 132.528ZM35.4318 127.994C36.6705 127.994 37.7443 127.75 38.6534 127.261C39.5625 126.761 40.2614 126.102 40.75 125.284C41.25 124.466 41.5 123.574 41.5 122.608V119.523C41.3068 119.682 40.9773 119.83 40.5114 119.966C40.0568 120.102 39.5455 120.222 38.9773 120.324C38.4091 120.426 37.8466 120.517 37.2898 120.597C36.733 120.676 36.25 120.744 35.8409 120.801C34.9205 120.926 34.0966 121.131 33.3693 121.415C32.642 121.699 32.0682 122.097 31.6477 122.608C31.2273 123.108 31.017 123.756 31.017 124.551C31.017 125.688 31.4318 126.545 32.2614 127.125C33.0909 127.705 34.1477 127.994 35.4318 127.994ZM49.1307 132V97.0909H55.3011V110.148H55.5568C55.875 109.511 56.3239 108.835 56.9034 108.119C57.483 107.392 58.267 106.773 59.2557 106.261C60.2443 105.739 61.5057 105.477 63.0398 105.477C65.0625 105.477 66.8864 105.994 68.5114 107.028C70.1477 108.051 71.4432 109.568 72.3977 111.58C73.3636 113.58 73.8466 116.034 73.8466 118.943C73.8466 121.818 73.375 124.261 72.4318 126.273C71.4886 128.284 70.2045 129.818 68.5795 130.875C66.9545 131.932 65.1136 132.46 63.0568 132.46C61.5568 132.46 60.3125 132.21 59.3239 131.71C58.3352 131.21 57.5398 130.608 56.9375 129.903C56.3466 129.187 55.8864 128.511 55.5568 127.875H55.1989V132H49.1307ZM55.1818 118.909C55.1818 120.602 55.4205 122.085 55.8977 123.358C56.3864 124.631 57.0852 125.625 57.9943 126.341C58.9148 127.045 60.0284 127.398 61.3352 127.398C62.6989 127.398 63.8409 127.034 64.7614 126.307C65.6818 125.568 66.375 124.562 66.8409 123.29C67.3182 122.006 67.5568 120.545 67.5568 118.909C67.5568 117.284 67.3239 115.841 66.858 114.58C66.392 113.318 65.6989 112.33 64.7784 111.614C63.858 110.898 62.7102 110.54 61.3352 110.54C60.017 110.54 58.8977 110.886 57.9773 111.58C57.0568 112.273 56.358 113.244 55.8807 114.494C55.4148 115.744 55.1818 117.216 55.1818 118.909ZM80.2628 97.0909V132H74.0923V97.0909H80.2628ZM93.1989 132.511C90.5739 132.511 88.3068 131.966 86.3977 130.875C84.5 129.773 83.0398 128.216 82.017 126.205C80.9943 124.182 80.483 121.801 80.483 119.062C80.483 116.369 80.9943 114.006 82.017 111.972C83.0511 109.926 84.4943 108.335 86.3466 107.199C88.1989 106.051 90.375 105.477 92.875 105.477C94.4886 105.477 96.0114 105.739 97.4432 106.261C98.8864 106.773 100.159 107.568 101.261 108.648C102.375 109.727 103.25 111.102 103.886 112.773C104.523 114.432 104.841 116.409 104.841 118.705V120.597H83.3807V116.438H98.9261C98.9148 115.256 98.6591 114.205 98.1591 113.284C97.6591 112.352 96.9602 111.619 96.0625 111.085C95.1761 110.551 94.142 110.284 92.9602 110.284C91.6989 110.284 90.5909 110.591 89.6364 111.205C88.6818 111.807 87.9375 112.602 87.4034 113.591C86.8807 114.568 86.6136 115.642 86.6023 116.812V120.443C86.6023 121.966 86.8807 123.273 87.4375 124.364C87.9943 125.443 88.7727 126.273 89.7727 126.852C90.7727 127.42 91.9432 127.705 93.2841 127.705C94.1818 127.705 94.9943 127.58 95.7216 127.33C96.4489 127.068 97.0795 126.688 97.6136 126.188C98.1477 125.688 98.5511 125.068 98.8239 124.33L104.585 124.977C104.222 126.5 103.528 127.83 102.506 128.966C101.494 130.091 100.199 130.966 98.6193 131.591C97.0398 132.205 95.233 132.511 93.1989 132.511ZM1.90909 140.392V135.091H29.7614V140.392H18.9716V170H12.6989V140.392H1.90909ZM37.652 170.511C35.027 170.511 32.7599 169.966 30.8509 168.875C28.9531 167.773 27.4929 166.216 26.4702 164.205C25.4474 162.182 24.9361 159.801 24.9361 157.062C24.9361 154.369 25.4474 152.006 26.4702 149.972C27.5043 147.926 28.9474 146.335 30.7997 145.199C32.652 144.051 34.8281 143.477 37.3281 143.477C38.9418 143.477 40.4645 143.739 41.8963 144.261C43.3395 144.773 44.6122 145.568 45.7145 146.648C46.8281 147.727 47.7031 149.102 48.3395 150.773C48.9759 152.432 49.294 154.409 49.294 156.705V158.597H27.8338V154.438H43.3793C43.3679 153.256 43.1122 152.205 42.6122 151.284C42.1122 150.352 41.4134 149.619 40.5156 149.085C39.6293 148.551 38.5952 148.284 37.4134 148.284C36.152 148.284 35.044 148.591 34.0895 149.205C33.1349 149.807 32.3906 150.602 31.8565 151.591C31.3338 152.568 31.0668 153.642 31.0554 154.812V158.443C31.0554 159.966 31.3338 161.273 31.8906 162.364C32.4474 163.443 33.2259 164.273 34.2259 164.852C35.2259 165.42 36.3963 165.705 37.7372 165.705C38.6349 165.705 39.4474 165.58 40.1747 165.33C40.902 165.068 41.5327 164.688 42.0668 164.188C42.6009 163.688 43.0043 163.068 43.277 162.33L49.0384 162.977C48.6747 164.5 47.9815 165.83 46.9588 166.966C45.9474 168.091 44.652 168.966 43.0724 169.591C41.4929 170.205 39.6861 170.511 37.652 170.511ZM55.6847 154.659V170H49.5142V143.818H55.4119V148.267H55.7188C56.321 146.801 57.2813 145.636 58.5994 144.773C59.929 143.909 61.571 143.477 63.5256 143.477C65.3324 143.477 66.9063 143.864 68.2472 144.636C69.5994 145.409 70.6449 146.528 71.3835 147.994C72.1335 149.46 72.5028 151.239 72.4915 153.33V170H66.321V154.284C66.321 152.534 65.8665 151.165 64.9574 150.176C64.0597 149.187 62.8153 148.693 61.2244 148.693C60.1449 148.693 59.1847 148.932 58.3438 149.409C57.5142 149.875 56.8608 150.551 56.3835 151.438C55.9176 152.324 55.6847 153.398 55.6847 154.659ZM79.9347 154.659V170H73.7642V143.818H79.6619V148.267H79.9688C80.571 146.801 81.5313 145.636 82.8494 144.773C84.179 143.909 85.821 143.477 87.7756 143.477C89.5824 143.477 91.1563 143.864 92.4972 144.636C93.8494 145.409 94.8949 146.528 95.6335 147.994C96.3835 149.46 96.7528 151.239 96.7415 153.33V170H90.571V154.284C90.571 152.534 90.1165 151.165 89.2074 150.176C88.3097 149.187 87.0653 148.693 85.4744 148.693C84.3949 148.693 83.4347 148.932 82.5938 149.409C81.7642 149.875 81.1108 150.551 80.6335 151.438C80.1676 152.324 79.9347 153.398 79.9347 154.659ZM98.0142 170V143.818H104.185V170H98.0142ZM101.116 140.102C100.139 140.102 99.2983 139.778 98.5938 139.131C97.8892 138.472 97.5369 137.682 97.5369 136.761C97.5369 135.83 97.8892 135.04 98.5938 134.392C99.2983 133.733 100.139 133.403 101.116 133.403C102.105 133.403 102.946 133.733 103.639 134.392C104.344 135.04 104.696 135.83 104.696 136.761C104.696 137.682 104.344 138.472 103.639 139.131C102.946 139.778 102.105 140.102 101.116 140.102ZM126.223 150.739L120.598 151.352C120.439 150.784 120.161 150.25 119.763 149.75C119.376 149.25 118.854 148.847 118.195 148.54C117.536 148.233 116.729 148.08 115.774 148.08C114.49 148.08 113.411 148.358 112.536 148.915C111.672 149.472 111.246 150.193 111.257 151.08C111.246 151.841 111.524 152.46 112.092 152.938C112.672 153.415 113.626 153.807 114.956 154.114L119.422 155.068C121.899 155.602 123.74 156.449 124.945 157.608C126.161 158.767 126.774 160.284 126.786 162.159C126.774 163.807 126.291 165.261 125.337 166.523C124.393 167.773 123.081 168.75 121.399 169.455C119.717 170.159 117.786 170.511 115.604 170.511C112.399 170.511 109.82 169.841 107.865 168.5C105.911 167.148 104.746 165.267 104.371 162.858L110.388 162.278C110.661 163.46 111.24 164.352 112.126 164.955C113.013 165.557 114.166 165.858 115.587 165.858C117.053 165.858 118.229 165.557 119.115 164.955C120.013 164.352 120.462 163.608 120.462 162.722C120.462 161.972 120.172 161.352 119.592 160.864C119.024 160.375 118.138 160 116.933 159.739L112.467 158.801C109.956 158.278 108.098 157.398 106.893 156.159C105.689 154.909 105.092 153.33 105.104 151.42C105.092 149.807 105.53 148.409 106.416 147.227C107.314 146.034 108.558 145.114 110.149 144.466C111.751 143.807 113.598 143.477 115.689 143.477C118.757 143.477 121.172 144.131 122.933 145.438C124.706 146.744 125.803 148.511 126.223 150.739ZM163.933 146.869H157.558C157.376 145.824 157.041 144.898 156.553 144.091C156.064 143.273 155.456 142.58 154.729 142.011C154.001 141.443 153.172 141.017 152.24 140.733C151.32 140.438 150.325 140.29 149.257 140.29C147.359 140.29 145.678 140.767 144.212 141.722C142.746 142.665 141.598 144.051 140.768 145.881C139.939 147.699 139.524 149.92 139.524 152.545C139.524 155.216 139.939 157.466 140.768 159.295C141.609 161.114 142.757 162.489 144.212 163.42C145.678 164.341 147.354 164.801 149.24 164.801C150.286 164.801 151.263 164.665 152.172 164.392C153.092 164.108 153.916 163.693 154.643 163.148C155.382 162.602 156.001 161.932 156.501 161.136C157.013 160.341 157.365 159.432 157.558 158.409L163.933 158.443C163.695 160.102 163.178 161.659 162.382 163.114C161.598 164.568 160.57 165.852 159.297 166.966C158.024 168.068 156.536 168.932 154.831 169.557C153.126 170.17 151.234 170.477 149.155 170.477C146.087 170.477 143.348 169.767 140.939 168.347C138.53 166.926 136.632 164.875 135.246 162.193C133.859 159.511 133.166 156.295 133.166 152.545C133.166 148.784 133.865 145.568 135.263 142.898C136.661 140.216 138.564 138.165 140.973 136.744C143.382 135.324 146.109 134.614 149.155 134.614C151.098 134.614 152.905 134.886 154.575 135.432C156.246 135.977 157.734 136.778 159.041 137.835C160.348 138.881 161.422 140.165 162.263 141.688C163.115 143.199 163.672 144.926 163.933 146.869ZM170.622 135.091V170H164.452V135.091H170.622ZM188.655 158.989V143.818H194.825V170H188.842V165.347H188.57C187.979 166.812 187.007 168.011 185.655 168.943C184.314 169.875 182.661 170.341 180.695 170.341C178.979 170.341 177.462 169.96 176.143 169.199C174.837 168.426 173.814 167.307 173.075 165.841C172.337 164.364 171.967 162.58 171.967 160.489V143.818H178.138V159.534C178.138 161.193 178.592 162.511 179.501 163.489C180.411 164.466 181.604 164.955 183.081 164.955C183.99 164.955 184.871 164.733 185.723 164.29C186.575 163.847 187.274 163.188 187.82 162.312C188.376 161.426 188.655 160.318 188.655 158.989ZM196.443 170V135.091H202.614V148.148H202.869C203.188 147.511 203.636 146.835 204.216 146.119C204.795 145.392 205.58 144.773 206.568 144.261C207.557 143.739 208.818 143.477 210.352 143.477C212.375 143.477 214.199 143.994 215.824 145.028C217.46 146.051 218.756 147.568 219.71 149.58C220.676 151.58 221.159 154.034 221.159 156.943C221.159 159.818 220.688 162.261 219.744 164.273C218.801 166.284 217.517 167.818 215.892 168.875C214.267 169.932 212.426 170.46 210.369 170.46C208.869 170.46 207.625 170.21 206.636 169.71C205.648 169.21 204.852 168.608 204.25 167.903C203.659 167.187 203.199 166.511 202.869 165.875H202.511V170H196.443ZM202.494 156.909C202.494 158.602 202.733 160.085 203.21 161.358C203.699 162.631 204.398 163.625 205.307 164.341C206.227 165.045 207.341 165.398 208.648 165.398C210.011 165.398 211.153 165.034 212.074 164.307C212.994 163.568 213.688 162.562 214.153 161.29C214.631 160.006 214.869 158.545 214.869 156.909C214.869 155.284 214.636 153.841 214.17 152.58C213.705 151.318 213.011 150.33 212.091 149.614C211.17 148.898 210.023 148.54 208.648 148.54C207.33 148.54 206.21 148.886 205.29 149.58C204.369 150.273 203.67 151.244 203.193 152.494C202.727 153.744 202.494 155.216 202.494 156.909ZM3.44318 208V173.091H16.8068C19.3295 173.091 21.4261 173.489 23.0966 174.284C24.7784 175.068 26.0341 176.142 26.8636 177.506C27.7045 178.869 28.125 180.415 28.125 182.142C28.125 183.562 27.8523 184.778 27.3068 185.79C26.7614 186.79 26.0284 187.602 25.108 188.227C24.1875 188.852 23.1591 189.301 22.0227 189.574V189.915C23.2614 189.983 24.4489 190.364 25.5852 191.057C26.733 191.739 27.6705 192.705 28.3977 193.955C29.125 195.205 29.4886 196.716 29.4886 198.489C29.4886 200.295 29.0511 201.92 28.1761 203.364C27.3011 204.795 25.983 205.926 24.2216 206.756C22.4602 207.585 20.2443 208 17.5739 208H3.44318ZM9.76705 202.716H16.5682C18.8636 202.716 20.517 202.278 21.5284 201.403C22.5511 200.517 23.0625 199.381 23.0625 197.994C23.0625 196.96 22.8068 196.028 22.2955 195.199C21.7841 194.358 21.0568 193.699 20.1136 193.222C19.1705 192.733 18.0455 192.489 16.7386 192.489H9.76705V202.716ZM9.76705 187.938H16.0227C17.1136 187.938 18.0966 187.739 18.9716 187.341C19.8466 186.932 20.5341 186.358 21.0341 185.619C21.5455 184.869 21.8011 183.983 21.8011 182.96C21.8011 181.608 21.3239 180.494 20.3693 179.619C19.4261 178.744 18.0227 178.307 16.1591 178.307H9.76705V187.938ZM41.3082 208.511C38.6832 208.511 36.4162 207.966 34.5071 206.875C32.6094 205.773 31.1491 204.216 30.1264 202.205C29.1037 200.182 28.5923 197.801 28.5923 195.062C28.5923 192.369 29.1037 190.006 30.1264 187.972C31.1605 185.926 32.6037 184.335 34.456 183.199C36.3082 182.051 38.4844 181.477 40.9844 181.477C42.598 181.477 44.1207 181.739 45.5526 182.261C46.9957 182.773 48.2685 183.568 49.3707 184.648C50.4844 185.727 51.3594 187.102 51.9957 188.773C52.6321 190.432 52.9503 192.409 52.9503 194.705V196.597H31.4901V192.438H47.0355C47.0241 191.256 46.7685 190.205 46.2685 189.284C45.7685 188.352 45.0696 187.619 44.1719 187.085C43.2855 186.551 42.2514 186.284 41.0696 186.284C39.8082 186.284 38.7003 186.591 37.7457 187.205C36.7912 187.807 36.0469 188.602 35.5128 189.591C34.9901 190.568 34.723 191.642 34.7116 192.812V196.443C34.7116 197.966 34.9901 199.273 35.5469 200.364C36.1037 201.443 36.8821 202.273 37.8821 202.852C38.8821 203.42 40.0526 203.705 41.3935 203.705C42.2912 203.705 43.1037 203.58 43.831 203.33C44.5582 203.068 45.1889 202.688 45.723 202.188C46.2571 201.688 46.6605 201.068 46.9332 200.33L52.6946 200.977C52.331 202.5 51.6378 203.83 50.6151 204.966C49.6037 206.091 48.3082 206.966 46.7287 207.591C45.1491 208.205 43.3423 208.511 41.3082 208.511ZM64.5909 208.511C62.0341 208.511 59.8182 207.949 57.9432 206.824C56.0682 205.699 54.6136 204.125 53.5795 202.102C52.5568 200.08 52.0455 197.716 52.0455 195.011C52.0455 192.307 52.5568 189.937 53.5795 187.903C54.6136 185.869 56.0682 184.29 57.9432 183.165C59.8182 182.04 62.0341 181.477 64.5909 181.477C67.1477 181.477 69.3636 182.04 71.2386 183.165C73.1136 184.29 74.5625 185.869 75.5852 187.903C76.6193 189.937 77.1364 192.307 77.1364 195.011C77.1364 197.716 76.6193 200.08 75.5852 202.102C74.5625 204.125 73.1136 205.699 71.2386 206.824C69.3636 207.949 67.1477 208.511 64.5909 208.511ZM64.625 203.568C66.0114 203.568 67.1705 203.187 68.1023 202.426C69.0341 201.653 69.7273 200.619 70.1818 199.324C70.6477 198.028 70.8807 196.585 70.8807 194.994C70.8807 193.392 70.6477 191.943 70.1818 190.648C69.7273 189.341 69.0341 188.301 68.1023 187.528C67.1705 186.756 66.0114 186.369 64.625 186.369C63.2045 186.369 62.0227 186.756 61.0795 187.528C60.1477 188.301 59.4489 189.341 58.983 190.648C58.5284 191.943 58.3011 193.392 58.3011 194.994C58.3011 196.585 58.5284 198.028 58.983 199.324C59.4489 200.619 60.1477 201.653 61.0795 202.426C62.0227 203.187 63.2045 203.568 64.625 203.568ZM88.7599 218.364C86.544 218.364 84.6406 218.063 83.0497 217.46C81.4588 216.869 80.1804 216.074 79.2145 215.074C78.2486 214.074 77.5781 212.966 77.2031 211.75L82.7599 210.403C83.0099 210.915 83.3736 211.42 83.8509 211.92C84.3281 212.432 84.9702 212.852 85.777 213.182C86.5952 213.523 87.6236 213.693 88.8622 213.693C90.6122 213.693 92.0611 213.267 93.2088 212.415C94.3565 211.574 94.9304 210.188 94.9304 208.256V203.295H94.6236C94.3054 203.932 93.8395 204.585 93.2259 205.256C92.6236 205.926 91.8224 206.489 90.8224 206.943C89.8338 207.398 88.5895 207.625 87.0895 207.625C85.0781 207.625 83.2543 207.153 81.6179 206.21C79.9929 205.256 78.6974 203.835 77.7315 201.949C76.777 200.051 76.2997 197.676 76.2997 194.824C76.2997 191.949 76.777 189.523 77.7315 187.545C78.6974 185.557 79.9986 184.051 81.6349 183.028C83.2713 181.994 85.0952 181.477 87.1065 181.477C88.6406 181.477 89.902 181.739 90.8906 182.261C91.8906 182.773 92.6861 183.392 93.277 184.119C93.8679 184.835 94.3168 185.511 94.6236 186.148H94.9645V181.818H101.05V208.426C101.05 210.665 100.516 212.517 99.4474 213.983C98.3793 215.449 96.919 216.545 95.0668 217.273C93.2145 218 91.1122 218.364 88.7599 218.364ZM88.8111 202.784C90.1179 202.784 91.2315 202.466 92.152 201.83C93.0724 201.193 93.7713 200.278 94.2486 199.085C94.7259 197.892 94.9645 196.46 94.9645 194.79C94.9645 193.142 94.7259 191.699 94.2486 190.46C93.7827 189.222 93.0895 188.261 92.169 187.58C91.2599 186.886 90.1406 186.54 88.8111 186.54C87.4361 186.54 86.2884 186.898 85.3679 187.614C84.4474 188.33 83.7543 189.312 83.2884 190.562C82.8224 191.801 82.5895 193.21 82.5895 194.79C82.5895 196.392 82.8224 197.795 83.2884 199C83.7656 200.193 84.4645 201.125 85.3849 201.795C86.3168 202.455 87.4588 202.784 88.8111 202.784ZM102.374 208V181.818H108.357V186.182H108.629C109.107 184.67 109.925 183.506 111.084 182.688C112.254 181.858 113.589 181.443 115.089 181.443C115.43 181.443 115.811 181.46 116.232 181.494C116.663 181.517 117.021 181.557 117.305 181.614V187.29C117.044 187.199 116.629 187.119 116.061 187.051C115.504 186.972 114.964 186.932 114.442 186.932C113.317 186.932 112.305 187.176 111.408 187.665C110.521 188.142 109.822 188.807 109.311 189.659C108.8 190.511 108.544 191.494 108.544 192.608V208H102.374ZM123.47 208.528C121.811 208.528 120.317 208.233 118.987 207.642C117.669 207.04 116.624 206.153 115.851 204.983C115.089 203.812 114.709 202.369 114.709 200.653C114.709 199.176 114.982 197.955 115.527 196.989C116.072 196.023 116.817 195.25 117.76 194.67C118.703 194.091 119.766 193.653 120.947 193.358C122.141 193.051 123.374 192.83 124.646 192.693C126.18 192.534 127.425 192.392 128.379 192.267C129.334 192.131 130.027 191.926 130.459 191.653C130.902 191.369 131.124 190.932 131.124 190.341V190.239C131.124 188.955 130.743 187.96 129.982 187.256C129.22 186.551 128.124 186.199 126.692 186.199C125.18 186.199 123.982 186.528 123.095 187.188C122.22 187.847 121.629 188.625 121.322 189.523L115.561 188.705C116.016 187.114 116.766 185.784 117.811 184.716C118.857 183.636 120.135 182.83 121.646 182.295C123.158 181.75 124.828 181.477 126.658 181.477C127.919 181.477 129.175 181.625 130.425 181.92C131.675 182.216 132.817 182.705 133.851 183.386C134.885 184.057 135.714 184.972 136.339 186.131C136.976 187.29 137.294 188.739 137.294 190.477V208H131.362V204.403H131.158C130.783 205.131 130.254 205.812 129.572 206.449C128.902 207.074 128.055 207.58 127.033 207.966C126.021 208.341 124.834 208.528 123.47 208.528ZM125.072 203.994C126.311 203.994 127.385 203.75 128.294 203.261C129.203 202.761 129.902 202.102 130.391 201.284C130.891 200.466 131.141 199.574 131.141 198.608V195.523C130.947 195.682 130.618 195.83 130.152 195.966C129.697 196.102 129.186 196.222 128.618 196.324C128.05 196.426 127.487 196.517 126.93 196.597C126.374 196.676 125.891 196.744 125.482 196.801C124.561 196.926 123.737 197.131 123.01 197.415C122.283 197.699 121.709 198.097 121.288 198.608C120.868 199.108 120.658 199.756 120.658 200.551C120.658 201.688 121.072 202.545 121.902 203.125C122.732 203.705 123.788 203.994 125.072 203.994ZM148.214 208.46C146.158 208.46 144.317 207.932 142.692 206.875C141.067 205.818 139.783 204.284 138.839 202.273C137.896 200.261 137.425 197.818 137.425 194.943C137.425 192.034 137.902 189.58 138.857 187.58C139.822 185.568 141.124 184.051 142.76 183.028C144.396 181.994 146.22 181.477 148.232 181.477C149.766 181.477 151.027 181.739 152.016 182.261C153.004 182.773 153.788 183.392 154.368 184.119C154.947 184.835 155.396 185.511 155.714 186.148H155.97V173.091H162.158V208H156.089V203.875H155.714C155.396 204.511 154.936 205.187 154.334 205.903C153.732 206.608 152.936 207.21 151.947 207.71C150.959 208.21 149.714 208.46 148.214 208.46ZM149.936 203.398C151.243 203.398 152.357 203.045 153.277 202.341C154.197 201.625 154.896 200.631 155.374 199.358C155.851 198.085 156.089 196.602 156.089 194.909C156.089 193.216 155.851 191.744 155.374 190.494C154.908 189.244 154.214 188.273 153.294 187.58C152.385 186.886 151.266 186.54 149.936 186.54C148.561 186.54 147.413 186.898 146.493 187.614C145.572 188.33 144.879 189.318 144.413 190.58C143.947 191.841 143.714 193.284 143.714 194.909C143.714 196.545 143.947 198.006 144.413 199.29C144.891 200.562 145.589 201.568 146.51 202.307C147.442 203.034 148.584 203.398 149.936 203.398Z" fill="#F0F0F0"></path>
</svg>