<svg width="16" height="16" viewBox="0 0 16 16" fill="none" xmlns="http://www.w3.org/2000/svg">
<path d="M7.04 10.7772L4.48667 6.35056C4.38641 6.18237 4.33256 5.99059 4.33063 5.7948C4.3287 5.599 4.37875 5.4062 4.47568 5.23607C4.57261 5.06593 4.71294 4.92457 4.88235 4.82639C5.05177 4.72821 5.2442 4.67674 5.44 4.67723H10.56C10.7538 4.67811 10.944 4.72989 11.1116 4.82738C11.2791 4.92488 11.4181 5.06466 11.5146 5.23275C11.6111 5.40083 11.6618 5.59132 11.6616 5.78516C11.6614 5.97899 11.6103 6.16936 11.5133 6.33723L8.96 10.7772C8.86309 10.9462 8.72329 11.0866 8.55472 11.1843C8.38616 11.2819 8.1948 11.3333 8 11.3333C7.8052 11.3333 7.61384 11.2819 7.44528 11.1843C7.27672 11.0866 7.13691 10.9462 7.04 10.7772Z" fill="#ED6455"></path>
</svg>