<svg width="350" height="185" viewBox="0 0 350 185" fill="#E6E6E6" xmlns="http://www.w3.org/2000/svg">
<path d="M2.54545 25.5227V18.4545H39.6818V25.5227H25.2955V65H16.9318V25.5227H2.54545ZM46.7727 65.7045C44.5606 65.7045 42.5682 65.3106 40.7955 64.5227C39.0379 63.7197 37.6439 62.5379 36.6136 60.9773C35.5985 59.4167 35.0909 57.4924 35.0909 55.2045C35.0909 53.2348 35.4545 51.6061 36.1818 50.3182C36.9091 49.0303 37.9015 48 39.1591 47.2273C40.4167 46.4545 41.8333 45.8712 43.4091 45.4773C45 45.0682 46.6439 44.7727 48.3409 44.5909C50.3864 44.3788 52.0455 44.1894 53.3182 44.0227C54.5909 43.8409 55.5152 43.5682 56.0909 43.2045C56.6818 42.8258 56.9773 42.2424 56.9773 41.4545V41.3182C56.9773 39.6061 56.4697 38.2803 55.4545 37.3409C54.4394 36.4015 52.9773 35.9318 51.0682 35.9318C49.053 35.9318 47.4545 36.3712 46.2727 37.25C45.1061 38.1288 44.3182 39.1667 43.9091 40.3636L36.2273 39.2727C36.8333 37.1515 37.8333 35.3788 39.2273 33.9545C40.6212 32.5151 42.3258 31.4394 44.3409 30.7273C46.3561 30 48.5833 29.6364 51.0227 29.6364C52.7045 29.6364 54.3788 29.8333 56.0455 30.2273C57.7121 30.6212 59.2348 31.2727 60.6136 32.1818C61.9924 33.0758 63.0985 34.2955 63.9318 35.8409C64.7803 37.3864 65.2045 39.3182 65.2045 41.6364V65H57.2955V60.2045H57.0227C56.5227 61.1742 55.8182 62.0833 54.9091 62.9318C54.0152 63.7652 52.8864 64.4394 51.5227 64.9545C50.1742 65.4545 48.5909 65.7045 46.7727 65.7045ZM48.9091 59.6591C50.5606 59.6591 51.9924 59.3333 53.2045 58.6818C54.4167 58.0152 55.3485 57.1364 56 56.0455C56.6667 54.9545 57 53.7652 57 52.4773V48.3636C56.7424 48.5758 56.303 48.7727 55.6818 48.9545C55.0758 49.1364 54.3939 49.2955 53.6364 49.4318C52.8788 49.5682 52.1288 49.6894 51.3864 49.7955C50.6439 49.9015 50 49.9924 49.4545 50.0682C48.2273 50.2348 47.1288 50.5076 46.1591 50.8864C45.1894 51.2652 44.4242 51.7955 43.8636 52.4773C43.303 53.1439 43.0227 54.0076 43.0227 55.0682C43.0227 56.5833 43.5758 57.7273 44.6818 58.5C45.7879 59.2727 47.197 59.6591 48.9091 59.6591ZM68.8409 65V18.4545H77.0682V35.8636H77.4091C77.8333 35.0152 78.4318 34.1136 79.2045 33.1591C79.9773 32.1894 81.0227 31.3636 82.3409 30.6818C83.6591 29.9848 85.3409 29.6364 87.3864 29.6364C90.0833 29.6364 92.5152 30.3258 94.6818 31.7045C96.8636 33.0682 98.5909 35.0909 99.8636 37.7727C101.152 40.4394 101.795 43.7121 101.795 47.5909C101.795 51.4242 101.167 54.6818 99.9091 57.3636C98.6515 60.0455 96.9394 62.0909 94.7727 63.5C92.6061 64.9091 90.1515 65.6136 87.4091 65.6136C85.4091 65.6136 83.75 65.2803 82.4318 64.6136C81.1136 63.947 80.053 63.1439 79.25 62.2045C78.4621 61.25 77.8485 60.3485 77.4091 59.5H76.9318V65H68.8409ZM76.9091 47.5455C76.9091 49.803 77.2273 51.7803 77.8636 53.4773C78.5152 55.1742 79.447 56.5 80.6591 57.4545C81.8864 58.3939 83.3712 58.8636 85.1136 58.8636C86.9318 58.8636 88.4545 58.3788 89.6818 57.4091C90.9091 56.4242 91.8333 55.0833 92.4545 53.3864C93.0909 51.6742 93.4091 49.7273 93.4091 47.5455C93.4091 45.3788 93.0985 43.4545 92.4773 41.7727C91.8561 40.0909 90.9318 38.7727 89.7045 37.8182C88.4773 36.8636 86.947 36.3864 85.1136 36.3864C83.3561 36.3864 81.8636 36.8485 80.6364 37.7727C79.4091 38.697 78.4773 39.9924 77.8409 41.6591C77.2197 43.3258 76.9091 45.2879 76.9091 47.5455ZM112.017 18.4545V65H103.79V18.4545H112.017ZM130.932 65.6818C127.432 65.6818 124.409 64.9545 121.864 63.5C119.333 62.0303 117.386 59.9545 116.023 57.2727C114.659 54.5758 113.977 51.4015 113.977 47.75C113.977 44.1591 114.659 41.0076 116.023 38.2955C117.402 35.5682 119.326 33.447 121.795 31.9318C124.265 30.4015 127.167 29.6364 130.5 29.6364C132.652 29.6364 134.682 29.9848 136.591 30.6818C138.515 31.3636 140.212 32.4242 141.682 33.8636C143.167 35.303 144.333 37.1364 145.182 39.3636C146.03 41.5758 146.455 44.2121 146.455 47.2727V49.7955H117.841V44.25H138.568C138.553 42.6742 138.212 41.2727 137.545 40.0455C136.879 38.803 135.947 37.8258 134.75 37.1136C133.568 36.4015 132.189 36.0455 130.614 36.0455C128.932 36.0455 127.455 36.4545 126.182 37.2727C124.909 38.0758 123.917 39.1364 123.205 40.4545C122.508 41.7576 122.152 43.1894 122.136 44.75V49.5909C122.136 51.6212 122.508 53.3636 123.25 54.8182C123.992 56.2576 125.03 57.3636 126.364 58.1364C127.697 58.8939 129.258 59.2727 131.045 59.2727C132.242 59.2727 133.326 59.1061 134.295 58.7727C135.265 58.4242 136.106 57.9167 136.818 57.25C137.53 56.5833 138.068 55.7576 138.432 54.7727L146.114 55.6364C145.629 57.6667 144.705 59.4394 143.341 60.9545C141.992 62.4545 140.265 63.6212 138.159 64.4545C136.053 65.2727 133.644 65.6818 130.932 65.6818ZM2.54545 76.5227V69.4545H39.6818V76.5227H25.2955V116H16.9318V76.5227H2.54545ZM51.8693 116.682C48.3693 116.682 45.3466 115.955 42.8011 114.5C40.2708 113.03 38.3239 110.955 36.9602 108.273C35.5966 105.576 34.9148 102.402 34.9148 98.75C34.9148 95.1591 35.5966 92.0076 36.9602 89.2955C38.339 86.5682 40.2633 84.447 42.733 82.9318C45.2027 81.4015 48.1042 80.6364 51.4375 80.6364C53.589 80.6364 55.6193 80.9848 57.5284 81.6818C59.4527 82.3636 61.1496 83.4242 62.6193 84.8636C64.1042 86.303 65.2708 88.1364 66.1193 90.3636C66.9678 92.5758 67.392 95.2121 67.392 98.2727V100.795H38.7784V95.25H59.5057C59.4905 93.6742 59.1496 92.2727 58.483 91.0455C57.8163 89.803 56.8845 88.8258 55.6875 88.1136C54.5057 87.4015 53.1269 87.0455 51.5511 87.0455C49.8693 87.0455 48.392 87.4545 47.1193 88.2727C45.8466 89.0758 44.8542 90.1364 44.142 91.4545C43.4451 92.7576 43.089 94.1894 43.0739 95.75V100.591C43.0739 102.621 43.4451 104.364 44.1875 105.818C44.9299 107.258 45.9678 108.364 47.3011 109.136C48.6345 109.894 50.1951 110.273 51.983 110.273C53.1799 110.273 54.2633 110.106 55.233 109.773C56.2027 109.424 57.0436 108.917 57.7557 108.25C58.4678 107.583 59.0057 106.758 59.3693 105.773L67.0511 106.636C66.5663 108.667 65.642 110.439 64.2784 111.955C62.9299 113.455 61.2027 114.621 59.0966 115.455C56.9905 116.273 54.5814 116.682 51.8693 116.682ZM77.5795 95.5455V116H69.3523V81.0909H77.2159V87.0227H77.625C78.428 85.0682 79.7083 83.5152 81.4659 82.3636C83.2386 81.2121 85.428 80.6364 88.0341 80.6364C90.4432 80.6364 92.5417 81.1515 94.3295 82.1818C96.1326 83.2121 97.5265 84.7045 98.5114 86.6591C99.5114 88.6136 100.004 90.9848 99.9886 93.7727V116H91.7614V95.0455C91.7614 92.7121 91.1553 90.8864 89.9432 89.5682C88.7462 88.25 87.0871 87.5909 84.9659 87.5909C83.5265 87.5909 82.2462 87.9091 81.125 88.5455C80.0189 89.1667 79.1477 90.0682 78.5114 91.25C77.8902 92.4318 77.5795 93.8636 77.5795 95.5455ZM111.58 95.5455V116H103.352V81.0909H111.216V87.0227H111.625C112.428 85.0682 113.708 83.5152 115.466 82.3636C117.239 81.2121 119.428 80.6364 122.034 80.6364C124.443 80.6364 126.542 81.1515 128.33 82.1818C130.133 83.2121 131.527 84.7045 132.511 86.6591C133.511 88.6136 134.004 90.9848 133.989 93.7727V116H125.761V95.0455C125.761 92.7121 125.155 90.8864 123.943 89.5682C122.746 88.25 121.087 87.5909 118.966 87.5909C117.527 87.5909 116.246 87.9091 115.125 88.5455C114.019 89.1667 113.148 90.0682 112.511 91.25C111.89 92.4318 111.58 93.8636 111.58 95.5455ZM137.352 116V81.0909H145.58V116H137.352ZM141.489 76.1364C140.186 76.1364 139.064 75.7045 138.125 74.8409C137.186 73.9621 136.716 72.9091 136.716 71.6818C136.716 70.4394 137.186 69.3864 138.125 68.5227C139.064 67.6439 140.186 67.2045 141.489 67.2045C142.807 67.2045 143.928 67.6439 144.852 68.5227C145.792 69.3864 146.261 70.4394 146.261 71.6818C146.261 72.9091 145.792 73.9621 144.852 74.8409C143.928 75.7045 142.807 76.1364 141.489 76.1364ZM176.631 90.3182L169.131 91.1364C168.919 90.3788 168.547 89.6667 168.017 89C167.502 88.3333 166.805 87.7955 165.926 87.3864C165.047 86.9773 163.972 86.7727 162.699 86.7727C160.987 86.7727 159.547 87.1439 158.381 87.8864C157.229 88.6288 156.661 89.5909 156.676 90.7727C156.661 91.7879 157.032 92.6136 157.79 93.25C158.563 93.8864 159.835 94.4091 161.608 94.8182L167.562 96.0909C170.866 96.803 173.32 97.9318 174.926 99.4773C176.547 101.023 177.366 103.045 177.381 105.545C177.366 107.742 176.722 109.682 175.449 111.364C174.191 113.03 172.441 114.333 170.199 115.273C167.956 116.212 165.381 116.682 162.472 116.682C158.199 116.682 154.759 115.788 152.153 114C149.547 112.197 147.994 109.689 147.494 106.477L155.517 105.705C155.881 107.28 156.653 108.47 157.835 109.273C159.017 110.076 160.555 110.477 162.449 110.477C164.403 110.477 165.972 110.076 167.153 109.273C168.35 108.47 168.949 107.477 168.949 106.295C168.949 105.295 168.563 104.47 167.79 103.818C167.032 103.167 165.85 102.667 164.244 102.318L158.29 101.068C154.941 100.371 152.464 99.197 150.858 97.5455C149.252 95.8788 148.456 93.7727 148.472 91.2273C148.456 89.0758 149.04 87.2121 150.222 85.6364C151.419 84.0455 153.078 82.8182 155.199 81.9545C157.335 81.0758 159.797 80.6364 162.585 80.6364C166.676 80.6364 169.896 81.5076 172.244 83.25C174.608 84.9924 176.07 87.3485 176.631 90.3182ZM230.244 85.1591H221.744C221.502 83.7652 221.055 82.5303 220.403 81.4545C219.752 80.3636 218.941 79.4394 217.972 78.6818C217.002 77.9242 215.896 77.3561 214.653 76.9773C213.426 76.5833 212.1 76.3864 210.676 76.3864C208.146 76.3864 205.903 77.0227 203.949 78.2955C201.994 79.553 200.464 81.4015 199.358 83.8409C198.252 86.2652 197.699 89.2273 197.699 92.7273C197.699 96.2879 198.252 99.2879 199.358 101.727C200.479 104.152 202.009 105.985 203.949 107.227C205.903 108.455 208.138 109.068 210.653 109.068C212.047 109.068 213.35 108.886 214.562 108.523C215.79 108.144 216.888 107.591 217.858 106.864C218.843 106.136 219.669 105.242 220.335 104.182C221.017 103.121 221.487 101.909 221.744 100.545L230.244 100.591C229.926 102.803 229.237 104.879 228.176 106.818C227.131 108.758 225.759 110.47 224.062 111.955C222.366 113.424 220.381 114.576 218.108 115.409C215.835 116.227 213.313 116.636 210.54 116.636C206.449 116.636 202.797 115.689 199.585 113.795C196.373 111.902 193.843 109.167 191.994 105.591C190.146 102.015 189.222 97.7273 189.222 92.7273C189.222 87.7121 190.153 83.4242 192.017 79.8636C193.881 76.2879 196.419 73.553 199.631 71.6591C202.843 69.7651 206.479 68.8182 210.54 68.8182C213.131 68.8182 215.54 69.1818 217.767 69.9091C219.994 70.6364 221.979 71.7045 223.722 73.1136C225.464 74.5076 226.896 76.2197 228.017 78.25C229.153 80.2652 229.896 82.5682 230.244 85.1591ZM240.83 69.4545V116H232.602V69.4545H240.83ZM266.54 101.318V81.0909H274.767V116H266.79V109.795H266.426C265.638 111.75 264.343 113.348 262.54 114.591C260.752 115.833 258.547 116.455 255.926 116.455C253.638 116.455 251.616 115.947 249.858 114.932C248.116 113.902 246.752 112.409 245.767 110.455C244.782 108.485 244.29 106.106 244.29 103.318V81.0909H252.517V102.045C252.517 104.258 253.123 106.015 254.335 107.318C255.547 108.621 257.138 109.273 259.108 109.273C260.32 109.273 261.494 108.977 262.631 108.386C263.767 107.795 264.699 106.917 265.426 105.75C266.169 104.568 266.54 103.091 266.54 101.318ZM278.591 116V69.4545H286.818V86.8636H287.159C287.583 86.0152 288.182 85.1136 288.955 84.1591C289.727 83.1894 290.773 82.3636 292.091 81.6818C293.409 80.9848 295.091 80.6364 297.136 80.6364C299.833 80.6364 302.265 81.3258 304.432 82.7045C306.614 84.0682 308.341 86.0909 309.614 88.7727C310.902 91.4394 311.545 94.7121 311.545 98.5909C311.545 102.424 310.917 105.682 309.659 108.364C308.402 111.045 306.689 113.091 304.523 114.5C302.356 115.909 299.902 116.614 297.159 116.614C295.159 116.614 293.5 116.28 292.182 115.614C290.864 114.947 289.803 114.144 289 113.205C288.212 112.25 287.598 111.348 287.159 110.5H286.682V116H278.591ZM286.659 98.5455C286.659 100.803 286.977 102.78 287.614 104.477C288.265 106.174 289.197 107.5 290.409 108.455C291.636 109.394 293.121 109.864 294.864 109.864C296.682 109.864 298.205 109.379 299.432 108.409C300.659 107.424 301.583 106.083 302.205 104.386C302.841 102.674 303.159 100.727 303.159 98.5455C303.159 96.3788 302.848 94.4545 302.227 92.7727C301.606 91.0909 300.682 89.7727 299.455 88.8182C298.227 87.8636 296.697 87.3864 294.864 87.3864C293.106 87.3864 291.614 87.8485 290.386 88.7727C289.159 89.697 288.227 90.9924 287.591 92.6591C286.97 94.3258 286.659 96.2879 286.659 98.5455ZM4.59091 167V120.455H22.4091C25.7727 120.455 28.5682 120.985 30.7955 122.045C33.0379 123.091 34.7121 124.523 35.8182 126.341C36.9394 128.159 37.5 130.22 37.5 132.523C37.5 134.417 37.1364 136.038 36.4091 137.386C35.6818 138.72 34.7045 139.803 33.4773 140.636C32.25 141.47 30.8788 142.068 29.3636 142.432V142.886C31.0152 142.977 32.5985 143.485 34.1136 144.409C35.6439 145.318 36.8939 146.606 37.8636 148.273C38.8333 149.939 39.3182 151.955 39.3182 154.318C39.3182 156.727 38.7349 158.894 37.5682 160.818C36.4015 162.727 34.6439 164.235 32.2955 165.341C29.947 166.447 26.9924 167 23.4318 167H4.59091ZM13.0227 159.955H22.0909C25.1515 159.955 27.3561 159.371 28.7045 158.205C30.0682 157.023 30.75 155.508 30.75 153.659C30.75 152.28 30.4091 151.038 29.7273 149.932C29.0455 148.811 28.0758 147.932 26.8182 147.295C25.5606 146.644 24.0606 146.318 22.3182 146.318H13.0227V159.955ZM13.0227 140.25H21.3636C22.8182 140.25 24.1288 139.985 25.2955 139.455C26.4621 138.909 27.3788 138.144 28.0455 137.159C28.7273 136.159 29.0682 134.977 29.0682 133.614C29.0682 131.811 28.4318 130.326 27.1591 129.159C25.9015 127.992 24.0303 127.409 21.5455 127.409H13.0227V140.25ZM56.7443 167.682C53.2443 167.682 50.2216 166.955 47.6761 165.5C45.1458 164.03 43.1989 161.955 41.8352 159.273C40.4716 156.576 39.7898 153.402 39.7898 149.75C39.7898 146.159 40.4716 143.008 41.8352 140.295C43.214 137.568 45.1383 135.447 47.608 133.932C50.0777 132.402 52.9792 131.636 56.3125 131.636C58.464 131.636 60.4943 131.985 62.4034 132.682C64.3277 133.364 66.0246 134.424 67.4943 135.864C68.9792 137.303 70.1458 139.136 70.9943 141.364C71.8428 143.576 72.267 146.212 72.267 149.273V151.795H43.6534V146.25H64.3807C64.3655 144.674 64.0246 143.273 63.358 142.045C62.6913 140.803 61.7595 139.826 60.5625 139.114C59.3807 138.402 58.0019 138.045 56.4261 138.045C54.7443 138.045 53.267 138.455 51.9943 139.273C50.7216 140.076 49.7292 141.136 49.017 142.455C48.3201 143.758 47.964 145.189 47.9489 146.75V151.591C47.9489 153.621 48.3201 155.364 49.0625 156.818C49.8049 158.258 50.8428 159.364 52.1761 160.136C53.5095 160.894 55.0701 161.273 56.858 161.273C58.0549 161.273 59.1383 161.106 60.108 160.773C61.0777 160.424 61.9186 159.917 62.6307 159.25C63.3428 158.583 63.8807 157.758 64.2443 156.773L71.9261 157.636C71.4413 159.667 70.517 161.439 69.1534 162.955C67.8049 164.455 66.0777 165.621 63.9716 166.455C61.8655 167.273 59.4564 167.682 56.7443 167.682ZM89.4545 167.682C86.0455 167.682 83.0909 166.932 80.5909 165.432C78.0909 163.932 76.1515 161.833 74.7727 159.136C73.4091 156.439 72.7273 153.288 72.7273 149.682C72.7273 146.076 73.4091 142.917 74.7727 140.205C76.1515 137.492 78.0909 135.386 80.5909 133.886C83.0909 132.386 86.0455 131.636 89.4545 131.636C92.8636 131.636 95.8182 132.386 98.3182 133.886C100.818 135.386 102.75 137.492 104.114 140.205C105.492 142.917 106.182 146.076 106.182 149.682C106.182 153.288 105.492 156.439 104.114 159.136C102.75 161.833 100.818 163.932 98.3182 165.432C95.8182 166.932 92.8636 167.682 89.4545 167.682ZM89.5 161.091C91.3485 161.091 92.8939 160.583 94.1364 159.568C95.3788 158.538 96.303 157.159 96.9091 155.432C97.5303 153.705 97.8409 151.78 97.8409 149.659C97.8409 147.523 97.5303 145.591 96.9091 143.864C96.303 142.121 95.3788 140.735 94.1364 139.705C92.8939 138.674 91.3485 138.159 89.5 138.159C87.6061 138.159 86.0303 138.674 84.7727 139.705C83.5303 140.735 82.5985 142.121 81.9773 143.864C81.3712 145.591 81.0682 147.523 81.0682 149.659C81.0682 151.78 81.3712 153.705 81.9773 155.432C82.5985 157.159 83.5303 158.538 84.7727 159.568C86.0303 160.583 87.6061 161.091 89.5 161.091ZM123.347 180.818C120.392 180.818 117.854 180.417 115.733 179.614C113.612 178.826 111.907 177.765 110.619 176.432C109.331 175.098 108.438 173.621 107.938 172L115.347 170.205C115.68 170.886 116.165 171.561 116.801 172.227C117.438 172.909 118.294 173.47 119.369 173.909C120.46 174.364 121.831 174.591 123.483 174.591C125.816 174.591 127.748 174.023 129.278 172.886C130.809 171.765 131.574 169.917 131.574 167.341V160.727H131.165C130.741 161.576 130.119 162.447 129.301 163.341C128.498 164.235 127.43 164.985 126.097 165.591C124.778 166.197 123.119 166.5 121.119 166.5C118.438 166.5 116.006 165.871 113.824 164.614C111.657 163.341 109.93 161.447 108.642 158.932C107.369 156.402 106.733 153.235 106.733 149.432C106.733 145.598 107.369 142.364 108.642 139.727C109.93 137.076 111.665 135.068 113.847 133.705C116.028 132.326 118.46 131.636 121.142 131.636C123.188 131.636 124.869 131.985 126.188 132.682C127.521 133.364 128.581 134.189 129.369 135.159C130.157 136.114 130.756 137.015 131.165 137.864H131.619V132.091H139.733V167.568C139.733 170.553 139.021 173.023 137.597 174.977C136.172 176.932 134.225 178.394 131.756 179.364C129.286 180.333 126.483 180.818 123.347 180.818ZM123.415 160.045C125.157 160.045 126.642 159.621 127.869 158.773C129.097 157.924 130.028 156.705 130.665 155.114C131.301 153.523 131.619 151.614 131.619 149.386C131.619 147.189 131.301 145.265 130.665 143.614C130.044 141.962 129.119 140.682 127.892 139.773C126.68 138.848 125.188 138.386 123.415 138.386C121.581 138.386 120.051 138.864 118.824 139.818C117.597 140.773 116.672 142.083 116.051 143.75C115.43 145.402 115.119 147.28 115.119 149.386C115.119 151.523 115.43 153.394 116.051 155C116.688 156.591 117.619 157.833 118.847 158.727C120.089 159.606 121.612 160.045 123.415 160.045ZM143.165 167V132.091H151.142V137.909H151.506C152.142 135.894 153.233 134.341 154.778 133.25C156.339 132.144 158.119 131.591 160.119 131.591C160.574 131.591 161.081 131.614 161.642 131.659C162.218 131.689 162.695 131.742 163.074 131.818V139.386C162.725 139.265 162.172 139.159 161.415 139.068C160.672 138.962 159.953 138.909 159.256 138.909C157.756 138.909 156.407 139.235 155.21 139.886C154.028 140.523 153.097 141.409 152.415 142.545C151.733 143.682 151.392 144.992 151.392 146.477V167H143.165ZM172.96 167.705C170.748 167.705 168.756 167.311 166.983 166.523C165.225 165.72 163.831 164.538 162.801 162.977C161.786 161.417 161.278 159.492 161.278 157.205C161.278 155.235 161.642 153.606 162.369 152.318C163.097 151.03 164.089 150 165.347 149.227C166.604 148.455 168.021 147.871 169.597 147.477C171.188 147.068 172.831 146.773 174.528 146.591C176.574 146.379 178.233 146.189 179.506 146.023C180.778 145.841 181.703 145.568 182.278 145.205C182.869 144.826 183.165 144.242 183.165 143.455V143.318C183.165 141.606 182.657 140.28 181.642 139.341C180.627 138.402 179.165 137.932 177.256 137.932C175.241 137.932 173.642 138.371 172.46 139.25C171.294 140.129 170.506 141.167 170.097 142.364L162.415 141.273C163.021 139.152 164.021 137.379 165.415 135.955C166.809 134.515 168.513 133.439 170.528 132.727C172.544 132 174.771 131.636 177.21 131.636C178.892 131.636 180.566 131.833 182.233 132.227C183.9 132.621 185.422 133.273 186.801 134.182C188.18 135.076 189.286 136.295 190.119 137.841C190.968 139.386 191.392 141.318 191.392 143.636V167H183.483V162.205H183.21C182.71 163.174 182.006 164.083 181.097 164.932C180.203 165.765 179.074 166.439 177.71 166.955C176.362 167.455 174.778 167.705 172.96 167.705ZM175.097 161.659C176.748 161.659 178.18 161.333 179.392 160.682C180.604 160.015 181.536 159.136 182.188 158.045C182.854 156.955 183.188 155.765 183.188 154.477V150.364C182.93 150.576 182.491 150.773 181.869 150.955C181.263 151.136 180.581 151.295 179.824 151.432C179.066 151.568 178.316 151.689 177.574 151.795C176.831 151.902 176.188 151.992 175.642 152.068C174.415 152.235 173.316 152.508 172.347 152.886C171.377 153.265 170.612 153.795 170.051 154.477C169.491 155.144 169.21 156.008 169.21 157.068C169.21 158.583 169.763 159.727 170.869 160.5C171.975 161.273 173.384 161.659 175.097 161.659ZM207.619 167.614C204.877 167.614 202.422 166.909 200.256 165.5C198.089 164.091 196.377 162.045 195.119 159.364C193.862 156.682 193.233 153.424 193.233 149.591C193.233 145.712 193.869 142.439 195.142 139.773C196.43 137.091 198.165 135.068 200.347 133.705C202.528 132.326 204.96 131.636 207.642 131.636C209.688 131.636 211.369 131.985 212.688 132.682C214.006 133.364 215.051 134.189 215.824 135.159C216.597 136.114 217.195 137.015 217.619 137.864H217.96V120.455H226.21V167H218.119V161.5H217.619C217.195 162.348 216.581 163.25 215.778 164.205C214.975 165.144 213.915 165.947 212.597 166.614C211.278 167.28 209.619 167.614 207.619 167.614ZM209.915 160.864C211.657 160.864 213.142 160.394 214.369 159.455C215.597 158.5 216.528 157.174 217.165 155.477C217.801 153.78 218.119 151.803 218.119 149.545C218.119 147.288 217.801 145.326 217.165 143.659C216.544 141.992 215.619 140.697 214.392 139.773C213.18 138.848 211.688 138.386 209.915 138.386C208.081 138.386 206.551 138.864 205.324 139.818C204.097 140.773 203.172 142.091 202.551 143.773C201.93 145.455 201.619 147.379 201.619 149.545C201.619 151.727 201.93 153.674 202.551 155.386C203.188 157.083 204.119 158.424 205.347 159.409C206.589 160.379 208.112 160.864 209.915 160.864Z" fill="#F0F0F0"></path>
</svg>