<svg width="350" height="229" viewBox="0 0 350 229" fill="none" xmlns="http://www.w3.org/2000/svg">
<path fill-rule="evenodd" clip-rule="evenodd" d="M2.13987 48.6312L0.373071 42.1094L1.94737 41.6867L2.58173 44.0283L10.4263 41.9221L10.9368 43.8065L3.09223 45.9128L3.71417 48.2085L2.13987 48.6312ZM0.0628434 38.3023L0 36.5216L9.64431 33.1276L9.71781 35.2107L7.7249 35.8059L7.82007 38.5028L9.85031 38.965L9.92336 41.0349L0.0628434 38.3023ZM6.11646 36.2864L2.64231 37.3241L6.18151 38.1298L6.11646 36.2864ZM10.5007 29.5006L9.76464 32.6405L0.263025 30.3893L0.949718 27.46C1.06041 26.9878 1.21133 26.5777 1.40246 26.2296C1.59359 25.8815 1.82798 25.6019 2.10563 25.3909C2.38327 25.1799 2.70076 25.0439 3.05807 24.9828C3.41539 24.9218 3.81593 24.9439 4.2597 25.049C4.64825 25.1411 4.98996 25.3048 5.28483 25.5402C5.57971 25.7755 5.79284 26.0849 5.92426 26.4682C5.94918 26.5409 5.96991 26.6164 5.98647 26.6947C6.076 26.5332 6.18248 26.3965 6.30589 26.2845C6.5866 26.0299 6.91177 25.8764 7.28137 25.8241C7.65097 25.7718 8.02338 25.79 8.39863 25.8789C9.0109 26.024 9.49743 26.2594 9.85823 26.5851C10.219 26.9108 10.4538 27.3183 10.5625 27.8076C10.6712 28.2969 10.6506 28.8612 10.5007 29.5006ZM6.06822 29.7476L8.63103 30.3548L8.91912 29.1258C8.9787 28.8717 8.973 28.6552 8.90198 28.4765C8.83099 28.2977 8.71089 28.15 8.54165 28.0334C8.37244 27.9167 8.16814 27.8301 7.92881 27.7734C7.65866 27.7094 7.41631 27.6861 7.20176 27.7036C6.9872 27.7211 6.80957 27.7891 6.66887 27.9077C6.52819 28.0262 6.42929 28.2073 6.3722 28.4509L6.06822 29.7476ZM4.92173 28.418C4.98226 28.1598 4.98746 27.936 4.93735 27.7465C4.88723 27.557 4.78381 27.4014 4.62703 27.2799C4.47026 27.1583 4.26533 27.0676 4.01225 27.0076C3.72152 26.9387 3.47901 26.9213 3.28477 26.9553C3.09053 26.9893 2.93297 27.0785 2.81211 27.223C2.69124 27.3675 2.59982 27.5719 2.53786 27.8363L2.29914 28.8545L4.68678 29.4203L4.92173 28.418ZM13.814 21.7161L11.37 26.5467L2.65992 22.1224L3.54561 20.3718L10.8059 24.0597L12.3642 20.9796L13.814 21.7161ZM17.6338 16.8244L14.0982 21.1553L6.53222 14.9713L10.0586 10.6517L11.3232 11.6853L9.03718 14.4855L10.8363 15.956L12.7732 13.5834L13.9958 14.5826L12.0588 16.9552L14.0792 18.6065L16.3744 15.795L17.6338 16.8244ZM19.3178 5.73767L17.2229 6.855L16.4524 5.41524L22.4036 2.24109L23.1741 3.68084L21.0373 4.82053L24.8768 11.9947L23.1573 12.9119L19.3178 5.73767ZM32.1952 9.90596L26.7734 11.2844L24.3456 1.82541L29.7533 0.450573L30.1591 2.03157L26.6535 2.92283L27.2308 5.17206L30.2011 4.41688L30.5934 5.9453L27.6231 6.70048L28.2714 9.22631L31.791 8.33147L32.1952 9.90596ZM39.286 0L39.3929 9.75913L37.497 9.77492L34.3687 3.6973L34.4356 9.80041L32.57 9.81596L32.4631 0.0568303L34.3352 0.0412319L37.4904 6.19059L37.4228 0.0155267L39.286 0ZM48.9191 2.27301L46.322 11.6737L44.4944 11.1643L43.1674 4.46276L41.5432 10.3417L39.7448 9.84044L42.3419 0.439774L44.1466 0.942782L45.4797 7.72065L47.123 1.77239L48.9191 2.27301ZM52.9305 4.26691L48.5874 12.9952L46.8387 12.1215L51.1818 3.39322L52.9305 4.26691ZM54.0805 13.5946C54.1852 13.4529 54.2667 13.3152 54.3249 13.1815C54.3832 13.0477 54.4083 12.9027 54.4002 12.7464C54.3922 12.5901 54.3475 12.4071 54.2662 12.1974C54.1849 11.9877 54.0607 11.7406 53.8936 11.4563C53.6893 11.1165 53.5021 10.7761 53.3322 10.4353C53.1623 10.0945 53.0355 9.75177 52.9518 9.40704C52.8682 9.06233 52.8551 8.71795 52.9126 8.37394C52.9701 8.02993 53.1232 7.68959 53.372 7.35294C53.6163 7.02246 53.8975 6.76716 54.2157 6.58704C54.5338 6.40692 54.8749 6.30307 55.239 6.27547C55.603 6.24788 55.9744 6.29381 56.3532 6.4133C56.732 6.53279 57.1049 6.72841 57.472 7.00014C57.9763 7.37353 58.3361 7.80024 58.5512 8.2802C58.7663 8.76018 58.8412 9.25687 58.7757 9.77026C58.7103 10.2836 58.5035 10.7759 58.1554 11.2469L56.5839 10.0834C56.7477 9.86179 56.861 9.64245 56.9238 9.42539C56.9867 9.20832 56.9859 9.00082 56.9214 8.80287C56.857 8.60492 56.7164 8.42575 56.4998 8.26536C56.2987 8.11653 56.1025 8.03392 55.911 8.01749C55.7196 8.00109 55.5414 8.03827 55.3766 8.12903C55.2118 8.2198 55.0656 8.35143 54.9381 8.52394C54.8421 8.65387 54.7888 8.79289 54.7781 8.941C54.7674 9.0891 54.7868 9.24527 54.8363 9.40949C54.8858 9.57371 54.9597 9.7504 55.0579 9.93957C55.156 10.1288 55.2708 10.3265 55.402 10.5329C55.6525 10.9365 55.853 11.3221 56.0033 11.6897C56.1536 12.0573 56.2443 12.4127 56.2754 12.756C56.3065 13.0993 56.2734 13.4354 56.176 13.7643C56.0787 14.0931 55.9084 14.4221 55.6652 14.7512C55.4233 15.0785 55.1467 15.333 54.8354 15.5146C54.5241 15.6963 54.1901 15.8037 53.8337 15.8367C53.4772 15.8698 53.1081 15.8258 52.7264 15.7049C52.3446 15.584 51.9672 15.3854 51.5941 15.1092C51.23 14.8397 50.9238 14.5343 50.6755 14.1931C50.4272 13.8519 50.2582 13.4847 50.1684 13.0915C50.0787 12.6982 50.0837 12.2874 50.1834 11.859C50.2831 11.4305 50.4968 10.9947 50.8245 10.5513L52.4017 11.7189C52.2277 11.9543 52.1021 12.1728 52.0249 12.3743C51.9478 12.5758 51.9211 12.7626 51.9451 12.9345C51.969 13.1064 52.0343 13.2683 52.1409 13.42C52.2475 13.5718 52.3935 13.7163 52.5791 13.8537C52.7875 14.008 52.9823 14.0918 53.1635 14.1051C53.3448 14.1185 53.5122 14.0784 53.6657 13.9848C53.8192 13.8912 53.9574 13.7611 54.0805 13.5946ZM62.6652 23.4406L63.5825 25.1649C62.9206 25.483 62.3053 25.641 61.7366 25.6388C61.1679 25.6367 60.6526 25.4782 60.1909 25.1633C59.7292 24.8484 59.3351 24.3841 59.0087 23.7705C58.7541 23.2918 58.608 22.8237 58.5706 22.3661C58.5332 21.9085 58.6014 21.4677 58.7751 21.0438C58.9488 20.6198 59.2298 20.2196 59.6182 19.8432C60.0066 19.4668 60.4993 19.1203 61.0963 18.8038L62.5616 18.027C63.1585 17.7105 63.7255 17.4999 64.2626 17.3951C64.7997 17.2903 65.2944 17.2856 65.7468 17.3809C66.1993 17.4762 66.6046 17.6692 66.9627 17.9598C67.3208 18.2504 67.6249 18.6307 67.8749 19.1007C68.2089 19.7284 68.3708 20.316 68.3608 20.8635C68.3508 21.411 68.1811 21.9197 67.8516 22.3894C67.5221 22.8592 67.0428 23.2899 66.4137 23.6816L65.4934 21.9516C65.8992 21.7225 66.1976 21.5056 66.3888 21.3011C66.5799 21.0965 66.6773 20.8817 66.681 20.6565C66.6846 20.4314 66.6051 20.1659 66.4425 19.8602C66.3199 19.6298 66.1744 19.4525 66.0059 19.3282C65.8373 19.2039 65.6359 19.1365 65.4015 19.126C65.1672 19.1154 64.8937 19.1613 64.581 19.2634C64.2684 19.3656 63.9051 19.5264 63.4912 19.7459L62.0141 20.529C61.6076 20.7445 61.2728 20.9491 61.0097 21.1429C60.7465 21.3366 60.5504 21.5294 60.4212 21.7211C60.2921 21.9127 60.2291 22.1126 60.2324 22.3206C60.2357 22.5286 60.3047 22.7591 60.4392 23.0121C60.5943 23.3036 60.7626 23.516 60.9443 23.6492C61.1259 23.7825 61.3525 23.8327 61.6239 23.8C61.8954 23.7673 62.2425 23.6475 62.6652 23.4406ZM62.0414 32.1812L60.7158 26.9228L70.1782 24.5604L70.6586 26.466L62.7712 28.4352L63.6165 31.7879L62.0414 32.1812ZM71.9513 36.5258L72 38.4874L65.2994 38.636C64.5487 38.6526 63.9348 38.5284 63.4578 38.2635C62.9809 37.9985 62.6276 37.627 62.398 37.149C62.1684 36.671 62.046 36.1222 62.0306 35.5026C62.015 34.8744 62.11 34.315 62.3156 33.8243C62.5211 33.3336 62.8556 32.9478 63.319 32.6668C63.7825 32.3859 64.3895 32.2371 65.1403 32.2204L71.8409 32.0718L71.8894 34.0291L65.1888 34.1777C64.7654 34.1871 64.4406 34.2427 64.2144 34.3446C63.9882 34.4465 63.8366 34.5904 63.7597 34.7765C63.6828 34.9625 63.6477 35.1925 63.6545 35.4665C63.6613 35.7406 63.7077 35.9673 63.7937 36.1468C63.8797 36.3262 64.0382 36.4614 64.2691 36.5522C64.5001 36.6431 64.8273 36.6838 65.2507 36.6744L71.9513 36.5258ZM65.9422 44.9543C65.8521 45.1156 65.7452 45.252 65.6215 45.3635C65.34 45.6173 65.0144 45.7698 64.6446 45.821C64.2749 45.8723 63.9025 45.8529 63.5275 45.7629C62.9157 45.616 62.4299 45.3791 62.0701 45.0523C61.7102 44.7255 61.4767 44.3174 61.3694 43.8278C61.2622 43.3382 61.2845 42.7739 61.4363 42.135L62.1817 38.9973L71.6766 41.2769L70.9812 44.2041C70.8691 44.6759 70.7169 45.0856 70.5248 45.4331C70.3326 45.7806 70.0974 46.0595 69.8191 46.2697C69.5408 46.4799 69.2229 46.615 68.8654 46.6749C68.5079 46.7349 68.1075 46.7116 67.664 46.6052C67.2757 46.5119 66.9345 46.3472 66.6403 46.111C66.3462 45.8747 66.1339 45.5647 66.0037 45.181C65.979 45.1082 65.9585 45.0327 65.9422 44.9543ZM63.3085 41.2864L63.0167 42.5145C62.9564 42.7684 62.9615 42.9849 63.0319 43.1639C63.1024 43.3428 63.2221 43.4909 63.3909 43.608C63.5598 43.7252 63.7638 43.8125 64.003 43.8699C64.273 43.9347 64.5153 43.9587 64.7299 43.9418C64.9445 43.9249 65.1223 43.8574 65.2634 43.7393C65.4044 43.6212 65.5038 43.4404 65.5617 43.197L65.8695 41.9013L63.3085 41.2864ZM67.012 43.2342C66.9507 43.4922 66.9449 43.716 66.9944 43.9057C67.0439 44.0954 67.1469 44.2512 67.3033 44.3732C67.4597 44.4952 67.6644 44.5866 67.9173 44.6473C68.2078 44.717 68.4503 44.7352 68.6446 44.7018C68.839 44.6684 68.9968 44.5796 69.1181 44.4355C69.2394 44.2914 69.3314 44.0872 69.3942 43.823L69.6359 42.8055L67.25 42.2327L67.012 43.2342ZM8.19916 58.554L6.17504 56.0356L13.7751 49.9336L15.6634 52.283C15.9678 52.6617 16.1986 53.0339 16.3559 53.3994C16.5131 53.7649 16.5898 54.1223 16.586 54.4715C16.5821 54.8206 16.4947 55.1549 16.3238 55.4743C16.1528 55.7937 15.8898 56.0959 15.5349 56.3809C15.2241 56.6304 14.8855 56.7988 14.5192 56.886C14.1528 56.9732 13.7783 56.9503 13.3955 56.8173C13.3229 56.7921 13.2507 56.7619 13.1789 56.7266C13.2513 56.8969 13.2938 57.0652 13.3064 57.2316C13.335 57.6101 13.2566 57.9612 13.0713 58.2849C12.886 58.6087 12.6432 58.891 12.3431 59.132C11.8534 59.5252 11.3695 59.7635 10.8915 59.8469C10.4135 59.9304 9.94834 59.864 9.49597 59.6477C9.0436 59.4314 8.61133 59.0669 8.19916 58.554ZM12.473 54.8235C12.6394 55.0305 12.8127 55.1728 12.9928 55.2503C13.173 55.3277 13.359 55.3421 13.5509 55.2936C13.7429 55.245 13.9401 55.1394 14.1425 54.9769C14.375 54.7902 14.5375 54.6097 14.6297 54.4356C14.722 54.2615 14.7482 54.0821 14.7085 53.8977C14.6686 53.7132 14.5636 53.5149 14.3931 53.3029L13.7367 52.4862L11.8269 54.0196L12.473 54.8235ZM10.7219 54.9068L8.67201 56.5526L9.46424 57.5383C9.62809 57.7422 9.80223 57.8713 9.98667 57.9256C10.1711 57.98 10.3612 57.9764 10.5569 57.915C10.7526 57.8536 10.9462 57.746 11.1376 57.5923C11.3537 57.4188 11.5206 57.2421 11.6384 57.0621C11.7561 56.8821 11.8114 56.7001 11.8042 56.516C11.797 56.3319 11.7148 56.1421 11.5578 55.9468L10.7219 54.9068ZM16.8073 66.3897L12.3259 63.0233L18.174 55.2256L22.6437 58.5833L21.6663 59.8866L18.7687 57.71L17.3781 59.5642L19.8332 61.4085L18.8883 62.6684L16.4332 60.8241L14.8716 62.9063L17.7807 65.0918L16.8073 66.3897ZM27.6557 65.2637L27.0327 66.7624C26.7687 67.3976 26.4607 67.9217 26.1087 68.3346C25.7568 68.7477 25.3723 69.054 24.9555 69.2535C24.5386 69.4531 24.0981 69.5504 23.6341 69.5454C23.17 69.5403 22.6971 69.4371 22.2152 69.2358C21.7318 69.0338 21.3243 68.769 20.9926 68.4415C20.6609 68.114 20.4173 67.7309 20.2619 67.2922C20.1064 66.8535 20.0497 66.3628 20.0918 65.8203C20.1339 65.2778 20.287 64.689 20.551 64.0538L21.1739 62.5551C21.4447 61.9038 21.7586 61.3653 22.1159 60.9394C22.4732 60.5136 22.864 60.1973 23.2885 59.9907C23.7129 59.7841 24.1581 59.6801 24.6241 59.6788C25.0901 59.6775 25.5648 59.7779 26.0481 59.9798C26.53 60.1812 26.9345 60.4483 27.2617 60.781C27.5889 61.1138 27.829 61.5041 27.9821 61.9521C28.1352 62.4 28.1867 62.9011 28.1367 63.4554C28.0867 64.0096 27.9264 64.6124 27.6557 65.2637ZM25.2322 66.01L25.8603 64.4989C26.0387 64.0697 26.1599 63.6903 26.224 63.3606C26.2881 63.0309 26.2987 62.7438 26.256 62.4991C26.2133 62.2545 26.1216 62.0494 25.9809 61.8837C25.8402 61.718 25.6535 61.5865 25.4207 61.4892C25.1836 61.3902 24.9562 61.3486 24.7385 61.3645C24.5208 61.3804 24.3113 61.4597 24.11 61.6024C23.9088 61.745 23.7154 61.9558 23.5298 62.2347C23.3442 62.5137 23.1622 62.8677 22.9838 63.2969L22.3557 64.8079C22.1846 65.2196 22.0686 65.5854 22.0076 65.9053C21.9467 66.2251 21.9396 66.5032 21.9865 66.7395C22.0334 66.9758 22.1282 67.1756 22.2707 67.3389C22.4132 67.5023 22.603 67.6335 22.84 67.7326C23.07 67.8286 23.2926 67.8698 23.5079 67.856C23.7233 67.8422 23.9298 67.7682 24.1275 67.6341C24.3252 67.5001 24.516 67.2988 24.6998 67.0303C24.8836 66.7617 25.0611 66.4216 25.2322 66.01ZM35.6439 66.952L35.1501 70.9402C34.9958 71.0678 34.7749 71.2114 34.4877 71.3711C34.2005 71.5308 33.8362 71.6563 33.3949 71.7476C32.9536 71.839 32.4294 71.8463 31.8221 71.7695C31.285 71.7016 30.8087 71.5558 30.3932 71.3322C29.9777 71.1086 29.6349 70.8048 29.3649 70.421C29.0948 70.0372 28.9094 69.5765 28.8084 69.0391C28.7075 68.5016 28.7008 67.8788 28.7885 67.1707L28.9922 65.5254C29.0794 64.8217 29.234 64.22 29.4562 63.7203C29.6784 63.2206 29.9611 62.8165 30.3045 62.508C30.6478 62.1996 31.0395 61.9879 31.4796 61.8732C31.9196 61.7584 32.4048 61.7345 32.9351 61.8016C33.6625 61.8935 34.2445 62.0901 34.6811 62.3912C35.1178 62.6924 35.4273 63.0979 35.6098 63.6076C35.7924 64.1174 35.8651 64.7242 35.828 65.4281L33.9486 65.1905C33.9642 64.7778 33.9351 64.4492 33.8615 64.2047C33.7879 63.9602 33.6642 63.7768 33.4902 63.6546C33.3163 63.5323 33.0807 63.4524 32.7836 63.4148C32.5253 63.3822 32.2946 63.3997 32.0914 63.4674C31.8883 63.5351 31.7102 63.6622 31.5571 63.8485C31.4041 64.0349 31.2772 64.2843 31.1764 64.5966C31.0756 64.909 30.9966 65.2961 30.9394 65.758L30.7341 67.4167C30.6773 67.8755 30.6633 68.2711 30.6921 68.6036C30.721 68.936 30.793 69.2127 30.908 69.4336C31.023 69.6545 31.1832 69.8236 31.3884 69.9408C31.5936 70.058 31.8408 70.1349 32.13 70.1715C32.3657 70.2013 32.558 70.2017 32.7068 70.1727C32.8557 70.1436 32.977 70.1062 33.0709 70.0604C33.1647 70.0146 33.2415 69.9799 33.3012 69.9563L33.5221 68.1725L32.1327 67.9968L32.3142 66.531L35.6439 66.952ZM39.4685 68.1825L39.9808 71.7238L38.0371 72L36.6395 62.3375L39.7417 61.8967C40.386 61.8051 40.9522 61.8376 41.4403 61.994C41.9284 62.1504 42.3251 62.4278 42.6306 62.8261C42.936 63.2244 43.135 63.7429 43.2273 64.3815C43.3028 64.9032 43.2965 65.3588 43.2085 65.7484C43.1205 66.138 42.964 66.474 42.7389 66.7564C42.5884 66.9451 42.4118 67.1147 42.209 67.265L44.4886 70.9883L44.5021 71.0814L42.4248 71.3765L40.4547 68.0424L39.4685 68.1825ZM39.2352 66.5697L40.3407 66.4126C40.6056 66.375 40.8171 66.2849 40.975 66.1426C41.1329 66.0002 41.2395 65.8152 41.2947 65.5875C41.3499 65.3599 41.3567 65.1018 41.3149 64.8133C41.2709 64.5089 41.1939 64.2531 41.0838 64.046C40.9738 63.8389 40.8277 63.6887 40.6455 63.5953C40.4634 63.502 40.24 63.4741 39.9754 63.5117L38.8167 63.6764L39.2352 66.5697ZM48.1081 67.7564L48.4086 69.8164L46.5023 70.6208L45.4983 60.4418L47.1383 59.7498L53.7842 67.5481L51.8659 68.3575L50.5916 66.7084L48.1081 67.7564ZM47.3417 62.5025L47.8656 66.0937L49.5631 65.3774L47.3417 62.5025ZM57.5184 64.7919L55.5154 66.3663L49.4726 58.6871L51.4935 57.0987C51.9369 56.7502 52.3965 56.5057 52.8721 56.3653C53.3478 56.2249 53.8241 56.1912 54.3012 56.2642C54.7783 56.3372 55.2454 56.5203 55.7026 56.8135C56.1597 57.1066 56.5916 57.5116 56.9982 58.0284L57.934 59.2176C58.3414 59.7354 58.6329 60.2497 58.8085 60.7606C58.9841 61.2714 59.0511 61.7671 59.0096 62.2476C58.9682 62.7281 58.8224 63.1834 58.5721 63.6136C58.3219 64.0437 57.9707 64.4365 57.5184 64.7919ZM52.0247 58.7586L56.0516 63.876L56.5126 63.5137C56.8836 63.222 57.1208 62.9285 57.224 62.633C57.3272 62.3376 57.308 62.0123 57.1663 61.6572C57.0246 61.3022 56.7695 60.8906 56.4011 60.4224L55.4571 59.2226C55.179 58.8693 54.9189 58.5862 54.6769 58.3733C54.4349 58.1605 54.1996 58.02 53.971 57.9519C53.7424 57.8838 53.5089 57.8849 53.2705 57.9551C53.032 58.0254 52.7764 58.1677 52.5035 58.3822L52.0247 58.7586ZM65.9935 55.8504L62.5844 60.2817L54.844 54.3179L58.2442 49.8981L59.5379 50.8949L57.3337 53.7601L59.1743 55.1782L61.0419 52.7505L62.2927 53.7142L60.425 56.1419L62.492 57.7344L64.705 54.8577L65.9935 55.8504Z" fill="#1A1A1A"></path>
<path d="M36.0874 56.3442C47.4702 56.3442 56.6978 47.1221 56.6978 35.7461C56.6978 24.37 47.4702 15.1479 36.0874 15.1479C24.7046 15.1479 15.4771 24.37 15.4771 35.7461C15.4771 47.1221 24.7046 56.3442 36.0874 56.3442Z" fill="#F74A96"></path>
<path d="M7.44 132V101.808H0.336V96.528H20.064V101.808H13.008V132H7.44ZM18.9746 118.848C18.9746 116.832 19.3106 114.976 19.9826 113.28C20.6546 111.552 21.5986 110.08 22.8146 108.864C24.0306 107.616 25.4706 106.64 27.1346 105.936C28.8306 105.232 30.6546 104.88 32.6066 104.88C34.6546 104.88 36.3986 105.248 37.8386 105.984C39.3106 106.688 40.6386 107.84 41.8226 109.44V105.504H46.9106V132H41.8226V128.16C40.5106 129.76 39.1346 130.912 37.6946 131.616C36.2866 132.288 34.5906 132.624 32.6066 132.624C30.6226 132.624 28.7986 132.288 27.1346 131.616C25.4706 130.912 24.0306 129.952 22.8146 128.736C21.5986 127.488 20.6546 126.032 19.9826 124.368C19.3106 122.672 18.9746 120.832 18.9746 118.848ZM24.4466 118.896C24.4466 120.144 24.6546 121.312 25.0706 122.4C25.5186 123.456 26.1266 124.384 26.8946 125.184C27.6946 125.952 28.6226 126.56 29.6786 127.008C30.7666 127.424 31.9346 127.632 33.1826 127.632C34.4306 127.632 35.5666 127.424 36.5906 127.008C37.6466 126.56 38.5586 125.952 39.3266 125.184C40.0946 124.384 40.6866 123.44 41.1026 122.352C41.5186 121.264 41.7266 120.08 41.7266 118.8C41.7266 117.52 41.5026 116.336 41.0546 115.248C40.6386 114.128 40.0306 113.184 39.2306 112.416C38.4626 111.616 37.5346 110.992 36.4466 110.544C35.3906 110.096 34.2226 109.872 32.9426 109.872C31.7266 109.872 30.6066 110.112 29.5826 110.592C28.5586 111.04 27.6626 111.664 26.8946 112.464C26.1266 113.264 25.5186 114.224 25.0706 115.344C24.6546 116.432 24.4466 117.616 24.4466 118.896ZM49.3766 132V96.528H54.8006V108.672C56.0486 107.264 57.3766 106.256 58.7846 105.648C60.1926 105.008 61.8566 104.688 63.7766 104.688C65.6966 104.688 67.4726 105.04 69.1046 105.744C70.7686 106.448 72.2086 107.424 73.4246 108.672C74.6406 109.92 75.5846 111.392 76.2566 113.088C76.9606 114.784 77.3126 116.624 77.3126 118.608C77.3126 120.624 76.9766 122.496 76.3046 124.224C75.6326 125.952 74.7046 127.44 73.5206 128.688C72.3686 129.904 70.9766 130.864 69.3446 131.568C67.7126 132.272 65.9366 132.624 64.0166 132.624C61.9686 132.624 60.1766 132.272 58.6406 131.568C57.1366 130.864 55.7446 129.744 54.4646 128.208V132H49.3766ZM63.2006 127.632C64.4486 127.632 65.6006 127.408 66.6566 126.96C67.7126 126.512 68.6086 125.904 69.3446 125.136C70.1126 124.336 70.7046 123.392 71.1206 122.304C71.5686 121.184 71.7926 119.968 71.7926 118.656C71.7926 117.344 71.5686 116.144 71.1206 115.056C70.7046 113.936 70.1126 112.976 69.3446 112.176C68.5766 111.376 67.6486 110.768 66.5606 110.352C65.4726 109.904 64.2886 109.68 63.0086 109.68C61.7926 109.68 60.6566 109.904 59.6006 110.352C58.5766 110.8 57.6806 111.44 56.9126 112.272C56.1446 113.072 55.5366 114.016 55.0886 115.104C54.6726 116.192 54.4646 117.392 54.4646 118.704C54.4646 119.984 54.6886 121.168 55.1366 122.256C55.5846 123.344 56.1926 124.288 56.9606 125.088C57.7606 125.888 58.6886 126.512 59.7446 126.96C60.8006 127.408 61.9526 127.632 63.2006 127.632ZM78.5798 132V96.528H84.0038V132H78.5798ZM106.327 123.888H112.231C111.783 125.168 111.143 126.352 110.311 127.44C109.479 128.496 108.503 129.408 107.383 130.176C106.263 130.944 105.031 131.552 103.687 132C102.375 132.416 100.983 132.624 99.5108 132.624C97.5268 132.624 95.6548 132.272 93.8948 131.568C92.1668 130.864 90.6628 129.888 89.3828 128.64C88.1028 127.392 87.0948 125.936 86.3588 124.272C85.6548 122.576 85.3027 120.752 85.3027 118.8C85.3027 116.848 85.6548 115.024 86.3588 113.328C87.0628 111.632 88.0388 110.16 89.2868 108.912C90.5348 107.664 92.0068 106.688 93.7028 105.984C95.3988 105.248 97.2228 104.88 99.1748 104.88C101.127 104.88 102.935 105.248 104.599 105.984C106.295 106.688 107.751 107.664 108.967 108.912C110.215 110.16 111.191 111.648 111.895 113.376C112.599 115.104 112.951 116.944 112.951 118.896C112.951 119.344 112.935 119.728 112.903 120.048C112.871 120.336 112.807 120.672 112.711 121.056H91.0628C91.2228 122.016 91.5428 122.912 92.0228 123.744C92.5028 124.544 93.1108 125.232 93.8468 125.808C94.5828 126.384 95.4148 126.832 96.3428 127.152C97.3028 127.472 98.3108 127.632 99.3668 127.632C100.935 127.632 102.279 127.312 103.399 126.672C104.551 126.032 105.527 125.104 106.327 123.888ZM90.9668 116.208H107.527C107.047 114.192 106.087 112.64 104.647 111.552C103.207 110.432 101.399 109.872 99.2228 109.872C98.1668 109.872 97.1908 110.016 96.2948 110.304C95.3988 110.592 94.5988 111.008 93.8948 111.552C93.1908 112.096 92.5828 112.768 92.0708 113.568C91.5908 114.336 91.2228 115.216 90.9668 116.208ZM7.44 175V144.808H0.336V139.528H20.064V144.808H13.008V175H7.44ZM39.9986 166.888H45.9026C45.4546 168.168 44.8146 169.352 43.9826 170.44C43.1506 171.496 42.1746 172.408 41.0546 173.176C39.9346 173.944 38.7026 174.552 37.3586 175C36.0466 175.416 34.6546 175.624 33.1826 175.624C31.1986 175.624 29.3266 175.272 27.5666 174.568C25.8386 173.864 24.3346 172.888 23.0546 171.64C21.7746 170.392 20.7666 168.936 20.0306 167.272C19.3266 165.576 18.9746 163.752 18.9746 161.8C18.9746 159.848 19.3266 158.024 20.0306 156.328C20.7346 154.632 21.7106 153.16 22.9586 151.912C24.2066 150.664 25.6786 149.688 27.3746 148.984C29.0706 148.248 30.8946 147.88 32.8466 147.88C34.7986 147.88 36.6066 148.248 38.2706 148.984C39.9666 149.688 41.4226 150.664 42.6386 151.912C43.8866 153.16 44.8626 154.648 45.5666 156.376C46.2706 158.104 46.6226 159.944 46.6226 161.896C46.6226 162.344 46.6066 162.728 46.5746 163.048C46.5426 163.336 46.4786 163.672 46.3826 164.056H24.7346C24.8946 165.016 25.2146 165.912 25.6946 166.744C26.1746 167.544 26.7826 168.232 27.5186 168.808C28.2546 169.384 29.0866 169.832 30.0146 170.152C30.9746 170.472 31.9826 170.632 33.0386 170.632C34.6066 170.632 35.9506 170.312 37.0706 169.672C38.2226 169.032 39.1986 168.104 39.9986 166.888ZM24.6386 159.208H41.1986C40.7186 157.192 39.7586 155.64 38.3186 154.552C36.8786 153.432 35.0706 152.872 32.8946 152.872C31.8386 152.872 30.8626 153.016 29.9666 153.304C29.0706 153.592 28.2706 154.008 27.5666 154.552C26.8626 155.096 26.2546 155.768 25.7426 156.568C25.2626 157.336 24.8946 158.216 24.6386 159.208ZM47.7829 175V148.504H52.9189V151.336C54.0709 150.12 55.2549 149.24 56.4709 148.696C57.6869 148.152 59.0949 147.88 60.6949 147.88C64.2789 147.88 66.9349 148.952 68.6629 151.096C70.3909 153.208 71.2549 156.472 71.2549 160.888V175H65.8309V161.752C65.8309 158.648 65.3349 156.392 64.3429 154.984C63.3829 153.576 61.8469 152.872 59.7349 152.872C57.5269 152.872 55.8789 153.608 54.7909 155.08C53.7349 156.52 53.2069 158.776 53.2069 161.848V175H47.7829ZM73.6579 175V148.504H78.7939V151.336C79.9459 150.12 81.1299 149.24 82.3459 148.696C83.5619 148.152 84.9699 147.88 86.5699 147.88C90.1539 147.88 92.8099 148.952 94.5379 151.096C96.2659 153.208 97.1299 156.472 97.1299 160.888V175H91.7059V161.752C91.7059 158.648 91.2099 156.392 90.2179 154.984C89.2579 153.576 87.7219 152.872 85.6099 152.872C83.4019 152.872 81.7539 153.608 80.6659 155.08C79.6099 156.52 79.0819 158.776 79.0819 161.848V175H73.6579ZM99.5329 175V148.504H104.957V175H99.5329ZM99.5329 145.528V139.528H104.957V145.528H99.5329ZM105.44 166.792H110.912C111.136 168.104 111.568 169.08 112.208 169.72C112.88 170.328 113.776 170.632 114.896 170.632C115.888 170.632 116.704 170.328 117.344 169.72C117.984 169.112 118.304 168.328 118.304 167.368C118.304 166.824 118.176 166.344 117.92 165.928C117.664 165.512 117.312 165.16 116.864 164.872C116.416 164.584 115.904 164.328 115.328 164.104C114.784 163.88 114.208 163.656 113.6 163.432C112.288 162.984 111.168 162.504 110.24 161.992C109.344 161.48 108.608 160.92 108.032 160.312C107.456 159.704 107.04 159.032 106.784 158.296C106.528 157.528 106.4 156.68 106.4 155.752C106.4 154.632 106.608 153.592 107.024 152.632C107.44 151.672 108.016 150.84 108.752 150.136C109.52 149.432 110.416 148.888 111.44 148.504C112.464 148.088 113.568 147.88 114.752 147.88C115.936 147.88 117.024 148.072 118.016 148.456C119.008 148.84 119.872 149.368 120.608 150.04C121.344 150.712 121.92 151.528 122.336 152.488C122.752 153.416 122.992 154.44 123.056 155.56H117.68C117.552 154.696 117.232 154.04 116.72 153.592C116.24 153.112 115.584 152.872 114.752 152.872C113.92 152.872 113.232 153.128 112.688 153.64C112.144 154.152 111.872 154.776 111.872 155.512C111.872 156.024 112.016 156.472 112.304 156.856C112.624 157.24 113.024 157.576 113.504 157.864C113.984 158.152 114.512 158.408 115.088 158.632C115.664 158.856 116.24 159.064 116.816 159.256C119.28 160.056 121.056 161.064 122.144 162.28C123.232 163.464 123.776 164.984 123.776 166.84C123.776 168.12 123.536 169.288 123.056 170.344C122.608 171.4 121.984 172.328 121.184 173.128C120.384 173.896 119.424 174.504 118.304 174.952C117.216 175.4 116.032 175.624 114.752 175.624C112.032 175.624 109.84 174.856 108.176 173.32C106.544 171.752 105.632 169.576 105.44 166.792ZM162.665 165.304H169.097C168.329 166.936 167.385 168.392 166.265 169.672C165.177 170.952 163.929 172.04 162.521 172.936C161.145 173.8 159.625 174.472 157.961 174.952C156.329 175.4 154.601 175.624 152.777 175.624C150.185 175.624 147.753 175.16 145.481 174.232C143.209 173.272 141.225 171.96 139.529 170.296C137.865 168.632 136.553 166.68 135.593 164.44C134.633 162.2 134.153 159.8 134.153 157.24C134.153 154.68 134.617 152.28 135.545 150.04C136.505 147.8 137.801 145.864 139.433 144.232C141.097 142.568 143.033 141.272 145.241 140.344C147.481 139.384 149.881 138.904 152.441 138.904C154.297 138.904 156.073 139.144 157.769 139.624C159.465 140.072 161.017 140.76 162.425 141.688C163.865 142.584 165.145 143.688 166.265 145C167.385 146.28 168.313 147.736 169.049 149.368H162.857C161.577 147.608 160.105 146.312 158.441 145.48C156.809 144.648 154.857 144.232 152.585 144.232C150.761 144.232 149.065 144.568 147.497 145.24C145.929 145.88 144.569 146.792 143.417 147.976C142.265 149.128 141.369 150.504 140.729 152.104C140.089 153.672 139.769 155.368 139.769 157.192C139.769 159.016 140.105 160.728 140.777 162.328C141.449 163.896 142.377 165.272 143.561 166.456C144.745 167.64 146.105 168.584 147.641 169.288C149.209 169.96 150.889 170.296 152.681 170.296C154.665 170.296 156.425 169.912 157.961 169.144C159.529 168.376 161.097 167.096 162.665 165.304ZM170.689 175V139.528H176.113V175H170.689ZM196.852 175V171.928C195.764 173.272 194.612 174.232 193.396 174.808C192.212 175.352 190.74 175.624 188.98 175.624C185.492 175.624 182.868 174.552 181.108 172.408C179.38 170.232 178.516 167.016 178.516 162.76V148.504H183.94V161.896C183.94 164.936 184.42 167.16 185.38 168.568C186.34 169.944 187.844 170.632 189.892 170.632C192.196 170.632 193.876 169.896 194.932 168.424C196.02 166.952 196.564 164.6 196.564 161.368V148.504H201.988V175H196.852ZM204.439 175V139.528H209.863V151.672C211.111 150.264 212.439 149.256 213.847 148.648C215.255 148.008 216.919 147.688 218.839 147.688C220.759 147.688 222.535 148.04 224.167 148.744C225.831 149.448 227.271 150.424 228.487 151.672C229.703 152.92 230.647 154.392 231.319 156.088C232.023 157.784 232.375 159.624 232.375 161.608C232.375 163.624 232.039 165.496 231.367 167.224C230.695 168.952 229.767 170.44 228.583 171.688C227.431 172.904 226.039 173.864 224.407 174.568C222.775 175.272 220.999 175.624 219.079 175.624C217.031 175.624 215.239 175.272 213.703 174.568C212.199 173.864 210.807 172.744 209.527 171.208V175H204.439ZM218.263 170.632C219.511 170.632 220.663 170.408 221.719 169.96C222.775 169.512 223.671 168.904 224.407 168.136C225.175 167.336 225.767 166.392 226.183 165.304C226.631 164.184 226.855 162.968 226.855 161.656C226.855 160.344 226.631 159.144 226.183 158.056C225.767 156.936 225.175 155.976 224.407 155.176C223.639 154.376 222.711 153.768 221.623 153.352C220.535 152.904 219.351 152.68 218.071 152.68C216.855 152.68 215.719 152.904 214.663 153.352C213.639 153.8 212.743 154.44 211.975 155.272C211.207 156.072 210.599 157.016 210.151 158.104C209.735 159.192 209.527 160.392 209.527 161.704C209.527 162.984 209.751 164.168 210.199 165.256C210.647 166.344 211.255 167.288 212.023 168.088C212.823 168.888 213.751 169.512 214.807 169.96C215.863 170.408 217.015 170.632 218.263 170.632ZM3.504 218V182.528H11.136C15.616 182.528 18.912 183.296 21.024 184.832C23.168 186.336 24.24 188.688 24.24 191.888C24.24 193.616 23.936 195.008 23.328 196.064C22.752 197.12 21.744 198.032 20.304 198.8C22.448 199.696 23.984 200.832 24.912 202.208C25.872 203.552 26.352 205.344 26.352 207.584C26.352 211.008 25.2 213.6 22.896 215.36C20.592 217.12 17.2 218 12.72 218H3.504ZM9.072 212.72H12.864C15.616 212.72 17.616 212.32 18.864 211.52C20.112 210.688 20.736 209.344 20.736 207.488C20.736 205.824 20.192 204.512 19.104 203.552C18.048 202.592 16.608 202.112 14.784 202.112H9.072V212.72ZM9.072 196.736H14.112C15.616 196.736 16.752 196.368 17.52 195.632C18.288 194.864 18.672 193.76 18.672 192.32C18.672 190.752 18.16 189.632 17.136 188.96C16.144 188.256 14.528 187.904 12.288 187.904H9.072V196.736ZM47.5924 209.888H53.4964C53.0484 211.168 52.4084 212.352 51.5764 213.44C50.7444 214.496 49.7684 215.408 48.6484 216.176C47.5284 216.944 46.2964 217.552 44.9524 218C43.6404 218.416 42.2484 218.624 40.7764 218.624C38.7924 218.624 36.9204 218.272 35.1604 217.568C33.4324 216.864 31.9284 215.888 30.6484 214.64C29.3684 213.392 28.3604 211.936 27.6244 210.272C26.9204 208.576 26.5684 206.752 26.5684 204.8C26.5684 202.848 26.9204 201.024 27.6244 199.328C28.3284 197.632 29.3044 196.16 30.5524 194.912C31.8004 193.664 33.2724 192.688 34.9684 191.984C36.6644 191.248 38.4884 190.88 40.4404 190.88C42.3924 190.88 44.2004 191.248 45.8644 191.984C47.5604 192.688 49.0164 193.664 50.2324 194.912C51.4804 196.16 52.4564 197.648 53.1604 199.376C53.8644 201.104 54.2164 202.944 54.2164 204.896C54.2164 205.344 54.2004 205.728 54.1684 206.048C54.1364 206.336 54.0724 206.672 53.9764 207.056H32.3284C32.4884 208.016 32.8084 208.912 33.2884 209.744C33.7684 210.544 34.3764 211.232 35.1124 211.808C35.8484 212.384 36.6804 212.832 37.6084 213.152C38.5684 213.472 39.5764 213.632 40.6324 213.632C42.2004 213.632 43.5444 213.312 44.6644 212.672C45.8164 212.032 46.7924 211.104 47.5924 209.888ZM32.2324 202.208H48.7924C48.3124 200.192 47.3524 198.64 45.9124 197.552C44.4724 196.432 42.6644 195.872 40.4884 195.872C39.4324 195.872 38.4564 196.016 37.5604 196.304C36.6644 196.592 35.8644 197.008 35.1604 197.552C34.4564 198.096 33.8484 198.768 33.3364 199.568C32.8564 200.336 32.4884 201.216 32.2324 202.208ZM54.2246 204.8C54.2246 202.848 54.5766 201.024 55.2806 199.328C56.0166 197.632 57.0246 196.16 58.3046 194.912C59.5846 193.664 61.0726 192.688 62.7686 191.984C64.4966 191.248 66.3526 190.88 68.3366 190.88C70.2566 190.88 72.0646 191.248 73.7606 191.984C75.4566 192.72 76.9286 193.712 78.1766 194.96C79.4246 196.208 80.4006 197.68 81.1046 199.376C81.8406 201.072 82.2086 202.88 82.2086 204.8C82.2086 206.752 81.8406 208.576 81.1046 210.272C80.4006 211.936 79.4246 213.392 78.1766 214.64C76.9286 215.856 75.4566 216.832 73.7606 217.568C72.0646 218.272 70.2566 218.624 68.3366 218.624C66.3526 218.624 64.4966 218.272 62.7686 217.568C61.0726 216.864 59.5846 215.888 58.3046 214.64C57.0246 213.36 56.0166 211.888 55.2806 210.224C54.5766 208.528 54.2246 206.72 54.2246 204.8ZM68.2406 213.632C69.4246 213.632 70.5286 213.408 71.5526 212.96C72.6086 212.512 73.5046 211.888 74.2406 211.088C75.0086 210.288 75.6006 209.36 76.0166 208.304C76.4646 207.248 76.6886 206.096 76.6886 204.848C76.6886 203.568 76.4646 202.384 76.0166 201.296C75.6006 200.208 75.0086 199.264 74.2406 198.464C73.4726 197.664 72.5606 197.04 71.5046 196.592C70.4486 196.112 69.3126 195.872 68.0966 195.872C66.9446 195.872 65.8566 196.112 64.8326 196.592C63.8086 197.04 62.9126 197.68 62.1446 198.512C61.3766 199.312 60.7686 200.256 60.3206 201.344C59.9046 202.4 59.6966 203.552 59.6966 204.8C59.6966 206.048 59.9046 207.216 60.3206 208.304C60.7686 209.36 61.3766 210.288 62.1446 211.088C62.9446 211.888 63.8566 212.512 64.8806 212.96C65.9366 213.408 67.0566 213.632 68.2406 213.632ZM82.9256 219.728H88.9256C89.9816 221.168 91.0856 222.176 92.2376 222.752C93.3896 223.36 94.8456 223.664 96.6056 223.664C99.2616 223.664 101.278 222.928 102.654 221.456C104.062 220.016 104.766 217.888 104.766 215.072V213.872C103.55 215.536 102.222 216.752 100.782 217.52C99.3736 218.256 97.6456 218.624 95.5976 218.624C93.7096 218.624 91.9496 218.272 90.3176 217.568C88.6856 216.864 87.2776 215.904 86.0936 214.688C84.9416 213.44 84.0296 211.968 83.3576 210.272C82.6856 208.544 82.3496 206.672 82.3496 204.656C82.3496 202.672 82.6696 200.848 83.3096 199.184C83.9816 197.52 84.9096 196.08 86.0936 194.864C87.2776 193.616 88.6696 192.64 90.2696 191.936C91.8696 191.232 93.6296 190.88 95.5496 190.88C97.5656 190.88 99.3256 191.248 100.83 191.984C102.334 192.688 103.646 193.792 104.766 195.296V191.504H109.998V213.056C109.998 218.208 108.862 222.064 106.59 224.624C104.35 227.216 100.974 228.512 96.4616 228.512C93.1656 228.512 90.3496 227.744 88.0136 226.208C85.6776 224.704 83.9816 222.544 82.9256 219.728ZM96.1736 213.632C97.4216 213.632 98.5576 213.424 99.5816 213.008C100.606 212.56 101.486 211.936 102.222 211.136C102.99 210.336 103.566 209.392 103.95 208.304C104.366 207.216 104.574 206 104.574 204.656C104.574 203.376 104.366 202.192 103.95 201.104C103.534 200.016 102.942 199.088 102.174 198.32C101.406 197.552 100.494 196.96 99.4376 196.544C98.3816 196.096 97.2136 195.872 95.9336 195.872C94.7496 195.872 93.6616 196.096 92.6696 196.544C91.6776 196.96 90.8136 197.568 90.0776 198.368C89.3736 199.168 88.8136 200.112 88.3976 201.2C88.0136 202.288 87.8216 203.472 87.8216 204.752C87.8216 206.096 88.0136 207.312 88.3976 208.4C88.8136 209.456 89.3896 210.384 90.1256 211.184C90.8616 211.952 91.7416 212.56 92.7656 213.008C93.7896 213.424 94.9256 213.632 96.1736 213.632ZM112.47 218V191.504H117.558V194.48C117.974 193.84 118.39 193.296 118.806 192.848C119.222 192.368 119.686 192 120.198 191.744C120.71 191.456 121.286 191.248 121.926 191.12C122.566 190.992 123.318 190.912 124.182 190.88V196.16C122.07 196.256 120.486 196.88 119.43 198.032C118.406 199.152 117.894 200.816 117.894 203.024V218H112.47ZM123.693 204.848C123.693 202.832 124.029 200.976 124.701 199.28C125.373 197.552 126.317 196.08 127.533 194.864C128.749 193.616 130.189 192.64 131.853 191.936C133.549 191.232 135.373 190.88 137.325 190.88C139.373 190.88 141.117 191.248 142.557 191.984C144.029 192.688 145.357 193.84 146.541 195.44V191.504H151.629V218H146.541V214.16C145.229 215.76 143.853 216.912 142.413 217.616C141.005 218.288 139.309 218.624 137.325 218.624C135.341 218.624 133.517 218.288 131.853 217.616C130.189 216.912 128.749 215.952 127.533 214.736C126.317 213.488 125.373 212.032 124.701 210.368C124.029 208.672 123.693 206.832 123.693 204.848ZM129.165 204.896C129.165 206.144 129.373 207.312 129.789 208.4C130.237 209.456 130.845 210.384 131.613 211.184C132.413 211.952 133.341 212.56 134.397 213.008C135.485 213.424 136.653 213.632 137.901 213.632C139.149 213.632 140.285 213.424 141.309 213.008C142.365 212.56 143.277 211.952 144.045 211.184C144.813 210.384 145.405 209.44 145.821 208.352C146.237 207.264 146.445 206.08 146.445 204.8C146.445 203.52 146.221 202.336 145.773 201.248C145.357 200.128 144.749 199.184 143.949 198.416C143.181 197.616 142.253 196.992 141.165 196.544C140.109 196.096 138.941 195.872 137.661 195.872C136.445 195.872 135.325 196.112 134.301 196.592C133.277 197.04 132.381 197.664 131.613 198.464C130.845 199.264 130.237 200.224 129.789 201.344C129.373 202.432 129.165 203.616 129.165 204.896ZM152.943 204.752C152.943 202.768 153.279 200.928 153.951 199.232C154.655 197.504 155.615 196.016 156.831 194.768C158.047 193.488 159.471 192.496 161.103 191.792C162.767 191.056 164.543 190.688 166.431 190.688C168.255 190.688 169.935 191.024 171.471 191.696C173.039 192.336 174.351 193.264 175.407 194.48V182.528H180.879V218H175.791V214.112C174.447 215.712 173.055 216.864 171.615 217.568C170.207 218.272 168.527 218.624 166.575 218.624C164.655 218.624 162.863 218.272 161.199 217.568C159.535 216.832 158.095 215.856 156.879 214.64C155.663 213.392 154.703 211.936 153.999 210.272C153.295 208.576 152.943 206.736 152.943 204.752ZM158.415 204.608C158.415 205.856 158.639 207.04 159.087 208.16C159.567 209.248 160.191 210.208 160.959 211.04C161.759 211.84 162.687 212.48 163.743 212.96C164.831 213.408 165.999 213.632 167.247 213.632C168.431 213.632 169.535 213.408 170.559 212.96C171.583 212.48 172.479 211.84 173.247 211.04C174.047 210.208 174.671 209.248 175.119 208.16C175.567 207.072 175.791 205.904 175.791 204.656C175.791 203.376 175.567 202.192 175.119 201.104C174.671 199.984 174.047 199.024 173.247 198.224C172.447 197.424 171.503 196.8 170.415 196.352C169.359 195.904 168.191 195.68 166.911 195.68C165.727 195.68 164.607 195.904 163.551 196.352C162.527 196.8 161.631 197.44 160.863 198.272C160.127 199.072 159.535 200.016 159.087 201.104C158.639 202.192 158.415 203.36 158.415 204.608Z" fill="#292929"></path>
</svg>