<svg width="16" height="16" viewBox="0 0 16 16" fill="none" xmlns="http://www.w3.org/2000/svg">
<path d="M14.2009 13.6464L11.0715 10.5176C11.9785 9.42871 12.4308 8.03201 12.3343 6.6181C12.2378 5.20419 11.5998 3.88193 10.5532 2.92638C9.50663 1.97082 8.13192 1.45555 6.71509 1.48775C5.29825 1.51995 3.94837 2.09714 2.94626 3.09926C1.94415 4.10137 1.36696 5.45125 1.33476 6.86808C1.30256 8.28492 1.81783 9.65963 2.77338 10.7062C3.72893 11.7528 5.0512 12.3908 6.46511 12.4873C7.87902 12.5838 9.27571 12.1315 10.3646 11.2245L13.4934 14.3539C13.5399 14.4003 13.595 14.4372 13.6557 14.4623C13.7164 14.4875 13.7815 14.5004 13.8471 14.5004C13.9128 14.5004 13.9779 14.4875 14.0386 14.4623C14.0993 14.4372 14.1544 14.4003 14.2009 14.3539C14.2474 14.3074 14.2842 14.2523 14.3093 14.1916C14.3345 14.1309 14.3474 14.0658 14.3474 14.0001C14.3474 13.9344 14.3345 13.8694 14.3093 13.8087C14.2842 13.748 14.2474 13.6928 14.2009 13.6464ZM2.34715 7.00014C2.34715 6.11013 2.61107 5.2401 3.10553 4.50008C3.6 3.76006 4.3028 3.18328 5.12507 2.84268C5.94734 2.50209 6.85214 2.41298 7.72505 2.58661C8.59797 2.76024 9.39979 3.18883 10.0291 3.81816C10.6585 4.4475 11.087 5.24932 11.2607 6.12224C11.4343 6.99515 11.3452 7.89995 11.0046 8.72222C10.664 9.54449 10.0872 10.2473 9.34721 10.7418C8.60719 11.2362 7.73716 11.5001 6.84715 11.5001C5.65408 11.4988 4.51026 11.0243 3.66663 10.1807C2.823 9.33704 2.34847 8.19321 2.34715 7.00014Z" fill="#1A1A1A"></path>
</svg>